<?xml version="1.0" standalone="no"?>
<!DOCTYPE svg PUBLIC "-//W3C//DTD SVG 1.1//EN" "http://www.w3.org/Graphics/SVG/1.1/DTD/svg11.dtd" >
<svg xmlns="http://www.w3.org/2000/svg" xmlns:xlink="http://www.w3.org/1999/xlink" version="1.1">
<metadata></metadata>
<defs>
<font id="i_still_knowregular" horiz-adv-x="1476" >
<font-face units-per-em="2048" ascent="1638" descent="-410" />
<missing-glyph horiz-adv-x="565" />
<glyph horiz-adv-x="0" />
<glyph unicode="&#xd;" horiz-adv-x="1024" />
<glyph unicode=" "  horiz-adv-x="565" />
<glyph unicode="&#x09;" horiz-adv-x="565" />
<glyph unicode="&#xa0;" horiz-adv-x="565" />
<glyph unicode="@" horiz-adv-x="2480" d="M0 1278v-801h2451v801h-2451zM877 516q0 -4 -3 -4q-6 0 -9 22.5t-3 30.5q2 0 5 -10t5 -14q10 -20 21.5 -28.5t32.5 -8.5h10q8 4 17.5 13t9.5 20v22l-1 4t-4 6q-12 20 -36 31q-12 6 -22.5 19.5t-12.5 17.5l-2 -2q-4 0 -6 12t-2 19q0 10 3 16t7 16q20 27 55 27q16 0 27 -6 l6 -6q4 0 4 -2v-21l-1 -5l-3 -15q-4 2 -2 9t-2 13q-14 27 -35 27q-6 0 -21.5 -5t-15.5 -16v-28q0 -16 16 -29q4 -4 19.5 -14.5t19.5 -14.5q6 -4 7 -6l1 -1q1 -1 3 -5q2 0 2 -2q10 -4 16 -16.5t6 -22.5q0 -8 -4 -16t-8 -17q-23 -29 -59 -28q-8 0 -18.5 1t-16.5 9q-2 2 -3 4 t-3 4zM510 500q0 2 6 4t8 2q10 6 17 16q0 4 2 9.5t2 9.5v12q0 2 2 4l2 2q0 4 -2 5l-2 1v4v4v54v39v12q-4 25 -8.5 29t-26.5 8v4h2q8 0 18.5 1t14.5 -5q2 -2 1 -4t3 -2t3 2t3 4q2 4 11 3t14 1h10h8v-4l-25 -4q-4 -12 -10 -19v-6v-24v-25v-86v-10q0 -4 1 -12.5t1 -12.5 q2 0 2 -4q0 -2 2 -4q10 -4 22.5 -3t20.5 1h21q10 4 21.5 12t15.5 19q4 4 5 8t5 8v-4q-8 -14 -8 -41h6q4 0 8 4l7 7t5 7l37 111l1 3q1 3 3 3q0 2 3 7t3 7q0 4 3.5 13.5t3.5 11.5q2 8 5 15.5t5 17.5h2q2 0 1 -2t3 -2v8q0 8 8 8q4 0 4 -2q12 -41 24.5 -78t24.5 -78l9.5 -28.5 t15.5 -26.5q2 -2 10 -6l8 -4h-24q-2 0 -3 1t-3 1l-2 -2h-2h-2v2q-8 -2 -14.5 -4t-10.5 -2h-2q-12 0 -12 4l10 6q10 6 10 16q0 4 -3 15.5t-7 22.5t-7 20.5t-5 9.5h-64q-2 0 -6 -8t-7 -19.5t-6 -21.5t-3 -15q0 -25 14 -24q16 0 16 -6h-164q-4 4 -6 4v-4h-41l-4 -2h-14v2z M549 520v-12h4v12h-4zM1839 512q2 0 7 2t7 6q4 2 6.5 4t6.5 6l2 2q-2 10 0 20.5t2 20.5q2 8 4 15.5t0 13.5l8 60q-2 10 0 18t2 18v4q-8 18 -31 23h7q4 0 14 1t12 1h2l1 -2q1 -2 3 -2l2 -1q2 -1 2 -3h2v-17q4 -4 5.5 -10t5.5 -6v6l-4 10v11l-2 6v2v2l1 2q1 2 3 2l2 -2 q0 -25 10 -49.5t20 -44.5q6 -16 12.5 -36t14.5 -36q2 0 3 -1t3 -1l2 2q4 14 11.5 26.5t11.5 26.5q2 6 7 18.5t11 27t11.5 26.5t7.5 18q2 2 4 1t2 4q0 2 -2 3t-2 3h2q2 0 2 2q0 6 -3 7t-3 5q6 0 6 -2q2 -10 3 -18.5t1 -16.5v-35q2 -2 6 -2v2v15v10v12h2v6v9q0 6 -2 8v8v2v2 h37l-4 -2q-4 -2 -8 -2q-2 -2 -3 -1t-4 -3q0 -4 -2 -8l-2 -4v-99v-8q2 -4 3 -25.5t1 -27.5q4 -20 11.5 -26.5t25.5 -6.5q31 0 32 18.5t3 49.5v18q2 2 2 25v28v2v29q0 4 -1 11t-1 12q-4 12 -13 15t-20 5h7h51h2l-4 -4l-1 -6q-1 -6 -1 -10v-21v-27q0 -27 2 -28q0 -2 1 -3l1 -1 h6h16h17q4 0 14 3t14 9q0 10 4 14v-59v-2q-8 8 -8 12t-12 10q0 2 -2 2h-2h-45q-2 0 -6 -4v-30v-4v-9q0 -2 1 -14t1 -16q4 -12 10 -15.5t14 -7.5h17q14 0 30.5 3t24.5 22q4 4 5 12t5 12v-8q0 -10 -2 -17.5t-2 -17.5q0 -8 6 -10q-20 2 -38.5 1t-39.5 -1h-28q-10 -4 -11.5 10.5 t-1.5 18.5v45q0 10 -2 12h-2q-2 0 -2 -4v-8q0 -4 -1 -8.5t-1 -8.5q0 -14 1 -25.5t1 -23.5v-6v-2q-14 0 -25.5 -1t-23.5 -1q-10 0 -18 1t-17 1q-4 0 -2 7t-4 7h-2v-14h-12q-14 0 -17 -2h-4q-6 0 -8 2q8 4 16.5 5t14.5 9q0 -4 2 -4q4 0 4 4q0 6 3 11.5t3 11.5t-2 6q0 4 -4 4 l-2 -2q-4 23 -6 48.5t2 47.5q0 2 -2 3t-2 3v31q0 2 -2 2h-2l-4 -8q-6 -10 -10.5 -23.5t-10.5 -23.5l-24 -64q-2 -4 -5.5 -13t-7.5 -7q-2 -8 -6 -24.5t-8 -16.5h-2q0 4 -2 9t-2 9q-10 16 -10 25l-21 43v6q0 4 -6 19.5t-8 19.5t-8.5 21.5t-10.5 17.5t-4 -6v-6l-6 -76v-4 q0 -16 -1 -25.5t-1 -19.5q0 -16 10 -22.5t25 -10.5v-2q-8 -2 -13 -3l-4 -1h-12h-6q-4 0 -6 2q-2 0 -3 2t-3 2h-2q-4 0 -5 -2t-6 -2q-2 -2 -8 -2h-6v6zM1255 526q0 6 -2 20.5t-4 18.5v4v2v7v-3q2 -4 5 -11t6 -11v-14q0 -12 4 -13h4v13q14 -10 19 -16.5t22 -6.5q35 0 41 33 l4 4q0 4 -2 8l-4 8q0 10 -7 21q-4 8 -14 13t-16 9q-10 10 -20.5 16.5t-18.5 18.5q-4 4 -4 8q0 -4 -1 -2t-3 13v12v8q2 2 3 7t3 5q0 4 1 8l1 3h2q0 -10 -1 -19.5t-1 -19.5q0 -6 6 -6v2q0 6 1 12t1 14l-1 2q-1 2 -1 4v7q0 6 4 10q8 12 21.5 17t25.5 5q4 0 11.5 -1t11.5 -1 l2 -2q2 -2 2 -4h2q2 0 4 2l41 2h4l47 2v-2q0 -2 -9 -4t-13 -4q-2 -2 -5.5 -6t-5.5 -6v14l-2 2l-2 -2v-2q0 -16 2 -18v-123l6 -19q6 -27 27 -35t41 -8q25 0 37 19h4q0 -18 -22.5 -23.5t-32.5 -5.5h-6q-6 2 -20.5 3t-16.5 11l1 6q1 5 -3 9l-2 -2l-2 -13q0 -2 -3 -2 q-4 0 -7 5.5t-5 7.5q-12 12 -14 31.5t-2 35.5v21v73v9q0 14 -2 16q0 2 -2 2h-4q-4 0 -9.5 1t-9.5 1q-6 0 -6 -4v-25q0 -4 -1 -9l-1 -5l-2 -2v4q-2 4 -3 11.5t-3 9.5q0 6 -2 6q-2 2 -5 6t-8 8q-4 0 -9 2t-7 2q-14 4 -27.5 -7t-13.5 -30v-10q4 -20 18.5 -30.5t31 -20.5 t28.5 -24.5t12 -39.5q0 -14 -6 -20l-2 -4l-1 -3q-1 -3 -3 -3q-4 -12 -23.5 -19.5t-29.5 -7.5t-18.5 1t-18.5 3q-2 0 -6 2zM1036 514q18 4 24.5 11t10.5 28q0 4 1 6t1 6t-1 6t-1 7q0 4 2 5t2 5q0 2 -2 4v26q0 23 1 48.5t1 48.5q0 12 -10 12h-2q-4 0 -18.5 -1t-18.5 -1 q-12 -2 -20.5 -13.5t-12.5 -25.5l-2 2v2v2q0 10 2 18.5t2 18.5v6q-4 4 -9 5t-9 5l-4 5q-4 4 -4 6h-4q-4 2 -5.5 11t-5.5 15v23q2 2 2 6v2h-2v2q0 2 1 5t1 5q0 4 -1 5t-1 6q2 0 2 4v20q0 6 -2 8q0 2 2 2q4 0 5 4v3l-9 8q6 0 6 4h23h4h4q-4 0 -8 -2t-6 -2q-4 0 -5 -14.5 t-1 -24.5v-10v-11v-12v-8v-4q0 -14 5 -27.5t17 -21.5q4 -4 6 -4q6 0 9 -3h26q2 2 6 3.5t4 3.5h7q4 0 6 8q6 10 8 12t2 29v28l1 1q1 1 1 4v2q0 4 -1 7t-1 5q0 6 -1 15t-1 14q-2 6 -10.5 9t-12.5 3h-2h13h20h6h6q-14 -4 -12 -18.5t-2 -24.5q0 -8 -1 -30.5t-1 -27.5 q-2 -23 -16 -36q-6 -10 -20.5 -12.5t-24.5 -2.5q0 -6 2 -6h53q2 -2 8 -2q4 0 8 1t8 1l7 -4q8 0 14 4t12 4q4 0 5 -2t5 -2t6.5 2t6.5 2t7 -2t7 -2h8q4 4 4 8v2h-14q6 2 10 7.5t11 7.5v-4q0 -4 2 -4h2h2v22q-6 0 -6 14q0 12 6 19v2q0 8 -4 12v31v4q0 4 2 4v25q-2 2 -2 8 q0 2 6 2h10h2q-2 -2 -4 -2t-2 -4v-6v-103q0 -18 8 -24.5t23 -10.5h-7h-30h-6v-2v-4v-4v-4v-10v-27l-2 4q-3 4 -5 4q-10 29 -31.5 28t-43.5 -1v-115q0 -4 -1 -12t-1 -12t1 -13.5t1 -11.5t1 -10t1 -10q2 -14 12 -17.5t20 -7.5v-2h-2h-79l-3 -1q-2 -1 -4 -1zM2275 514 q10 2 15.5 7t11.5 16q0 2 1 10t1 12v23v16q0 14 1 30.5t1 28.5v17q0 8 -1 14t3 14v-6q0 -4 2 -4h2l1 2q1 2 1 4v29h6h7q-2 -10 -3.5 -18.5t-1.5 -14.5v-32v-31l2 -10q0 -2 7 -3q20 0 40.5 14.5t20.5 39.5q0 20 -14 41q-4 2 -11.5 6t-13.5 6q-4 2 -7 1t-7 1l2 2q0 2 4 2h6h6 q4 0 4 -2q2 0 7 -1l6 -1q2 0 5 -1l3 -1q6 -4 6 -8q0 -6 4 -10h2v10l1 -1q1 -1 3 -1q6 -4 5 -14.5t-1 -18.5l4 -4q4 0 6 3l1 3q0 2 -1 5l-2 3q0 4 3 6q0 -4 2 -9t2 -7t-1 -8t-3 -17q-2 0 -5 -2l-2 -2q-2 -4 -7 -9t-5 -7q-2 -2 -8 -4t-6 -6l18 -47q6 -6 6 -5l2 -4q2 -2 7.5 -9 t7.5 -9v-2v-8q0 -4 3 -10.5t3 -10.5v-2h-2q-8 0 -19 17q-4 4 -8 9t-10 13q-12 20 -18.5 37.5t-30.5 17.5h-10q-4 0 -7 -6v-28v-17v-16q2 -2 2 -10q0 -4 5 -9q10 -10 28 -14q-8 0 -14 -1t-14 -1q-4 0 -9.5 1t-9.5 1q-10 0 -18 -1t-19 -1q0 2 2 2zM1577 516q10 4 16 9t11 16 l4 8q0 6 2 4q2 0 2 2v4v25q0 8 2 20t4 23q2 16 4 32.5t2 38.5q4 0 4 4v11v14q0 8 4 8h17q0 -8 1 -13t3 -11t8 -24.5t8 -24.5l19 -44q0 -2 1 -4t1 -4l2 -8l2 -4q4 -4 8 -18.5t8 -14.5t7 9.5t5 13.5l33 78l6 18q4 10 8.5 19.5t4.5 21.5q0 2 -1 4t-1 6h18v-16q0 8 -6 8t-6 -12 q0 -4 6 -4v-19q-4 0 -3 3t-3 3l-6 -4q-4 -16 -14 -36l-9 -19l-1 -3l-3 -9q-6 -16 -13.5 -30.5t-13.5 -31.5l-1 -5q-1 -5 -3 -7q-2 -4 -6 -15.5t-6 -15.5q-2 0 -9 16.5t-15.5 38t-15.5 40t-9 24.5q-4 10 -8.5 22.5t-10.5 22.5q0 2 -1 4l-1 2q-4 0 -4 -4v-6q-4 -35 -6 -66.5 t-2 -64.5q0 -12 4 -17.5t10 -8.5t11.5 -4t7.5 -5h-11h-16q-12 0 -12 6q-2 2 -2 6t-4 4v-6v-6v-2q0 -2 -2 -2h-7h-16h-4h-2zM1778 526q8 8 8 21v37v4q0 8 -2 34.5t-2 32.5v15v14q2 2 6 2l2 25v2q2 -2 2 -6t2 -5q0 2 1 7.5t1 9.5t1 10t3 6h10h19l-4 -2q-4 -2 -6 -4l-4 -2h-7 q-4 0 -6 -19.5t-2 -23.5v-2l2 -10v-2h2v-58q-2 0 -2 -6q0 -2 2 -3t2 -3q0 -4 1 -13t1 -14q0 -2 1 -13t1 -17q4 -12 12.5 -16.5t18.5 -6.5q-4 -4 -10 -4h-4l-2 2q-2 2 -4 2l-6 -4h-3h-2l-1 1q-1 1 -1 3h-8h-2v6q0 10 1 21.5t1 21.5v6q0 6 -2 9l-2 -2q-4 -12 -5 -28.5 t-1 -31.5l-2 -2q-10 0 -17.5 -2t-17.5 -2q0 6 6 6h10l3 4h6zM2308 537q0 -14 2 -17v12v9h-2v-4zM1073 541v-15q0 -4 2 -4h4q4 0 4 4q0 6 -2 12.5t-2 12.5l2 4v27h-2q-2 -4 -1 -8.5t-3 -6.5v-24zM1542 735h6l1 -1q1 -1 1 -3t1 -8t3 -16l2 2v26h15h2h8q-20 -12 -21 -31.5 t-4 -41.5q0 -4 -1 -17.5t-1 -17.5q-2 -2 -2 -23v-20q0 6 -3 -3.5t-7 -35.5q0 -2 -4 -2q0 6 2 12t4 10q6 14 6 35v82q0 12 -4 24.5t-4 28.5zM1413 551v-4v2v4v-2zM2050 571q0 -6 2 -6q6 0 6 15q0 4 -2 4q-6 -1 -6 -13zM1405 578l2 -4q2 -5 4 -5h2q-2 10 -4 20.5t-6 24.5h-2 q0 -10 3 -18t1 -18zM735 612q0 -6 4 -6h47q4 0 5 6v2q-4 10 -11.5 34t-9.5 32l-6 12h-2q-4 0 -7 -14t-3 -19q-4 -4 -8.5 -19t-8.5 -22v-6zM2238 723h-6q-14 0 -16 2h-39q0 2 -2 2h2h25q12 0 22 1t21 -1q4 -2 3 -11t7 -14v-4l1 -4q1 -4 -3 -8q-2 20 -10 33zM1411 698h2 q2 2 2 13v4q0 4 -1 7l-1 3h-2v-27zM772 721q0 -14 6 -14q0 14 -6 14zM2150 715v-2h4q2 0 3 2q0 6 -5 10q-2 -2 -2 -10zM1614 727q-4 2 -9.5 3t-9.5 5h9h18v-8v-4h-2zM1509 735h25q2 0 2 -6v-4q-2 0 -4 1t-4 1t-7 1t-8 1q-4 4 -4 6zM2257 727v-2v2zM201 735q4 4 11 5t9 5v39 v4v3v4v6v28q0 14 1 33t-15 23q12 0 25.5 1t25.5 1q0 -2 -8 -4t-12 -11q-2 -2 -2 -20v-18v-17l4 -4h14q16 0 30.5 1t34.5 3q4 0 5 4v6v19v22q-2 10 -7.5 12.5t-13.5 4.5q10 0 21.5 1t23.5 1q6 0 8 -2q-8 0 -12 -4q-6 -8 -7 -18.5t-1 -20.5v-39v-37q0 -14 3 -19.5t13 -11.5 h-49q0 2 7 6t9 11q2 4 3.5 24.5t1.5 24.5q0 12 -9 12q-12 0 -29.5 -1t-29.5 -1q-4 0 -11 -1l-7 -1l-2 -4v-33q0 2 -1.5 6t-3.5 4v-18v-12q0 -8 5 -4q2 -2 4 -5.5t6 -3.5l4 -2q2 0 2 -2h-2h-47h-2zM98 852q2 0 -4 -6q-10 -25 -19 -49.5t-16 -48.5l-6 -9l-2 2l-2 13 q-2 12 -4 16v12q0 6 -1 5t-5 4q-2 2 -2 16q-4 16 -8 34.5t-15 35.5q-2 2 -5 3t-3 5q6 0 11.5 -2t9.5 -2t7 2t7 2h6q-4 -4 -9 -6t-5 -9q0 -4 4 -20t8 -33.5t9 -32t7 -14.5q4 0 9.5 15.5t7.5 19.5q0 4 4 15t6 16q-2 8 4 15t6 13t-5 11.5t-9 9.5h27h8l-8 -11v-4q0 -14 6 -22 l18 -76q0 -2 6 -2q2 0 7.5 13.5t11.5 30.5t10 33.5t4 22.5q0 12 -14 15h35q-8 -6 -15 -15q-10 -27 -17 -52t-16 -48q-2 -4 -6 -8t-4 -6v-13q0 -8 -4 -8q-2 2 -3 9l-1 8q0 4 -5 21.5t-7 23.5q0 2 -2 10t-5.5 18.5t-6.5 18.5t-5 8zM428 889l1 -2q1 -2 3 -2l2 2q2 0 6 -12.5 t9.5 -28t9.5 -29.5t6 -16q2 -8 6 -15.5t4 -15.5h-2q0 -4 3 -8t3 -6q10 -16 17 -17q2 0 6 -4h-8h-21q-18 0 -20 2q2 2 6 6.5t4 8.5q0 2 -1 7t-1 7q-2 4 -6 19.5t-11 15.5h-41q-6 0 -11 -19.5t-5 -25.5q0 -10 5 -13.5t11 -7.5h-41h-8q8 4 14.5 6t12.5 11l1 2q1 2 1 4 q8 27 16.5 52.5t18.5 49.5q0 4 3 12.5t3 12.5l1 2q1 2 3 2zM451 735h-2h2zM530 885q-10 0 -19 -1t-15 -12q-4 -4 -7 -12v6q0 4 1.5 11.5t1.5 11.5h2h8h26h41h33q12 0 14 2q4 0 5 -10q2 -2 2 -13q0 -6 -2 -8q-4 4 -5.5 10.5t-11.5 10.5q-4 4 -6 4h-4h-27q-6 0 -8 -13v-14v-12 q0 -8 2 -10v-48q-2 -2 -2 -8v-10q0 -2 -1 -4t-1 -6v-2q2 -2 6 -7.5t6 -5.5l4 -4q4 0 9 -4h-9q-4 0 -7 2t-7 2q-6 -6 -6 -4q-2 -2 -14 -2h-13h-6q8 6 16.5 10.5t8.5 18.5q2 2 3 9l1 7v101q0 4 -8 4h-11zM721 758q0 10 1 19t1 20q0 8 -4 14t-6 14q-4 8 -8.5 17.5t-6.5 19.5 l-18 23l-6 4h31h2h8q-8 -2 -8 -10q0 -4 3 -14.5t8 -20.5t9 -19.5t6 -11.5q4 4 5 8t5 4q-2 0 -3 -6t-3 -6q0 -2 -1 -3t-1 -3v-19v-22q0 -8 10 -18q2 -2 6.5 -4.5t6.5 -6.5h-4h-2q-4 0 -13.5 1t-11.5 1h-2q-2 0 -9 -1t-9 -1h-5h-4q2 2 10.5 6.5t12.5 14.5zM1333 748v-3 q0 -2 -4 -2h-18q0 2 2 2q12 10 14 21.5t2 30.5q0 4 -1 10t-1 10v12q0 10 1 18.5t1 18.5v2l-1 8q-1 9 -1 11l-2 2h-6q-4 0 -8 1l-4 1v2q6 0 12 -1t14 -1t10 2h23q0 -4 -10 -4q-6 0 -10 -4q0 -8 -5 -13v-73v-35q2 -10 9.5 -15.5t7.5 -7.5h-2l-1 -1q-1 -1 -1 -3q-4 0 -11.5 5.5 t-9.5 5.5zM809 752q-25 25 -25 49q0 45 15.5 63.5t50.5 28.5q4 2 5 4t5 4h6q29 10 34 22.5t7 43.5q0 2 1 12t1 12v2q0 6 -2 6v19q0 29 1 54.5t3 53.5q0 6 -1 29t-1 31v6q8 8 9 16q0 4 -5 4q-2 0 -3 -4t-3 -4v-4l-2 4q-23 14 -43 19h-2h35q0 4 6 4q4 0 8 -2t9 -2q4 0 6 2t4 2 t3 -2t5 -2q12 0 23.5 2t21.5 2q0 -6 -18.5 -11.5t-22.5 -15.5q0 -8 -2 -19.5t-2 -15.5v-2v-14v-4q0 -41 -1 -82t-1 -84q0 -39 10 -53.5t45 -24.5l2 -2l-2 -1q-2 -1 -4 -1l-4 2h-12h-2q-2 0 -4 2h-2q-4 0 -7.5 -1t-7.5 -1q-8 0 -11 1t-7 1h-2l-6 -1q-5 -1 -7 -1h-24 q-23 0 -25 -2q4 -6 16.5 -8t20.5 -8q2 -4 9.5 -12.5t11.5 -12.5q8 -14 8 -39q0 -23 -7.5 -37t-21.5 -28q-4 0 -10 -5.5t-8 -5.5h-2q0 8 5 10.5t9 6.5t8 15t8 15v13q0 35 -14 61.5t-49 26.5q-10 0 -23.5 -9.5t-15.5 -21.5l-6 -29l-4 -4v-28q0 -2 6 -9q4 -6 5 -13t5 -11 q4 -10 11.5 -14.5t15.5 -10.5h-6q-13 1 -27 13zM1386 745q6 8 9.5 7.5t5.5 11.5q2 23 3 48.5t-1 49.5l2 6v4q0 4 -1 8.5t-1 8.5l4 4v2q0 4 -6 11t-8 12l-4 4q-4 10 -11.5 17t-15.5 17v7q-6 0 -8 12q0 2 -3 1t-5 3l-2 2q-1 2 -3 4q-10 10 -19 23.5t-19 23.5q-4 10 -11.5 14.5 t-13.5 14.5l-1 3q-1 3 -3 5q0 2 -2 2q-8 6 -12.5 14.5t-10.5 14.5q-4 4 -17 21.5t-18 21.5q-2 0 -6 6t-6 8h-2l-1 -1q-1 -1 -1 -3q-2 -41 -3 -81t-1 -81v-26q0 -2 1 -7.5t3 -15.5h2q4 -6 7 -12t12 -10q4 -4 17 -9.5t13 -9.5q-2 -2 -12 -2h-12h-2q-2 0 -3 1l-1 1h-19 q-4 0 -4 4v8h-2q-4 -12 -12 -12h-15q-8 -2 -11 -3t-11 -1q-23 0 -36 3t-34 13q-10 6 -12 8.5t-6 12.5q-2 4 -6 3l-4 -1q-4 4 -5.5 8t-5.5 8q0 2 -2 3l-2 1q-8 8 -11 13.5t-9 15.5q0 -2 -6 4l-25 31q-6 8 -12 17.5t-17 19.5q0 4 4.5 7t4.5 5q4 2 9 10t7 11l1 2q1 2 1 4l8 8 t8 10q2 0 2 2q2 4 11.5 13.5t9.5 13.5q6 0 6 6q4 6 16.5 23.5t12.5 27.5q0 12 -6.5 16.5t-16.5 6.5v4h39l1 1q1 1 3 1q6 0 6 -6h2q4 0 4 4q4 0 11.5 -1t11.5 3h70q2 0 3 -1l1 -1h2h2l6 2q2 0 17.5 -19.5t17.5 -25.5q6 -6 23.5 -26.5t21.5 -29.5l4 -5q4 -5 8 -9v-4l111 -131 q2 0 3 -1l1 -1h2l1 1q1 1 1 3l1 4q1 4 1 6q0 6 -1 23.5t-1 21.5v2q0 23 1 45.5t1 44.5v48q-2 8 -4 15t-4 13l-4 4h-2l-2 2q-4 0 -7.5 3.5t-7.5 3.5q-2 0 -10 3t-10 3q-6 0 -6 8q14 0 26 -1t25 -1h2h31h2h6h4q0 2 2 2q4 0 4 -2q0 -4 -5 -3t-7 -3q-16 -10 -17 -17l-1 -5 l-3 -15q-2 -14 -3 -27.5t-1 -28.5v-26q0 -25 -2 -27v-59v-39q0 -2 -2 -9t-2 -12v-8q4 -12 5 -26.5t1 -26.5h2q0 -2 2 -3t2 -3t-1 -3l-1 -1v-105q0 -12 2 -22t13 -15q-2 -2 -11 -2h-6q-4 4 -8 5q-6 0 -12 -7h-2l-3 1q-2 1 -4 3zM1380 745v-4q-2 0 -2 2t2 2zM1276 813v12l-1 5 l-3 12q-2 6 -4 11t-4 9q0 4 -13 8q0 2 -4 5.5t-4 5.5q-4 4 -17.5 6t-19.5 2v4q23 0 41 -6l2 -2l3 -2q3 -2 5 -2q0 -2 3 -1l2 1q6 -2 16 -14.5t12 -20.5q4 -4 4 -15v-14q0 -6 -3 -20.5t-7 -18.5q-10 -6 -14 -14t-15 -12q-4 0 -10 -4l-6 -3h-4q0 6 12 7q12 6 20.5 25.5 t8.5 35.5zM1456 745q-6 -6 -6 0h6zM1473 752q0 4 4 5t6 1q0 -2 -3 -6t-7 -4v4zM1491 764q0 6 4 6q0 -8 -4 -12q-2 2 -1 3zM233 764q0 2 3 4v-8q-3 0 -3 4zM1407 770v-6q4 0 3 2l-1 2q0 2 -2 4v-2zM1499 770v10q0 8 3 15.5t3 17.5q0 41 -23.5 60.5t-58.5 19.5v2q23 0 41.5 -4 t34.5 -21q12 -10 17.5 -20t5.5 -29q0 -29 -15 -49q-2 -2 -4 -2h-2h-2zM406 813v-4q0 -2 2 -2t9 1t9 1q4 0 11 -1t7 5q0 10 -4 20.5t-8 20.5q0 2 -2 6l-4 8h-2q-8 0 -8 -12t-2 -14q-8 -9 -8 -29zM748 834q2 2 6 12t6 14q0 4 2 9t2 10q0 4 -3 5t-3 5h28q-6 -4 -11 -6t-9 -13 l-18 -36v-3v3zM82 885v-4q-2 0 -2 2t2 2zM936 889q4 0 10 1t6 -5q-8 2 -10 3zM1155 889h6h8q0 -4 -2 -4l-4 2q-2 0 -3 1zM1382 891h13l4 -2q0 -2 -2 -2q4 0 -0.5 1t-14.5 3zM1085 891v-2h-2q0 2 2 2zM1477 975l-2 2q-2 -2 -3 -4l-2 -2h-2q-4 0 -4 12q0 14 -2 16l-2 3 q-2 2 -4 2q-8 14 -7 30.5t1 32.5q0 45 18 88q6 10 9.5 15.5t13.5 15.5q4 0 8 12q0 2 2 2h2q4 0 8.5 5t8.5 9q35 23 71 23q23 0 41 -6h13q2 0 9 -4t9 -4t3 -1l1 -1q4 -4 13 -7l8 -4l30 -34q14 -16 21.5 -51t7.5 -58q0 -18 -5 -36.5t-9 -39.5q-6 -6 -9.5 -15t-7.5 -18 q-47 -61 -125 -61q-23 0 -55.5 12.5t-46.5 36.5q0 4 -4 4q-4 4 -6 12.5t-2 12.5zM1815 987q0 2 -1.5 12.5t-3.5 12.5q-2 12 -4 8t-2 2t-7 37t-16 65.5t-18.5 63.5t-11.5 29h-8q0 2 -2 2q-2 2 -2 4q0 4 -2 4q-4 0 -9.5 -1t-5.5 3q0 2 7 2h2q2 0 2 -2h4l1 1q1 1 5 1q2 0 4 -2 l29 2h6h41h10v-2h-2q-6 -2 -11 -4t-12 -4l-2 -2q0 2 -2 2q0 4 -2 6q-4 2 -6 -13.5t-2 -19.5v-2q4 -16 7 -27.5t7 -25.5q4 -18 7.5 -35t7.5 -33q2 0 5 -10t3 -14q2 -4 4 -14.5t2 -16.5q0 -10 -2 -18.5t-2 -16.5l4 -47v-2h2h2v2v22q0 10 -1 21.5t-1 21.5q4 0 5 -7t5 -7 q2 0 3 1l1 1q8 10 10.5 20.5t6.5 20.5l31 86l3 10q3 11 3 15q2 4 8 21.5t8 23.5v2q0 12 -2 14q-2 0 -3 2l-1 2q-10 14 -18.5 17.5t-20.5 7.5h-2v2h2h49q2 0 2 -8q0 -2 2 -12.5t4 -14.5v-2h2q2 0 2 2v33q0 -2 1.5 -6t5.5 -4h2q0 8 2 10l4 -6q4 0 4 4t4 4l25 4l2 -1q2 -1 2 -3 q0 -4 -9 -4q-6 0 -10 -4q-4 0 -9 -4.5t-7 -6.5l-2 -2v-6v-18q10 -35 20.5 -72t18.5 -72q2 -10 3 -14t1 0q0 -8 2 -10q0 -2 1 -3l1 -1l2 -5q2 -5 2 -10q0 -20 -6 -28v-2v-33v-2h2v2q2 4 4 11t2 9l1 6q1 5 1 7q2 8 7 14t9 16q4 14 8.5 29.5t10.5 30.5q0 6 2 7t4 5q2 10 4 19.5 t4 15.5q6 25 12.5 47.5t6.5 46.5v14l-1 4q-1 3 -3 3q-6 2 -15.5 4t-17.5 4q0 6 6 6h4q2 0 10 -2t11 -2h4h4h8q2 0 6 1t8 -3v-4q0 -4 4 -4h2v2q0 4 -1 5t-1 3h2v2h25v2h2h2v-2q0 -4 -6 -4h-8q-8 -6 -14.5 -13.5t-12.5 -15.5q-4 -4 -5 -15t-3 -20q-4 -10 -7 -23.5t-7 -25.5 q0 -2 -3 -6l-2 -4q0 -4 -3 -10t-3 -9q-4 -16 -9 -32.5t-13 -32.5v-4q-2 -10 -3 -15.5t-1 -3.5q-4 -8 -7.5 -19t-5.5 -15q0 -2 -2 -3t-4 -6l-2 -8q-2 -8 -5 -19t-5 -20.5t-4 -9.5t-7 20.5t-5 24.5v8q0 2 -2 4l-2 2q-2 10 -3.5 15.5t-1.5 3.5q0 14 -2 16q-4 10 -8 18.5 t-4 16.5q0 12 -2 14q-2 10 -6 21.5t-6 21.5l-1 1q-1 1 -1 4q0 4 -3 16t-7.5 24.5t-8.5 22.5t-6 10h-2q-8 -14 -10 -35l-8 -24l-9 -27q0 -4 -2 -5t-4 -5q-4 -10 -5 -19.5t-5 -19.5l-2 -4l-2 -6l-2 -8l-2 -6q-2 -7 -4 -11l-2 -3q-2 -3 -2 -5q-6 -18 -11.5 -36.5t-11.5 -35.5 q-2 -2 -2 -8t-4 -6t-4 10v13l-2 6q-4 8 -5 14t-3 16q-4 10 -3 16.5t-3 12.5zM1581 905q4 0 13.5 -2t13.5 -2q20 0 37 12q6 8 12 13q6 6 13 14t13 16q2 2 3 9q0 6 4 10l2 -4q2 0 2 4v22q0 2 2 2t2 2q2 12 4 27.5t2 28.5q0 27 -5 53.5t-16 48.5q-2 4 -4 10.5t-6 10.5q0 2 -6 8 t-8 10q0 2 -2 4l-2 2l-2 4q-16 10 -30.5 16.5t-33.5 6.5q-8 0 -8 -2q-14 0 -14 -6h-13q-10 -10 -16 -13q-31 -31 -41 -75q0 -8 -2 -11q-6 -23 -6 -39q0 -14 1 -31.5t5 -31.5q2 -8 4 -15.5t4 -13.5q2 -4 6 -15t7 -15q0 -2 1 -5l1 -2l22 -28q4 -2 15.5 -10.5t25.5 -12.5z M1077 950q2 -6 6 -6t9 -4q8 -8 9 -14t3 -17v-2q4 0 4 6t2 9l14 -10.5t17 -4.5q10 0 15 5.5t15 9.5q2 0 3 1l2 1v4q0 2 2 8t4 6q0 6 2 8q6 51 5 102.5t3 104.5q0 31 -18 47q-2 4 -9.5 7t-9.5 6q-2 0 -8 2l-6 2h-31q-4 0 -9 -6.5t-14 -6.5h-2q0 2 -2 2h-2v-2q-2 -2 -3 -5 t-3 -5q-27 -27 -39 -45l-55 -66v-8q0 -6 3 -10t5 -10q18 -20 34.5 -43t33.5 -41q4 -4 9 -8t5 -11q0 -6 -2 -10t-2 -8t4 -9t6 -5v22v4zM913 911q0 -2 2 -2h3q8 0 8 11v2v34h-4l-7 -4l-1 -13q-1 -13 -1 -17v-9v-2zM2001 930v-6h4v2q0 4 -4 4zM1405 926h2v8l1 3q1 3 -1 3t-2 -2 v-12zM1196 930v-4q0 2 2 2t2 4q0 2 -2 2h-2v-4zM662 971q0 4 -3.5 6t-3.5 4q0 55 3.5 107.5t3.5 105.5v23l-2 5l-3 15q-2 4 -5 3t-7 1l-10 4q-4 2 -10.5 3t-12.5 5h13h53h4h8q10 2 16 3l5 1h20q4 0 8 -4h-2h-6q-4 -2 -11 -5t-11 -3q-2 0 -3 1t-4 1v-2h-2q-4 -10 -8 -18 t-4 -19q0 -4 -1 -17t-1 -20v-14q-2 -2 -2 -20v-19v-37v-75q-2 -2 -2 -21v-14l2 -2q2 -2 2 -4q8 -27 33 -31h10q2 0 3 -1l1 -1q0 -4 -8 -4h-8h-23q-2 0 -2 2t-2 2t-3 -2t-5 -2t-4 2q0 4 -4 4t-8 -3t-9 -3q-2 0 -3 1l-1 1q-12 0 -24.5 -1t-26.5 -1q0 4 21.5 8t27.5 20q2 0 2 5 q0 4 2 6q7 2 7 4zM662 956q2 -2 2 -10q0 -6 2 -8q0 -4 2 -3l2 1h4v4v4l-1 6q-1 6 -1 8l-4 5q-6 -1 -6 -7zM1495 963v2v6h-2q-2 0 -3 -7l-1 -8q6 1 6 7zM922 969v-2h4v4q-4 0 -4 -2zM1706 999v-14q0 -10 4 -10h2v2v2v8v12l-2 5q-4 0 -4 -3v-2zM1722 1030l1 -1q1 -1 3 -1t3 8 q0 2 -3 4q-4 0 -4 -4v-6zM1460 1077v-4q0 -2 2 -2l2 4v10q-4 0 -4 -8zM1729 1079q0 -8 4 -8q0 8 -4 8zM1239 1151v-8v2v6zM1401 1214q0 -4 6 -10v4q0 4 -4 9h-2v-3zM1769 1221q0 -6 5 -7q2 0 2 3q0 6 -4 6z" />
<glyph unicode="A" d="M6 0h-2h510q0 16 -31.5 18t-70.5 12.5t-71 42t-32 109.5q0 14 8.5 49t22.5 79t31.5 90t34 85t32 64.5t25.5 25.5h440q14 0 40 -56t50.5 -128t43 -137.5t18.5 -83.5q0 -33 -22.5 -59.5t-49.5 -46t-49.5 -33t-22.5 -19.5v-6q8 -4 30 -5t38 -1h18h15q35 0 75.5 5t71.5 15 q4 0 13 6l8 7h4q2 0 1 12t-4 27.5t-5 27t0 9.5l45 -58l28 -22q10 0 8 -9.5t3 -13.5h172q0 10 -15.5 18.5t-37 16.5t-43 18.5t-31.5 24.5q-63 74 -103 166q-2 6 -8 21.5t-13 33t-13.5 32.5t-8.5 21q0 4 -2 14.5t-4 22t-4 20.5t-2 11q-88 248 -177 485.5t-167 485.5 q0 4 -7.5 14t-13.5 10h-4q-20 -16 -32.5 -28.5t-18.5 -25.5t-8 -31.5t-2 -49.5q-6 0 -8 8.5t-4.5 17.5t-5.5 17t-11 8l-3 -2t-7 -2q-20 -92 -56 -176t-59 -176l-323 -836q0 -2 -10.5 -12t-25 -23.5t-28.5 -27.5t-22 -23q-16 -16 -45 -19t-48 -3zM496 688q0 18 1 24.5t9 24.5 q6 14 19.5 50t28.5 77t29.5 77t20.5 50q2 10 10.5 41t18.5 63.5t23.5 58.5t25.5 26h6q14 -10 24.5 -33t16.5 -37q8 -25 29.5 -81t45 -118.5t45 -119t30.5 -78.5v-25q0 -14 -6.5 -23.5t-28.5 -9.5h-324q-18 0 -21 11.5t-3 21.5zM758 1362q18 0 33.5 -26.5t13.5 -47.5l-6 -147 q-10 0 -17.5 28.5t-12.5 63.5t-8 67.5t-3 40.5v21z" />
<glyph unicode="B" d="M643 1454q-98 -10 -192.5 -15t-192.5 -9q-45 2 -89 3t-93 1h-23q-10 0 -28.5 -3.5t-18.5 -7.5v-6q39 -6 84 -14t86 -21.5t74 -36t49 -57.5q2 -8 5 -28.5t6 -44t5 -45t2 -29.5q2 -4 3.5 -19.5t3.5 -29.5l6 -48q4 -31 -4.5 -55t-8.5 -35v-28q0 -14 -1 -45t-1 -68v-123 q0 -35 -1 -61.5t-1 -38.5q0 -4 -2 -22.5t-5 -40t-5 -41t-2 -25.5v-244q-2 -63 -25.5 -102t-62.5 -60.5t-91 -29t-112 -7.5v-18h72h115h55h43h51l27 12q6 4 7 16.5t1 20.5q0 86 -4 155.5t-4 151.5v43l-17 47v35q10 27 14.5 39t4.5 17q0 4 -1 6t-1 10q0 6 -6.5 17.5t8.5 11.5 q10 0 15 -2t11 -13q0 -6 3.5 -37.5t3.5 -44.5q0 -53 -1.5 -108t2 -111.5t12.5 -113t32 -109.5q10 -23 27.5 -35t51.5 -8h15q27 -8 54.5 -6t53.5 -8q12 0 25.5 4t26.5 4v-2q2 2 10 2q6 0 12 -6q16 -10 29 6q16 0 18 -2q49 4 100.5 3t100.5 -1q72 6 126 22.5t93 36t63.5 39 t36.5 29.5q4 4 29 23.5t45 35.5q0 4 6 14.5t13.5 21.5t14.5 20.5t9 11.5q16 29 22.5 73t6.5 78q0 23 -10.5 58t-24.5 49q-4 0 -10 7t-11.5 15.5t-9.5 15.5t-4 5t7 -24.5t13.5 -41t8.5 -20.5q0 -2 2 -15.5t3 -23.5t1 -12q-2 -2 -2 -4t-2 -5q-6 20 -17.5 38t-17.5 38 q0 14 -10 19q-8 39 -12.5 79.5t-32.5 59.5q-6 4 -25 15l-18 10q8 -20 21.5 -37t2.5 -45l6 -16q5 -15 0 -15q-6 4 -15 27.5t-21.5 50t-28.5 48t-39 21.5q-4 0 -14.5 1t-22.5 2t-22.5 3.5t-12.5 4.5q-10 0 -38.5 9t-49.5 13q78 25 125 57.5t64 47.5q6 6 28.5 30.5t44.5 40.5 q0 4 6.5 14.5t13.5 21.5t13 20.5t8 11.5q16 29 22.5 73t6.5 78q0 23 -10 58t-23 49q-4 0 -10 7t-11 15.5t-9.5 15.5t-4.5 5t7.5 -24.5t13.5 -41t8 -20.5q0 -2 2 -15.5t3 -23.5t1 -12q-4 -12 -12 -25.5t-23 -13.5q-12 0 -5 12t3 23q-2 14 -3 27.5t-1 29.5q0 47 -8 92t-45 68 q-6 4 -23 14l-18 10q6 -20 19.5 -36.5t3.5 -45.5l5 -15q5 -15 1 -15q-6 4 -15.5 27.5t-21.5 50t-28.5 48t-39.5 21.5q-4 0 -14 1t-21.5 2t-21.5 3t-12 4q-6 0 -21.5 4t-32 8.5t-31 8.5t-18.5 4q-2 0 -15 1t-33.5 3t-31.5 2q-4 0 -30.5 2t-48.5 -2q-2 2 -5 2q-2 0 -4 2 q-4 0 -5 1t-5 1h-80q-10 -2 -16 -3t-8 -1h-15q-2 2 -10 2zM750 694l55 2q14 -12 31 -6q37 -6 72.5 -4t70.5 -2h6q45 -14 91 -30.5t89 -51.5q66 -47 82.5 -113.5t16.5 -140.5q0 -61 -27 -111.5t-72 -90.5t-103 -67.5t-122 -43.5h-209q-29 -4 -51 6q-16 0 -34.5 2t-35.5 8 q-12 2 -23.5 4t-21.5 8q-12 8 -28 27q-12 6 -17.5 18.5t-5.5 26.5q-2 8 -3 15.5t-1 17.5l-3 9l-1 3q0 12 -3 44t-6 66t-6.5 64.5t-3.5 42.5v64q0 6 1 34.5t1 61.5t1 59l2 27q0 8 1 13.5t1 11.5q10 12 25.5 21t29.5 9h86v-4h115zM518 772l-12 6q-12 61 -15.5 127t-3.5 129 v127q0 23 3.5 59.5t3.5 57.5q2 10 4 24.5t4 28.5q10 4 12 10q2 14 12.5 15.5t14.5 11.5q14 0 18 10l19 6h2q4 2 14 2q14 0 18 3q4 4 8.5 5t8.5 5l24 6h4q2 0 5 2q6 0 8 2h213q47 -16 104 -33.5t107 -60.5q68 -47 84 -113.5t16 -140.5q0 -92 -58.5 -162t-146.5 -111 q-4 -2 -5 -3t-5 -3q-4 -4 -8 -5t-8 -3h-7q-16 0 -18 -8q-23 -8 -59 -8q-23 0 -58 10q-10 -6 -22 -6h-203q-14 0 -16 2h-7q-10 0 -30.5 2t-24.5 6zM391 1356q0 10 3 21.5t22 15.5h4q35 -23 35 -50q0 -4 -1 -14t-2 -20.5t-4.5 -19.5t-9.5 -11q-4 0 -10 8t-12 18.5t-11.5 18.5 t-5.5 10l-4 9q-4 8 -4 14zM1270 236l39 -64q2 -2 -5.5 -1t-20.5 -1t-29.5 -9t-30.5 -26q6 8 14 24.5t16.5 34t10.5 23.5zM1200 948l17 -30q-6 -6 -7 -17q-14 -12 -18 -22q-16 -8 -39 -31q6 8 14.5 24.5t16.5 34t10 23.5z" />
<glyph unicode="C" horiz-adv-x="1226" d="M1096 193q-16 -18 -12.5 -24.5t11 -9.5t8.5 -7.5t-20 -18.5q-14 -8 -38.5 -18.5t-40.5 -20.5q-35 -20 -70 -25.5t-78 -2.5q-6 0 -25.5 1t-41 2t-41 3t-27.5 4q-29 10 -66 15t-61 18q-10 6 -24.5 12t-29 11t-24.5 8t-12 3l-178 103q0 6 -7 10l-2 8t-4 8q-2 8 -14 22.5 t-26.5 31t-28 31t-17.5 20.5q-4 27 -15 43t-22 35q-6 29 -11 71.5t-8 89t-4 88t-1 68.5q0 45 8 86t21 84q0 4 5 21.5t5 21.5q20 88 77.5 150.5t133.5 119.5q29 10 52.5 16.5t45.5 16.5q14 8 29 8q16 0 32 7q2 0 13.5 3t24 7t22.5 7t14 5h49q49 0 85 -2t68 -9t63.5 -19.5 t72.5 -32.5l6 -6q6 -7 14.5 -14t15.5 -12t9 -5q0 -4 18.5 2t22.5 6q2 -4 10.5 -29.5l18.5 -55.5t20.5 -55.5t16.5 -31.5v37q0 20 -1 45.5t-1 50.5t1 43t5 25q0 8 -9.5 21t-18.5 27.5t-15 27t0 18.5l-45 22q0 2 -11.5 10.5t-21.5 14.5t-12 6q-10 4 -28.5 3t-29.5 3 q-4 2 -27.5 1t-29.5 -1q-27 4 -45.5 8t-35.5 7.5t-35.5 5.5t-43.5 2q-47 0 -98 -1t-102.5 -5.5t-100.5 -15.5t-88 -32q-29 -16 -45 -36.5t-43 -30.5q-4 0 -8 -1l-4 -1q-16 -12 -23.5 -26.5t-19.5 -22.5q-25 -16 -41.5 -28.5t-28.5 -26t-22.5 -30t-24.5 -40.5 q-25 -43 -40 -97.5t-23.5 -112t-11.5 -114.5t-3 -106q0 -29 -3 -73t-4 -91t5 -90t25 -68q0 -4 14 -13t14 -14q6 -8 8.5 -24t4.5 -33.5t6 -30t16 -12.5h6q2 4 11.5 9t13.5 5l8 -8q0 -23 8.5 -51.5t30.5 -42.5q8 -6 13 -4t12 -6q33 -53 99 -84t145 -47.5t159 -21.5t141 -5 q92 -2 144.5 1t87.5 9.5t63.5 13.5t75.5 13q12 0 24.5 19.5t20.5 44t9 46t-11 23.5q8 2 12 29.5t3 60.5t-7 60.5t-18 29.5q0 -2 -1 -16t-2 -29.5t-2 -28.5l-1 -14zM262 182q0 -6 -7 -3t-16.5 8.5t-20.5 11.5t-19 6q0 2 1 13t4 24.5t11 13.5h4l15 -12q16 -13 18 -17zM70 756 q0 8 1 22.5t15 14.5q0 -4 4 -12.5t10 -17.5t10.5 -17.5t4.5 -10.5l-5 -9q-6 -9 -13 -20.5t-13 -21.5t-6 -12q-4 4 -6 28.5t-2 40.5v15zM252 1219q0 4 8 19t18.5 31.5t21.5 30t17 13.5q0 -4 -2 -16.5t-5 -26t-5 -24.5t-2 -13l-5 -11l-10 -24t-9.5 -22.5t-4.5 -12.5 q-6 4 -14 28t-8 28z" />
<glyph unicode="D" d="M145 -16l84 14h62q72 0 144.5 -1t146.5 -1h32q35 0 80 5t64 22q-84 6 -155 7t-124 6t-85 17.5t-36 42.5q-6 49 -10 100.5t-4 131.5v956q-4 16 -8 29.5t-4 32.5q0 18 9 28t21.5 18.5t25.5 15.5t22 17h-37h-39q-18 0 -40 -2t-39 -5t-29.5 -8t-12.5 -13v-8q2 -2 6 -12.5 t8 -22t8.5 -21.5t6.5 -12v-219q-2 -8 -7.5 -21.5t-9.5 -29t-8 -27.5t-4 -18v-285q12 -8 21.5 -24.5t15.5 -35t9 -37t3 -32.5q-37 -49 -49 -86t-12 -103q0 -14 1 -35.5t5 -43t13 -39t28 -25.5v-197l-6 -14h-6h-7q-8 4 -14 18.5t-11 29t-7 24.5l-2 10q-31 -8 -54.5 -28.5 t-45 -42t-44 -40t-51.5 -22.5h96q10 0 29.5 -5t19.5 -9zM1241 649q0 -74 -21.5 -156.5t-59.5 -161.5t-92 -143.5t-120 -101.5q-6 -4 -25.5 -7t-40 -8t-36 -15.5t-15.5 -30.5h35q2 0 22.5 8t48.5 20.5t56.5 25.5t46.5 21q45 23 78 52.5t63.5 63.5t62.5 66.5t73 61.5 q25 14 46 62.5t37.5 105.5t26 111.5t9.5 81.5q0 33 -4.5 72.5t-10.5 78.5t-15 76t-19.5 65.5t-46 78.5t-79.5 100.5t-89.5 88.5t-75.5 42q0 2 -7.5 3t-15.5 0l-16 -2t-10 -1q-2 2 -12.5 11t-23 18.5t-22.5 16.5t-12 7q-14 14 -29 14q-98 39 -211.5 50.5t-218.5 11.5v-25 q35 -4 90.5 -12t113.5 -20.5t110.5 -30t80.5 -41.5q2 -4 14.5 -15.5t28 -24t28.5 -23.5t15 -13q12 -8 32 -14.5t38 -14.5t33.5 -18t19.5 -29q16 -55 37 -101t47 -102q31 -68 33 -144.5t2 -158.5zM8 1417q8 -2 25.5 -6t37 -7t36 -7t22.5 -6q4 0 20.5 -7.5t20.5 -7.5 q6 0 10 12.5t4 16.5q0 16 -25.5 22.5t-47.5 6.5h-21q-20 0 -41 -2.5t-41 -14.5z" />
<glyph unicode="E" d="M2 20v-20q80 0 130 1t108 1h43h22q16 0 27 -2l26 14q6 4 7.5 16.5t1.5 20.5q0 86 -4.5 155.5t-4.5 151.5v9v36l-16 48v34q10 27 14 39.5t4 16.5t-1 6t-1 10q0 6 -6 17.5t8 11.5q10 0 15.5 -2t11.5 -13q0 -6 3 -37.5t3 -44.5q0 -53 -1 -109t2 -112.5t12.5 -113 t31.5 -109.5q10 -23 26.5 -35t51.5 -10h258q168 0 336 7t342 3q-31 4 -42 19.5t-11 42.5q0 59 15.5 115.5t15.5 115.5v51q-23 -35 -44.5 -80t-46.5 -81q-35 -55 -92 -87t-123.5 -47.5t-138.5 -18.5t-137 -3h-139q-41 12 -75 20.5t-61.5 21.5t-48 36.5t-32.5 66.5 q0 12 -3.5 44t-6.5 67t-6 65.5t-3 42.5v33v31q0 10 1 40t2 62.5t2 62t1 42.5q10 12 25.5 21t30.5 9h401l12 -5q13 -5 17 -5q57 -20 81.5 -34.5t35 -32t19.5 -40t38 -59.5l12 11v401q-31 -14 -33 -42t-12 -46q-10 -23 -43 -39t-73 -25.5t-79 -13.5t-63 -4h-148h-141 q-10 0 -30.5 2t-24.5 6l-12 6q-16 92 -17.5 191.5t-1.5 193.5q0 23 3 60t3 57q4 25 8.5 60.5t4.5 41.5l30 37l-6 7q-66 0 -121 2t-108.5 3t-106.5 3t-112 2h-21q-10 0 -28.5 -3t-18.5 -7v-7q39 -6 83 -14t84 -21.5t72.5 -36t49.5 -57.5q2 -8 5 -28.5t6 -44t5 -45t2 -29.5 q2 -4 3 -20.5t3 -30.5l6 -47q4 -31 -4 -55.5t-8 -35.5v-28q0 -20 -1 -68.5t-1 -103.5q0 -53 -1 -99.5t-1 -64.5q0 -4 -2 -22.5t-5 -40t-5 -41t-2 -25.5v-246q-2 -63 -25.5 -102t-61.5 -60.5t-90.5 -29t-109.5 -7.5zM1163 1397q18 0 31 -21q33 -47 56.5 -104.5t39.5 -104.5 q10 2 14.5 11.5t6.5 21.5t1 24.5t-1 22.5v31q-37 6 -48.5 28.5t-14.5 47t-5 45t-18 24.5q-53 8 -101.5 12.5t-95.5 4.5h-197h-208l-11 -3q-12 -3 -12 -7v-7q0 -4 2 -6l2 -2h350q37 -23 83 -26t87 -3q10 0 16.5 5.5t22.5 5.5zM379 1362q0 10 3 22.5t24 16.5q37 -23 36 -51 q0 -4 -1 -14.5t-2 -20.5t-4 -19.5t-9 -11.5q-4 0 -10 8t-12.5 18.5t-11.5 18.5t-5 10l-4 9q-4 8 -4 14zM1327 1456q-12 -12 -23.5 -19t-23.5 -3q4 -45 10 -59.5t17 -14.5h14q4 0 6 28.5t2 49.5q0 16 -2 18z" />
<glyph unicode="F" horiz-adv-x="1470" d="M0 1419q57 0 110.5 -6t92.5 -25.5t62.5 -56.5t23.5 -100v-47q0 -37 -1 -79t-1 -79v-45q0 -6 2 -25.5t5 -41t5 -40t2 -22.5v-338v-31q0 -10 1 -36.5t1 -57.5v-59q0 -33 -2 -37q0 -8 -2 -28.5t-5 -44t-7 -43t-6 -27.5q-16 -37 -48 -60.5t-71 -38t-82 -23t-80 -14.5v-6 q0 -4 16.5 -5t26.5 -1h18q59 0 105.5 1t91.5 2t94 2t115 1h98l195 -6l-6 12q0 2 -43 12.5t-95.5 28t-96.5 43t-46 60.5q-2 18 -4 54t-2 60q0 98 1 197.5t19 194.5l13 6q4 2 23.5 4t29.5 2h27q20 0 43.5 -1t42.5 -1h26h146q23 0 64.5 -4t84.5 -14.5t78 -27t45 -40.5 q6 -10 7 -22.5t4 -25t10.5 -23.5t23.5 -19l2 407l-12 10q-29 -37 -38 -60.5t-20.5 -40.5t-35 -31.5t-80.5 -34.5q-4 0 -25 -8l-22 -7l-396 6q-25 0 -34 9.5t-19 23.5v39q0 31 -1 63.5t-1 61.5v43v31v37q0 10 2 40.5t5 65.5t6 66.5t3 44.5q12 43 33 65.5t48.5 34.5t61.5 21.5 t75 25.5h26h41q23 0 42.5 -1t27.5 -1q63 0 137 -4t144.5 -20.5t129 -49t91.5 -88.5q25 -39 46 -84t44 -80v50q0 61 -15.5 117.5t-11.5 113.5v49q0 20 29 25q-25 -2 -51.5 0t-49.5 -11q-33 -18 -49 -25t-23.5 -4t-8.5 13t-3 27q-123 0 -242.5 3t-238.5 5h-53q-37 0 -78 1 t-76 1h-49q-33 8 -65.5 0t-36.5 -31l20 -143q-14 31 -26.5 20.5t-21.5 -35t-14 -49t-7.5 -21.5t1 47t11.5 157q0 10 -4 24.5t-11 16.5l-26 16q-41 -2 -72 -4t-58.5 -3t-55.5 -1h-60h-90v-23zM371 76q0 8 2 32l2 25q0 2 5 37t11 76t12.5 74.5t10.5 33.5q4 -2 -1 -43t-7.5 -88 t6 -88t39.5 -43q10 0 8 -11t-2 -13l-15 1q-14 1 -53 -8q-6 2 -14 2h-4v13z" />
<glyph unicode="G" d="M700 1430q2 0 3.5 -1.5t5.5 -1.5l2 5h41h6q-2 0 3 1l15 3h88h58q27 0 58.5 1t92.5 1q45 -12 100.5 -13.5t104.5 -13.5t83 -48t34 -118v-47v-49q-12 18 -17.5 26.5t-9.5 15.5l-10 17.5t-19 28.5q-33 55 -91 88t-128.5 49.5t-144.5 20.5t-137 4q-8 0 -27.5 1t-42.5 1v-2 q-2 -2 -3 -4t-5 -4q-70 10 -107 -17q-16 -6 -26 -16q-41 -4 -58 -35q-31 -16 -37 -53q-10 -12 -12 -27q-8 -12 -14 -25.5t-8 -27.5q-8 -12 -13.5 -26.5t-3.5 -28.5v-17q0 -2 -2 -2v-117q0 -29 1 -44t3 -43.5t4 -54.5t7 -52q-2 -2 -2 -6q-16 -61 -7 -123v-2q0 -6 -1 -11.5 t-1 -13.5l-1 -27q-1 -26 -1 -59t-1 -61.5t-1 -34.5v-64q0 -12 3 -42.5t6.5 -65.5t6.5 -66.5t3 -44.5l1 -3l3 -9q0 -10 1 -17.5t3 -15.5q0 -14 5 -26.5t17 -18.5q12 -14 29 -26q10 -6 21.5 -8.5t21.5 -4.5q16 -6 34.5 -8t35.5 -2q23 -10 51 -6h205q63 16 120.5 44t101.5 67.5 t70.5 90t26.5 111.5v39q0 10 -1 19.5t-3 19.5q6 25 7 36t-11 34q-2 14 -1 28.5t-15 20.5q-4 27 -7.5 53.5t-29.5 42.5q-6 8 -10.5 13.5t-8.5 9.5q-4 8 -10 14t-10 12h-12v-4q-4 2 -5.5 3t-5.5 3q-16 6 -29.5 14.5t-29.5 8.5q-10 0 -14 4h-41q-20 2 -33 18h-12q-2 8 3 16.5 t15 8.5h18q35 2 69 4t71 4h12q-4 -2 -5 -4t-5 -4q20 2 38.5 3t37.5 1h75q14 4 27.5 7t28.5 7q18 2 38.5 -6t36.5 -4q18 0 29 -12q-10 -4 -17.5 -11.5l-15.5 -15.5q-4 -4 -7 -6t-7 -6h-4q-35 0 -43 -18.5t14 -34.5q2 -2 3 -4t5 -4q2 -18 13 -41q2 -10 4 -21.5t6 -21.5v-7 l4 -6v-4q-2 -16 -3 -35.5t11 -31.5q-2 -2 -2 -9q0 -6 -2 -8q4 -27 5 -40t1 -40q-4 -10 -7 -18t-7 -19q2 -98 -50.5 -179t-129.5 -132q-4 -4 -6.5 -5t-4.5 -5q-39 -4 -74.5 -13.5t-70.5 -25.5q-12 4 -14 8q-41 -8 -92 -8h-101q-49 0 -98 -2q-2 2 -19 2q-8 -14 -26 -6 q-6 6 -12 6q-8 0 -11 -2v2q-12 0 -25.5 -4t-25.5 -4q-27 8 -53.5 7t-52.5 3h-15q-35 -2 -51 10.5t-27 34.5q-23 53 -32 109.5t-12 113t-2 112.5t1 110q0 12 -3 43.5t-3 37.5q-6 10 -11 12.5t-15 2.5q-14 0 -8 -11.5t6 -17.5q0 -8 1 -10t1 -6t-4.5 -16.5t-14.5 -39.5v-34 l17 -47v-46q0 -82 4 -151.5t4 -155.5q0 -8 -1 -20.5t-7 -16.5l-27 -14q-6 2 -27 2h-22h-43q-57 0 -107.5 -1t-130.5 -1v21q57 0 109.5 7t90.5 28.5t61.5 60.5t25.5 102v246q0 6 2 25.5t5 41t5 40t2 22.5q0 12 1 39t1 61v123q0 37 1 68t1 45v29q0 10 8.5 20t4.5 41l-7 47 q-2 14 -3 30.5t-3 20.5q0 8 -2 29.5t-5 45.5t-6 44.5t-5 28.5q-16 35 -49 59.5t-74 41.5t-85 27.5t-83 16.5v6q0 4 18.5 7.5t28.5 3.5h21q49 0 93 -1.5t87 -3.5q88 4 175 1t175 4q2 -2 25 -3q18 -2 36.5 -0.5t36.5 3.5zM383 1352q0 -6 4 -14l4 -9q0 -2 -3 -37t-6 -76.5 t-5 -76.5t2 -35q6 2 17.5 38t22.5 79t19 78.5t8 39.5q0 27 -34 50h-4q-18 -4 -21.5 -15.5t-3.5 -21.5zM1284 555l-12 6q2 6 5 26.5t5 44t3 44t-1 24.5q-4 2 -11 -10t-14.5 -28.5t-13.5 -30t-10 -10.5q8 -14 12 -35t7 -40.5t5.5 -33.5t6.5 -16q2 0 7 15t8 28.5t3 15.5z M1346 465q-4 -33 -5.5 -42t-5.5 -22l25 -61q2 0 2 16t-1 36t-1 34v14q16 31 15 59.5t-5 61.5q-4 0 -12 -16.5t-12 -14.5v-65zM1251 240l-4 -12q-4 -13 -12 -30.5t-16.5 -34t-14.5 -24.5q18 25 35.5 30t30.5 5q4 4 5 8t5 8z" />
<glyph unicode="H" d="M-29 0l459 4l12 14q-4 4 -8 10l-4 5q-6 0 -30.5 4t-30.5 10q-4 2 -16.5 12.5t-25 22.5t-23.5 23.5t-13 15.5q-23 -10 -31 -1t-12 34q-4 45 -7 76.5t-4 56t-1 45.5v43v33q0 20 -3 43q10 0 11.5 -25t11.5 -45l12 -139l17 -9l-4 209l4 230l28 35q2 0 27 3t56.5 6t65.5 6 t52 3q123 0 266.5 -1t272.5 -1q23 0 47 -22.5t24 -51.5v-6q-4 -29 -8 -98.5t-8 -147.5t-8 -147.5t-6 -95.5q-6 -23 -30 -48.5t-50.5 -48t-47 -40t-20.5 -25.5l463 8q-47 25 -78 52.5t-50 61t-29.5 78t-16.5 101.5q12 20 13 37.5t-2 34t-7 33t-4 32.5v227l-16 103l16 123 l20 133q0 53 -2 104t3.5 98.5t21.5 89.5t51 76q29 16 51 17q33 0 54 20q-23 12 -38.5 14.5t-39.5 2.5q-111 0 -215.5 -10.5t-214.5 -6.5q39 -10 72.5 -21t59 -30.5t43 -51.5t23.5 -83v-176v-187q0 -18 -8 -55t-33 -49q-135 -4 -243.5 -5t-225.5 -1h-159h-133l-31 37v133 q0 98 -1 187t13 184q12 29 44 51t63.5 37.5t57.5 24.5t26 14q-123 0 -244 6t-238 -4q76 -25 110 -85.5t43 -137t5 -160.5t-4 -154v-268q-6 -4 -11 -29t-5 -31q0 -4 8 -21.5t8 -21.5v-22v-31q-4 -18 -7 -69.5t-5 -110t-3 -110.5t-1 -75q-4 -10 -29 -27.5t-55.5 -34.5 t-58.5 -30.5t-36 -13.5z" />
<glyph unicode="I" horiz-adv-x="894" d="M360 193q0 16 -11 25t-11 26q0 229 18.5 456.5t18.5 456.5q0 47 -7.5 94t-25.5 92q-12 16 -32.5 12.5t-41.5 2.5q-4 0 -14 3t-22.5 8t-22.5 8t-12 3q-31 8 -69 11.5t-62 19.5l10 4h63q86 0 168 -3t168 -3h19q12 0 12 2q2 0 24 5l21 5q61 6 126.5 7.5t127.5 1.5 q14 0 30.5 -2.5t26.5 -12.5q-4 0 -6 -2l-2 -2q-4 -2 -25.5 -4t-23.5 -2q-6 -2 -24.5 -6t-40 -8.5t-40 -7.5t-22.5 -3h-10q-10 0 -17.5 4.5t-17.5 4.5h-4q0 -8 -11 -9q-29 -41 -53 -80.5t-28 -87.5q0 -6 -1 -25.5t-3.5 -44t-3.5 -49t-1 -36.5q0 -10 3.5 -31.5t-7.5 -34.5 q-6 -160 -10 -322.5t2 -324.5q-10 -27 -10 -45v-47v-55q2 -4 8 -15.5t10 -15.5q20 -53 79 -89t132 -46h10q10 0 20.5 -1t18.5 -1h15q4 0 13 -4.5t11 -4.5v-2q0 -10 -14 -13t-33 -3q-16 0 -32.5 1t-20.5 1q-35 0 -72 2t-65 2q-16 2 -20.5 7t-14.5 5q-16 0 -26.5 -6t-26.5 -6 q-14 0 -22.5 13.5t-33.5 13.5t-44 -13.5t-60 -13.5q-4 0 -13.5 3t-13.5 3q-76 0 -150.5 -5t-148.5 -5q0 6 38 14.5t88 21.5t99.5 35.5t71.5 59.5q0 4 5 18.5t18 18.5q14 8 22 8q6 1 6 13zM375 135v-8q12 -25 15 -36t11 -38q0 -10 10.5 -9t12.5 1h18q2 0 8 5l5 5 q0 4 -6.5 11.5t-6.5 9.5q0 8 -3 35.5t-3 35.5q-2 6 -4 20.5t-5 31t-6 29t-9 12.5q-4 0 -10.5 -14.5t-12.5 -33t-10 -35t-4 -22.5z" />
<glyph unicode="J" horiz-adv-x="1112" d="M1047 1423q-45 -8 -75 -17t-52.5 -23.5t-42 -37t-43.5 -57.5l-6.5 -32.5t-7.5 -47t-5 -46t-2 -29.5q-2 -2 -2 -29v-45q0 -25 1 -45.5t1 -26.5q-2 -16 -4 -63t-4 -110.5t-5 -134.5t-4 -134.5t-2 -110.5t-1 -63q0 -37 4 -95.5t4 -109.5q0 -16 -1 -31.5t-3 -28.5l-17 -53 q-6 -18 -22.5 -28.5t-32.5 -15.5t-29.5 -6t-15.5 -1q-4 0 -16.5 -1t-26.5 -1h-23q-10 0 -12 2l37 27l4 16q14 63 23.5 99t13.5 54.5t4 22.5t-2 4t-6 8.5t-8 33t-7.5 70.5t-3.5 122v192l-4 25q25 8 25 39q0 41 -23 82q0 4 1 5t1 5q0 12 1 39.5t3.5 58.5t3.5 58.5t1 37.5v216 q-16 23 -22.5 53t-22.5 53q-47 47 -108.5 69.5t-127.5 30.5l-4 17h223q41 0 77 -5t77 -5q78 0 149.5 7t153.5 7q0 -13 -14 -21zM59 604l97 -18q18 12 20 -8.5t-1 -55.5t-7 -77t2 -74q16 -76 50 -131.5t99 -102.5q43 -43 84 -46t89 -7h32q29 0 58.5 27.5t56.5 111.5 q-2 -14 6 -26.5t8 -34.5q0 -31 -4 -60.5t-13 -52t-26.5 -35t-44.5 -6.5q0 -4 -17 3l-18 7q0 -4 -5 -7l-5 -3q-14 -8 -2 -8h6h-22t-28.5 -1t-23.5 -2l-10 -1q-4 0 -19 1t-34 1q-18 0 -33.5 1t-21.5 1q-2 0 -11.5 3t-19.5 6t-19.5 6t-11.5 3l-9 18q-9 17 -22.5 41.5t-31 53.5 t-33.5 53q-4 0 1 -15l5 -15q-10 -29 6.5 -55.5t22.5 -47.5l-6 6l-14.5 14.5l-15.5 15.5t-11 9q-49 29 -74 89.5t-33 113.5q-2 6 6.5 -7t18.5 -20.5t17 3t5 61.5q-23 0 -41 -11.5t-18 -27.5v-6q0 -4 5 -17.5t5 -17.5q2 -2 8.5 -20.5t13.5 -41t7 -24.5t-4 5t-9.5 15.5 t-11.5 15.5t-10 7q-12 14 -22.5 49t-10.5 57q0 35 -7 53.5t9 47.5q4 4 1 25.5t-3 37.5v17q18 16 12 30.5t-1 18.5q8 6 5 11t-9.5 12.5t-13.5 19.5t-7 31zM782 1288q0 23 -1 51.5t-19 46.5q-10 -18 -18.5 -36.5t-8.5 -42.5q0 -4 8.5 -22.5t8.5 -27.5l3 -2q3 -2 7 -2l6 -8 q14 0 14 17v26zM741 551q2 -47 10.5 -42t10.5 40t-6 87t-37 95q-2 -2 -2 -14v-27q0 -14 8 -27.5t10 -13.5zM53 508l49 -70q6 -2 17.5 2t19.5 52q4 23 -1 24.5t-13 -4.5t-15.5 -15.5t-7.5 -11.5z" />
<glyph unicode="K" horiz-adv-x="1482" d="M262 2q6 0 29.5 9t27.5 9h15q23 0 37 -9t49 -9q20 0 35.5 4t31.5 4h7q51 -12 108 -12q4 0 10 1t6 7v4q-2 0 -4 2l-2 2q-80 18 -127 40t-70.5 57.5t-30.5 92t-7 144.5q0 186 -1 370.5t-1 371.5v10q0 2 -1 11t-3 20.5t-3 21.5t-1 14q0 12 2 33t5 42.5t5 42t2 32.5 q8 25 41 43t68.5 31.5t64.5 23.5t29 21q-57 0 -110.5 -1t-106.5 -1q-10 0 -16.5 3t-16.5 3q-12 0 -25.5 -3t-25.5 -3q-18 0 -36 3t-36 3h-10q-2 0 -12.5 -3t-18.5 -3h-152q0 -6 -4 -14.5t2 -10.5q53 -4 99.5 -16.5t95.5 -40.5l12 -11q4 -4 9 -5l6 -1q8 0 12 18.5t12 22.5h4 q23 0 23 -24q0 -20 -11.5 -34.5t-27.5 -31.5v-31v-51q0 -35 1 -76t1 -77v-50q0 -123 -5 -240.5t-5 -236.5v-69q4 -12 5 -17.5t1 -15.5v-10q0 -4 -2 -21.5t-3 -37t-3 -37t-2 -19.5q-6 -68 -12.5 -112t-25 -73.5t-54 -50t-101.5 -41.5q-2 0 -14.5 -1t-16.5 -5q-14 -4 -16 -9 t-6 -7q20 -4 14 -4l27 12l35 -6q49 2 98 1t96 1zM1026 223l-6 -14v-98q-6 0 -13.5 7t-15.5 17t-13 20.5t-5 16.5q0 18 14 35.5t14 40.5q0 31 -25.5 47t-41.5 37q-78 92 -153.5 191.5t-162.5 185.5q-10 25 -25 42t-15 46q0 10 1 18t5 16l245 285q20 29 42 46.5t44 39.5 q6 6 20.5 21.5t31 33t31 33t20.5 21.5q2 4 12 23.5t14 25.5l5 6h6q6 0 8 -3t10 -3q18 0 32.5 8t27 19.5t22.5 19.5t16 8h13q18 18 51 19h8q0 2 1 4t1 6h-47q-4 0 -12 1t-19 3q-23 -10 -53.5 -11t-44.5 3q-8 -4 -11 -5t-14 -1h-4q-4 0 -19 5t-17 9q-2 0 -11.5 -4t-11.5 -4 h-174v-6q43 -16 73.5 -37t30.5 -68q0 -10 -7 -29.5t-18.5 -39t-22.5 -38t-19 -26.5q0 -4 -8.5 -13t-17.5 -20.5t-17 -19.5l-10 -10q-2 -4 -8.5 -17.5t-6.5 -15.5q-2 -6 -11 -18.5t-11 -14.5q-4 -4 -18.5 -19.5t-32 -34t-32 -33.5t-16.5 -19q-2 -2 -5 -10.5t-5 -8.5 q-4 -4 -14 -16.5t-21.5 -25.5t-21.5 -24.5t-13 -13.5q-4 -4 -7 -11t-7 -9q-4 -6 -14 -18.5t-21.5 -26t-22.5 -26.5t-16 -19q-8 -8 -19 -23.5t-11 -32.5v-18q37 -35 63.5 -71t57.5 -77q29 -29 56.5 -62.5t55.5 -68.5q10 -10 18.5 -13t18.5 -11q10 -20 23.5 -48t27.5 -44 q4 0 18.5 -10.5t18.5 -12.5q20 -16 34.5 -48t39.5 -46h31q10 0 11 -19.5t5 -25.5q16 -23 37.5 -35t44.5 -25q45 -18 81 -31.5t71.5 -20.5t74.5 -11t88 -4q31 0 53.5 7t43.5 13q-4 4 -13 9h-53q-10 0 -21.5 2t-19.5 8q-20 0 -33 6q-33 8 -59.5 27.5t-59.5 35.5q-4 -4 -4 -16 q0 -16 -2 -32.5t-14 -16.5h-6q-2 49 -12.5 82t-40.5 61q-16 16 -33 18t-33 25zM262 53v41q2 14 4 38t4 45.5t3 37.5l1 16l29 33h10q0 -8 1 -31.5t2 -51t2 -52.5t1 -35v-4q0 -12 -10 -29.5t-22 -17.5h-13q-8 0 -12 10zM303 315q0 12 10 13v-29q-10 0 -10 16z" />
<glyph unicode="L" horiz-adv-x="1411" d="M565 4l-41 10q-18 0 -22 -10h-336q-35 -4 -86 -4h-78v4q6 2 24.5 7t40 10.5t41 10.5t27.5 7q41 12 69.5 41t61.5 59q0 4 6.5 22.5t6.5 22.5t9 19.5t9 19.5q16 43 14 82t21 80v4q0 16 -12.5 22.5t-12.5 18.5q0 10 6 17.5t6 13.5v8q0 4 -9 9t-13 5v348q16 59 19 125t3 123 q0 6 -4 34t-8 40q-2 6 -2 18v21q0 33 -4 65.5t-22 51.5q-2 2 -11.5 10t-22 19.5t-23.5 20.5t-17 13q-8 8 -39 15.5t-64.5 12.5t-60.5 10t-27 9q0 8 9.5 9.5t13.5 1.5h24q16 -2 50 -4.5t69 -4.5t64.5 -3t38.5 -1q23 -12 33 -25.5t14 -25.5t5 -19.5t7 -7.5t9 15.5t3 19.5 q0 10 13 27q8 8 29.5 13t48 8t55 4t53.5 1h31q20 0 22 3q2 0 13.5 1t25.5 2t26.5 2t16.5 1q12 0 37 -3l25 -3v-11l-209 -47l-72 -65l-8 -50q0 -10 3 -16t7 -16v-160v-162v-67q0 -53 -1 -130t-2 -152t-3 -136.5t-4 -85.5q-4 -18 -5 -29.5t-1 -30.5q0 -14 3 -49t11 -71.5 t21.5 -66.5t33.5 -34q4 -4 26.5 -2t27.5 2q4 0 22 -2t41 -4t41 -4t23 -2l102 -4h164q92 16 181 70.5t136 130.5q18 29 35.5 59.5t46.5 48.5v-37q-14 -33 -27.5 -71.5t-22.5 -79.5t-15.5 -81t-6.5 -75q-59 12 -111 6t-110 -6zM348 233l-12 -188l37 6l10 246z" />
<glyph unicode="M" horiz-adv-x="1789" d="M1743 0l-25 3q-24 3 -56 5t-64.5 4t-47.5 2h-77q-10 4 -11 19v37q0 20 -4 35.5t-22 15.5h-4q-12 0 -13 -10v-88l-23 -3q-22 -2 -53.5 -5t-64.5 -6t-53 -5h-21q-16 0 -25.5 1t-27.5 9q23 16 48.5 21.5t52 13.5t54 23.5t54.5 52.5q4 -10 3 -19.5t9 -9.5q4 0 11.5 1t7.5 9 q4 49 19 83t15 77q0 4 -1 18.5t-1 18.5q-6 18 -24 19q-4 0 -7 -12.5t-6.5 -27t-6.5 -26.5t-7 -14q-8 72 -15 163t-11.5 186t-5.5 187t3 166q-4 6 -6 23.5t-2 21.5q0 8 -1 35t-3 57.5t-3 58t-1 38.5q4 14 -4 16t-16 2h-13q0 -6 -10 -26.5t-14 -24.5q0 -4 -12 -21l-11 -16 q-29 -72 -50 -143.5t-62 -137.5l-166 -397q-4 -14 -12.5 -41t-18.5 -51.5t-23.5 -40.5t-27.5 -10q-2 -23 -11.5 -67t-22.5 -88t-28.5 -76.5t-29.5 -32.5h-11q-4 25 -13 63.5t-17 60.5q-14 41 -39 79t-25 77l-127 289v35q-6 14 -21.5 50t-31.5 77t-31.5 76.5t-21.5 48.5 q-6 18 -20.5 58t-32 81t-36 72.5t-30.5 31.5q-8 0 -13.5 -8t-7.5 -18.5t-4 -20.5t-4 -14l-41 -496v-37q-6 -88 -9 -151.5t-3 -143.5q0 -115 63.5 -174t157.5 -77v-11q-51 -8 -89 -7t-89 1h-88q-4 0 -18.5 8.5t-18.5 8.5h-6q-16 0 -29.5 -8.5t-27.5 -8.5h-105v17q6 2 19.5 9 t29 15t28.5 15.5t19 11.5q14 8 19.5 15t7.5 15.5t5 18.5t13 24q4 0 13.5 2.5t13.5 2.5q0 4 3 7l3 3q-2 51 3 106.5t14.5 112.5t19.5 111.5t16 103.5q10 125 19.5 254t26.5 252q2 4 5 20.5t7 36t8 36.5t6 24v47v51q-25 74 -76 97.5t-116 27.5l-9 10h46q8 0 31.5 2t50 3t49 3 t28.5 2h6h4q4 -4 16.5 -19.5t16.5 -15.5q2 0 15.5 -6t17.5 -6q6 0 6 -8v-90q8 -10 15.5 -30.5t13.5 -41t15 -35t26 -14.5q0 4 -2 20.5t-2 20.5q-2 4 -6.5 15.5t-7.5 24.5t-6 24.5t-3 15.5q-2 2 -2 12v21q0 12 1 21t1 11q-4 4 -11 16.5t-7 16.5v8v4q0 4 10 19.5t18 15.5h2 l11 -10q8 -160 70.5 -318.5t131.5 -299.5q45 -111 86 -230t97 -223q2 -14 13 -20.5t22 -6.5q4 0 12 2t8 7q8 49 25.5 95t37 90t41 88t37.5 89q8 20 27.5 65.5l43.5 101.5t50.5 118.5t50 120t42 102.5t28.5 65q4 10 12 12.5t15.5 4.5t13.5 5t6 15q0 8 -14.5 16.5t-18.5 12.5 v6q6 10 17.5 13.5t11.5 13.5v4q-4 0 -18.5 16.5t-14.5 20.5q-4 0 0 10l4 10q14 0 22.5 2t18.5 -8q35 -80 34 -198.5t-9 -260.5q4 -6 11 -11t15 -9q4 20 5 18v17v100q0 8 3 33l3 24q0 16 -3 39l-3 23l18 20v41q0 43 -6 76t-17 74l-4 4q0 18 9 20q6 0 21 2t32.5 4.5t32 4.5 t18.5 2q8 0 31.5 -1t49.5 -3.5t49.5 -3.5t31.5 -1v-4l-11 -4q-10 -4 -23 -10t-27.5 -12t-26.5 -9q-16 -4 -27 -4q-14 0 -24 -16q-4 -6 -9.5 -17.5t-10.5 -22.5t-9 -20.5t-4 -11.5v-641q4 -4 7 -25.5t3 -25.5q2 -18 6 -68.5t7 -106.5t6.5 -106.5t3.5 -68.5 q12 -59 28.5 -102.5t42 -70t62.5 -38.5t92 -12v-29zM1391 416q0 -10 2 -25.5t16 -15.5q20 0 30.5 29.5t10.5 52.5q0 12 -2 18t-16 6q-23 0 -32 -22.5t-9 -42.5z" />
<glyph unicode="N" d="M1249 -8q-2 -2 -2 -4q31 -10 47 -2h-10q8 84 -6 137t-33 100l-6 43q0 4 2 16.5t5 26t6 24.5t3 13q0 4 1 25.5t2.5 49.5t2.5 54.5t1 40.5q2 186 6 365.5t16 365.5q14 45 18.5 65.5t9.5 34t18 26.5t46 44q4 4 14.5 6t20.5 3t17.5 3.5t7.5 8.5q0 8 -6.5 9t-10.5 1 q-10 0 -16 -3t-14 -3h-5q-2 0 -9 3t-11 3t-6 -3l-2 -3q-16 -4 -50 -5t-63 -1h-24h-17q-57 0 -111.5 5t-113.5 5q0 -18 13.5 -28.5t31.5 -14.5t37.5 -6t32.5 -6q16 -4 26 -12.5t29 -18.5q2 0 5 -3t7 -3q41 -14 52.5 -58.5t15.5 -89.5v-207q0 -98 -2 -193t-2 -200v-4 q0 -12 1 -39.5t1 -60.5q0 -31 1 -58.5t1 -40.5v-12q0 -10 -4 -27.5t-13 -23.5h-4q-4 4 -11 5l-7 1l-496 576q-2 2 -5 9t-7 9q-2 6 -9 16.5t-14.5 19.5t-14.5 17t-9 11l-205 237q-8 14 -32.5 47t-51.5 67t-50.5 60.5t-27.5 26.5t-19.5 -5t-15.5 -10h-6q-51 0 -108.5 4.5 t-108.5 8.5q2 -10 1 -18.5t-1 -18.5h4q45 0 89 -20.5t79 -45.5q41 -39 63.5 -93t22.5 -114v-4q-12 -113 -14 -226.5t-3 -227t-5 -227t-21 -226.5q0 -4 -3 -14t-7 -15q0 -2 -4 -11t-9 -18t-9.5 -18.5t-4.5 -11.5l1 -11t-1 -16l-6 -2q-6 -2 -8 -4q-29 -8 -51.5 -31.5 t-50.5 -27.5q-10 0 -27.5 -5t-22.5 -5q-12 -18 -16 -20.5t-4 -6.5v-4q33 -6 60.5 0t62.5 4q23 16 37 16q12 0 23.5 -2t24.5 1t27.5 13.5t30.5 35.5h15q0 -10 2 -29t12 -29h82q4 0 12 -1t8 -5h13q12 4 43.5 5t54.5 1h22v4q0 6 -19 16.5t-46 21.5t-51.5 21.5t-36.5 16.5 q-27 16 -38 42t-32 48q-6 6 -12 6q-6 4 -10 21.5t-7.5 42t-4.5 52.5t-1 52v51q0 174 7.5 353.5t11.5 353.5q2 2 6 9t8 7h2l223 -252q0 -2 8.5 -6t12.5 -8q2 0 4 -3l2 -3q2 -4 9 -15.5t15.5 -24.5t15.5 -24.5t9 -13.5l8 -6l15 -10l16 -15q0 -2 8.5 -18t8.5 -18 q14 -20 28.5 -31.5t28.5 -23t26.5 -26t22.5 -38.5q6 -6 17.5 -18.5t24.5 -27t25.5 -27.5t16.5 -17q16 -20 32.5 -46t34 -50.5t37 -43t43.5 -24.5q8 -2 13.5 -11.5t9.5 -21.5t9 -24.5t11 -20.5q23 -29 52.5 -59.5t52.5 -61.5q2 -4 8 -20.5t6 -18.5q16 -29 41 -49t31 -49 q8 -2 15 -4l14 -4h-13zM1169 154l-12 114q0 2 7 -17.5t16.5 -44t17.5 -46.5l8 -21l64 -37l-13 -30q-2 -4 -7 2t-12 15t-14 16.5t-14 5.5zM1219 1378q0 8 4 8q6 -10 11 -19t5 -19v-2q0 -4 -1 -22l-1 -17q-2 2 -5 12t-6 22.5t-5 22.5t-2 14zM274 102l7 35q0 4 -3.5 21.5 t-3.5 25.5t5 9q0 -2 5 -12.5t10 -22.5l5 -13v-41q-2 0 -2 -8q0 -6 1 -14t1 -16v-5zM473 1092q8 0 15.5 -4.5t7.5 -8.5v-55q-2 0 -6.5 10t-7.5 22.5t-4 17.5z" />
<glyph unicode="O" d="M135 330l-10 10q-2 0 -10.5 -6t-12.5 -10h-4q-12 0 -16 13t-5 31.5t-3 36t-8 25.5q0 4 -13.5 13.5t-13.5 13.5q-18 27 -26.5 59.5t-10.5 66t-1 67.5t1 63q0 104 23.5 192t70.5 180q14 27 24.5 44.5t22 31t25.5 25.5t39 31q14 8 20 24t23 29l3 1t7 1q25 10 41 30.5 t43 36.5q76 45 166 71t182 26q47 0 96.5 -4.5t98.5 -12.5q4 0 29.5 -2t29.5 -4l4 -2q4 -2 13 -6q20 -10 45.5 -19.5t31.5 -13.5l8 -1q9 -1 9 -5q12 -6 28.5 -13t32 -14.5t26.5 -12.5t13 -7l148 -143q33 -35 57 -92.5t40.5 -122t26 -128t9.5 -106.5q0 -86 -22.5 -163 t-41.5 -156q-29 -29 -43 -67t-41 -71q-229 -266 -598 -266q-59 0 -132 13.5t-143.5 41t-130 68.5t-89.5 94q-6 8 -11.5 6t-13.5 4q-23 14 -30 45t-7 54zM641 45q8 -2 26.5 -4t39 -3t38 -2t23.5 -1q41 -4 93 12t85 37q16 10 28.5 22.5t29.5 20.5q35 31 67.5 66.5t63.5 72.5 q8 10 10 35t18 29l11 -6h4h2l2 3q2 3 6 3q-2 2 -2 18q0 20 2 43t2 33q4 2 7 13.5t7 15.5q4 47 20.5 109.5t16.5 117.5q0 111 -26.5 220.5t-73.5 209.5q-16 29 -26.5 45t-20.5 45q-6 2 -16.5 11.5t-22 20.5t-20.5 21.5t-11 16.5q-4 0 -14.5 14t-10.5 19q-4 0 -8 3l-4 3 q-74 47 -142.5 73.5t-160.5 26.5h-49q-2 -2 -12.5 -5t-22.5 -7l-22.5 -7.5t-12.5 -3.5q-16 -6 -30 -6q-18 0 -27 -8q-23 -12 -37 -27.5t-41 -25.5q-72 -59 -124 -140t-70 -173q0 -4 -5.5 -22.5t-5.5 -22.5q-12 -43 -20 -86.5t-8 -88.5q0 -55 7 -127.5t21 -132.5 q6 -20 18.5 -54t16.5 -62q4 -6 13.5 -25.5t19.5 -41t19.5 -41t11.5 -26.5q2 0 4 -8l2 -8q6 -4 6 -12l104 -111q4 0 33 -18.5t45 -28.5q29 -14 61.5 -24.5t61.5 -20.5zM225 281v10q-2 4 0 19l2 16l-32 86q-2 4 -1 -17.5t2 -50.5t2 -54l1 -26q14 0 20 2.5t6 14.5zM1243 434 v-24q0 -20 4 -46t17 -26h4l6 2v4v2q0 4 5 16.5t5 14.5l-16 69q-4 10 -6 11v2q0 2 -5 2q-10 0 -12 -9.5t-2 -17.5zM1325 569q0 -4 2 -14t5 -22.5t6 -21.5t8 -9q6 0 9 10t5 22.5t3 24.5t1 16q0 6 -7 16.5t-11 12.5q-14 2 -17.5 -13.5t-3.5 -21.5zM61 764v-10q0 -6 5 -11 q4 4 20 19.5t16 19.5q0 2 2 20.5t4.5 41t4.5 41t2 22.5q-6 0 -15.5 -20.5t-17.5 -47t-14.5 -49t-6.5 -26.5zM1323 895l25 -119q0 -37 34 -37q0 8 -10 37t-21.5 57.5t-20.5 49t-7 12.5z" />
<glyph unicode="P" horiz-adv-x="1175" d="M10 18q-10 -10 -10 -18q78 0 149.5 6t149.5 6q41 0 77 -5t77 -5h223l-4 16q-66 8 -127.5 31t-108.5 70q-16 23 -22 53.5t-23 52.5v109v106q0 8 1 36t3 58.5t3 59.5t1 41q2 20 13.5 30.5t28 14.5t35 3t36.5 -1l76 4q88 0 156.5 17.5t115.5 40t77 45t42 32.5q2 2 13.5 11.5 t25.5 19.5t29.5 22.5t25.5 20.5q0 4 6 14.5t13.5 21.5t13.5 20.5t8 11.5q16 29 22.5 73.5t6.5 79.5q0 23 -10.5 57.5t-22.5 49.5q-4 0 -10 7t-11.5 15t-9.5 15.5t-4 5.5t7.5 -24.5t13.5 -41t8 -20.5q0 -2 1 -11.5t3 -18.5t3 -16.5t1 -5.5l2 11q2 8 1 1t-6 -18.5t-13.5 -23 t-20.5 -11.5t-5 13.5t3 23.5q-4 27 -7 58.5t-11 61.5t-21.5 55.5t-38.5 39.5q-6 4 -23 15l-18 10q6 -20 19.5 -36.5t3.5 -45.5l5 -16q5 -15 1 -15q-6 4 -15.5 28t-20.5 50.5t-27.5 48t-38.5 21.5q-4 0 -14.5 1t-21.5 2t-21.5 3t-12.5 4q-6 0 -20.5 4t-31 8t-30.5 8.5 t-18 4.5q-2 0 -15.5 1t-33 3t-29.5 2q-4 0 -16.5 1t-29 2t-30.5 -1t-20 -8l-5 -4q-6 -3 -6 -7l-17 7q-17 8 -17 4l-8 -4l-18 -10t-16.5 -9t-7.5 -6q20 -6 69.5 -3t88.5 3q27 0 43 -6q47 -16 103.5 -33.5t105.5 -60.5q66 -47 82 -114t16 -142q0 -82 -46 -144.5t-117.5 -105.5 t-158.5 -64.5t-169 -21.5q-8 0 -27.5 4t-23.5 16l-9 58v192q0 47 -1 101.5t-1 109.5t4.5 110.5t16.5 104.5v4l37 27q-2 2 -13 2h-24q-12 0 -24.5 -1t-16.5 -1q-2 0 -16.5 -6.5t-32 -16.5t-30.5 -24.5t-13 -28.5l-33 76q-18 -10 -57 -9t-79 5t-73 7t-41 -3v-21l123 -30 q-4 0 14.5 -3.5t44 -14.5t48 -32.5t26.5 -60.5q-8 -51 -1 -103.5t7 -103.5q0 -16 -1 -63t-4 -110.5t-5 -134.5t-5 -134.5t-4 -110.5t-1 -63q0 -6 1 -27.5t1 -46.5v-45q0 -25 -2 -27q0 -6 -2 -28.5t-5.5 -47t-7.5 -48t-6 -31.5q-25 -35 -44 -57.5t-42.5 -37t-53.5 -24 t-73 -17.5zM274 154v24q0 18 15 19l6 -9q4 0 7 -2l3 -2v-14q0 -10 1 -21.5t1 -21.5v-12q0 -25 -1 -33t-11 -27q-18 18 -19.5 47t-1.5 52zM956 936l37 -64q2 -2 -6 -1t-20.5 -1t-28.5 -11t-33 -30q2 2 11.5 18.5t18.5 36t16 36t5 16.5zM315 891l43 -98q2 0 -8 -13.5 t-10 -27.5v-27q0 -12 -2 -14q-2 0 -7 27.5t-9.5 61.5t-6.5 62.5t0 28.5z" />
<glyph unicode="Q" horiz-adv-x="1499" d="M1427 47q-47 47 -107 73.5t-114 61.5q43 37 84 84q27 33 41.5 71t42.5 66q18 80 41 157t23 163q0 43 -9.5 106.5t-26 128t-41 122t-56.5 91.5l-148 144q-2 2 -13 7t-26.5 12t-32 14.5t-28.5 13.5q0 4 -9 5l-8 1q-6 4 -31.5 13.5t-45.5 19.5q-8 4 -13 6l-4 2q-4 2 -29.5 4 t-29.5 2q-49 8 -98.5 12.5t-96.5 4.5q-92 0 -182 -26t-166 -71q-27 -16 -43 -36.5t-41 -30.5q-4 0 -7 -1l-3 -1q-16 -12 -22.5 -28.5t-20.5 -25.5q-25 -18 -39 -30.5t-25.5 -25.5t-21.5 -30.5t-25 -44.5q-47 -92 -70.5 -180t-23.5 -192q0 -29 -1 -63t1 -67.5t10 -66.5 t27 -59q0 -4 13.5 -13.5t13.5 -13.5q6 -8 8 -25.5t3 -36t5 -32t16 -13.5h4q4 4 12.5 10.5t10.5 6.5l10 -10q0 -23 7.5 -53.5t29.5 -45.5q8 -6 13 -4t12 -6q31 -53 90 -94t129.5 -68.5t143.5 -41t132 -13.5q231 0 408 104q10 -8 19 -15t20 -15q76 -27 131 -74h37h20h21h84 q8 6 6.5 20.5t-11.5 26.5zM940 236q25 -20 49.5 -41t48.5 -41q-10 -8 -18 -15.5t-16 -15.5q-16 -8 -28.5 -20.5t-29.5 -22.5q-33 -20 -85 -36.5t-93 -12.5q-6 0 -23.5 1t-38 2t-39 3t-26.5 4q-29 10 -61.5 20.5t-61.5 24.5q-8 6 -20.5 13t-24.5 15.5t-21.5 13.5t-11.5 5 l-104 111q0 8 -6 12l-2 8t-4 8q-2 6 -11.5 25.5t-19.5 41t-19.5 41t-13.5 26.5q-4 29 -16.5 62.5t-18.5 53.5q-14 59 -21 132t-7 128q0 45 8 88t20 86q0 4 5.5 22.5t5.5 22.5q18 92 70 173t124 141q27 10 41 25.5t37 27.5q8 8 27 8q14 0 30 6q2 0 12.5 3.5l22.5 7.5t22.5 7 t12.5 5h49q92 0 160.5 -26.5t142.5 -73.5l4 -3q4 -4 8 -4q0 -4 10.5 -18t14.5 -14q2 -6 11 -16.5t20.5 -21.5t21.5 -20.5t17 -11.5q10 -29 20 -45t27 -45q47 -100 73.5 -210t26.5 -220q0 -55 -16.5 -117.5t-20.5 -109.5q-4 -4 -7 -15.5t-7 -13.5q0 -10 -2 -32.5t-2 -43.5 q0 -16 2 -18q-4 0 -6 -4l-2 -3h-6l-11 7q-8 -2 -12 -10.5t-6 -18.5t-4 -19.5t-6 -15.5q-2 -2 -2 -4h-3q-4 4 -6 8t-6 8q-29 -18 -49 9q-2 2 -4 5t-6 7q-20 0 -35 20q-4 4 -7 8.5t-5 6.5q-23 27 -31 61q-18 18 -23 21q-23 16 -43 3.5t-20 -38.5v-2q-2 0 -2 -2 q-6 -10 -10 -19.5t2 -19.5q4 -53 45 -86q4 -10 10 -12zM1374 813q0 -2 1 -3t1 -3q8 -14 2 -23q2 0 2 -4v-18q0 -4 -1 -5t-1 -3q2 -10 3 -15.5t1 -3.5q-20 0 -28 8q0 2 -2 2q-4 0 -9 5q0 2 -1 3l-1 1q-2 2 -2 4v4q-4 4 -4 14t2 12q-4 12 -2 15l-4 12q-4 16 -17.5 23.5 t-8.5 25.5q-6 10 1 17.5t17 5.5v4q-2 4 -1 2l3 -6q16 -4 18 -15q4 -4 5 -10q23 -18 24 -45q0 -4 2 -4zM1139 131q-16 12 -4 28.5t28 4.5q12 -6 20.5 -16.5t20.5 -18.5h6q23 0 23 -20t-23 -21q-23 0 -39 14.5t-32 28.5zM61 760q0 4 6.5 26.5t14.5 49t17.5 47t15.5 20.5 q0 -4 -2 -22.5t-4.5 -41t-4.5 -41t-2 -20.5q0 -4 -16 -19.5t-20 -19.5q-4 4 -5 11v10zM1243 430q0 8 2 17.5t12 9.5q4 0 5 -2v-2q2 0 6 -11l16 -69q0 -2 -5 -14.5t-5 -16.5v-6l-6 -2h-4q-12 0 -16.5 25.5t-4.5 46.5v24zM225 276q0 -12 -6 -14t-20 -2l-1 26q-1 25 -2 54 t-2 50.5t1 17.5l32 -86l-2 -16q-2 -15 0 -19v-11zM1325 565q0 6 3 21.5t18 13.5q4 -2 11 -12t7 -17q0 -4 -1 -16t-3 -24.5t-5 -22.5t-9 -10q-4 0 -7.5 9t-6.5 21.5t-5 22.5t-2 14zM139 537q0 -23 -20 -23t-21 23q0 23 21 22q20 1 20 -22zM1255 1155q0 -23 -20 -22 q-20 0 -21 22q0 23 21 23q20 0 20 -23zM1001 266q0 -23 -20 -22q-20 0 -20 22q0 23 20 23t20 -23z" />
<glyph unicode="R" horiz-adv-x="1288" d="M16 23q-14 -8 -14 -21q82 0 153.5 7t149.5 7q41 0 77 -5t77 -5q55 0 109.5 5t109.5 5v7q-66 8 -127.5 30.5t-108.5 69.5q-16 23 -22 53.5t-23 52.5v109v106q0 8 1 36t3 58.5t3.5 59.5t1.5 41q2 20 13 30.5t28.5 14.5t36 3t36.5 -1q102 0 158.5 -34t94.5 -86t72 -116.5 t91 -125.5q35 -43 75 -83t81 -83q12 -12 24 -29.5t27.5 -33t35 -26t46.5 -10.5q20 0 20 21q0 12 -10 26.5t-21.5 31t-21.5 36t-10 41.5q0 16 6 25.5t6 25.5q-6 8 -22.5 28.5t-35 42t-34 41t-21.5 28.5q-4 0 -11 8l-7 8q-4 4 -22.5 11t-18.5 11q-2 0 -14.5 21.5t-29.5 54.5 t-37.5 72t-38 72.5t-29 57t-11.5 28.5q0 18 14.5 30.5t34 19.5t40 14t32.5 17q2 2 14.5 13.5t27.5 25t30.5 27.5t25.5 23q0 4 5.5 11t12.5 14t13 13.5t8 8.5q16 29 22.5 73.5t6.5 79.5q0 23 -8 48.5t-21 39.5q-8 0 -10 12.5t-2 8.5t1 -25l1 -20q0 -4 5 -17.5t5 -17.5v-6 q0 -16 -8 -33.5t-31 -17.5q-14 0 -20 9t-10 19q-4 27 -3 59.5t-1.5 64.5t-11.5 58.5t-34 40.5q-6 4 -23 15l-17 10q6 -20 19 -36.5t3 -45.5l-3 -2t-7 -2q-6 4 -12.5 23.5t-15.5 41t-23.5 39t-34.5 17.5q-4 0 -14.5 1t-21.5 2t-21.5 3t-12.5 4q-6 0 -20.5 4t-30.5 8.5 t-30.5 8.5t-18.5 4h-84h-90l-5 -3q-6 -3 -6 -8l-17 7q-17 8 -17 4l2 -6q2 -5 2 -9q29 -8 74 -9t73 -11q47 -16 105.5 -45t103.5 -49q35 -59 66.5 -120t31.5 -136q0 -80 -47 -142.5t-118.5 -105.5t-158.5 -65.5t-167 -22.5q-8 0 -27.5 4t-23.5 16l-8 58v192q0 47 -1.5 101.5 t-1.5 109.5t4.5 110.5t16.5 104.5v4q-4 4 -21.5 7t-27.5 3q-4 0 -19.5 -3t-19.5 -7h-29q8 -55 14.5 -105t2.5 -104l-5 -14h-4q-8 0 -13 20.5t-9 44t-6 43.5l-2 21q-8 -51 -18.5 -123t-10.5 -123v-63q0 -45 -1 -110.5t-2 -135.5t-2 -135.5t-1 -110.5v-63q0 -6 1 -27.5 t1 -46.5v-45q0 -25 -2 -27q0 -6 -2 -28.5t-5 -47t-7.5 -48t-6.5 -31.5q-25 -35 -44 -57.5t-42.5 -37t-53.5 -23.5t-73 -17zM281 158v24q0 18 14 19l6 -8q4 0 7 -3l3 -2v-45v-45q0 -12 -10 -39q-18 18 -19 47t-1 52zM311 279q4 0 4 -5q0 -4 -4 -8q-4 0 -4 6q0 7 4 7zM1270 8 l-4 -6q4 0 11 -4t11 4q10 27 16.5 30t9.5 -4.5l7 -17.5t10 -10q10 10 23 10q20 0 50 -10t60 -10q-6 6 -10 19.5t4 13.5q-10 12 -20.5 14t-26.5 20q-12 12 -29.5 22.5t-35.5 29.5h-7q-6 2 -18 21.5t-25.5 38.5t-24.5 29.5t-16 -3.5q8 -59 19.5 -83t3.5 -46q10 -38 -8 -58z M1501 10q18 -2 32.5 -8t31.5 -18q10 -10 0.5 -11.5t-25.5 -1.5q-10 0 -16 2q-23 4 -25 15.5t2 21.5zM274 1409h5q-59 20 -118 18t-118 -18q6 -4 6 -8t-2 -9.5t-2 -9.5q0 -2 4 -2q41 0 63.5 -4t36 -10t23.5 -14.5t27 -16.5l53 -69q2 25 6 52.5t7 51t6 35.5t3 4z" />
<glyph unicode="S" horiz-adv-x="1019" d="M924 1391l-47 4q-8 -14 -33 -15l-10 6q-53 10 -105.5 24.5t-110.5 14.5q-45 0 -96 -7t-100 -22.5t-91 -40t-71 -59.5q-12 -20 -22.5 -23t-10.5 -26q0 -2 1 -19.5t1 -37.5t1 -37.5t1 -19.5q0 -41 -7 -72t-3 -72q0 -4 1 -18.5t-3 -14.5q-10 0 -15 27t-9 43q-2 16 -3.5 29.5 t-1.5 25.5q0 41 5.5 76t5.5 84l-19 -2l-10 -19q-10 -18 -14 -30q-8 -12 -16.5 -41t-8.5 -39l-3 -28q-3 -27 -3 -44q0 -6 3 -30.5t3 -32.5q18 -31 23.5 -64.5t29.5 -62.5q43 -51 100.5 -92t120 -78t126 -70t118.5 -67q25 -10 44.5 -21.5t29.5 -34.5q41 -29 63.5 -91 t22.5 -132q0 -23 -27 -24q-25 -111 -108.5 -162t-202.5 -51q-68 0 -114 16t-82.5 42t-67.5 57.5t-68 62.5q0 -8 -4 -26.5t-8 -22.5q0 -2 1 -12.5t1 -22.5t1 -22.5t1 -12.5h-6q-12 0 -16.5 22.5t-6.5 53t-3 60.5t-7 42q-6 10 -16 28.5t-20.5 39t-20.5 40t-17 31.5l-12 11v-25 v-31l6 -11q6 -11 6 -15l7.5 -45t10.5 -68t10 -67.5l7 -45.5q4 -10 16.5 -16t22.5 -10q20 -10 38 -24.5t42 -18.5q143 -39 283 -39q43 0 107.5 12t129 35t117.5 53.5t76 67.5q16 25 33.5 48.5t32 48t23.5 51t9 59.5q0 102 -47 171.5t-120 123t-158 95.5t-162.5 87t-136 101.5 t-74.5 135.5q-4 18 -9.5 35t-5.5 35q0 57 31 103.5t78 78t105.5 46t111.5 8.5q2 0 17.5 -2.5t35 -6.5t40 -8t32.5 -8q41 -6 58.5 -33.5t41.5 -62.5q14 -18 19.5 -48t10.5 -59.5t11 -54.5t23 -33l10 10q0 4 4 35t8 45q0 6 -1 30t-1 48v49q0 29 2 31q0 29 5.5 38.5t9.5 29.5z " />
<glyph unicode="T" d="M1335 1407q-59 -14 -133 -8t-143 6l-105 14l-114 -16q-35 -10 -66 -5t-63 5h-181q-25 12 -74.5 8t-99.5 -4l-200 -6l-119 31v-13q0 -8 -1 -19t-1 -22v-12q0 -59 -14.5 -117.5t-14.5 -113.5q0 -10 1 -19.5t11 -17.5q29 86 92.5 150.5t161.5 82.5q16 0 56.5 2t84.5 3t84 3 t56 2h29q74 0 73 -69v-64q0 -16 -1 -32.5t-3 -32.5q-8 -113 -10 -236t-2 -239v-174q10 -4 10 -19q0 -16 -10 -31.5t-10 -33.5t5 -36t5 -40q0 -23 -11.5 -60.5t-15.5 -58.5q-16 -53 -36.5 -88t-50 -56.5t-72.5 -32.5t-105 -20q4 -4 16.5 -10t20.5 -8q4 0 21.5 4t21.5 4h629 l7 3t7 7v5v4q-6 0 -22.5 3t-37 8t-38 9t-25.5 6q-53 12 -80.5 39t-42 61.5t-19.5 75.5t-11 82q0 2 -1 19.5t-1 40.5q0 25 -1 49t-1 39v6v4q0 8 1 28.5t1 43.5q0 25 1 45t1 26v729q82 0 170 4.5t170 -7t149.5 -46.5t106.5 -112q6 -20 21 -46l15 -26h13q0 45 -6.5 88t-6.5 90 v55l7 15q6 16 6 20q0 2 -2 16.5t-5 32t-3 19.5l-25 -10q-25 -11 -45.5 -18t-24.5 -9zM639 193l16 8v145q16 23 17.5 45.5t21.5 42.5l8 -10v-154q0 -4 -4 -14t-4 -14v-4q0 -35 10.5 -74t10.5 -78q0 -14 -3 -18.5t-26 -4.5q-6 0 -26.5 4.5t-20.5 18.5v107z" />
<glyph unicode="U" horiz-adv-x="1499" d="M102 1415l-102 -6v-8q0 -12 2 -12h12q12 0 28.5 -1.5t20.5 -1.5q23 0 20 -2t-3 -6h14q12 0 38 -10t36 -10q12 0 12 -6q0 -2 1 -8.5t3 -16.5q2 -12 4 -35.5t4.5 -47t3.5 -42t1 -20.5v-488q-4 -37 -3 -64.5t1 -62.5q0 -59 2 -118.5t12 -117t32.5 -109.5t65.5 -95 q6 -4 14.5 -15.5t19.5 -23.5t24.5 -21.5t29.5 -9.5q2 0 7.5 1t5.5 10l22 82l4 4l6 8q12 0 14.5 -18.5t1.5 -43t0 -47t13 -30.5q63 -29 141 -35t150 -6q39 0 100.5 7t120.5 25.5t102 52t43 87.5h-14q-109 -109 -262 -109q-51 0 -107.5 5t-112 21.5t-103.5 45t-83 76.5 q-23 27 -40 60.5t-29 61.5q-4 14 -9.5 36t-10.5 41.5t-9 33.5l-4 14v801q-16 18 -18 52t-2 61q0 6 3 18l3 12l4 9l16 -23q-20 -45 6 -94q29 35 59.5 63.5t75.5 44.5q6 2 20.5 1t29 0t24.5 6.5t10 17.5h-321q-6 0 -16 -4l-11 -4h-8h-8q-23 4 -25 6t-12 2h-18zM1194 1415 q0 -43 9 -84t19.5 -83t19.5 -85t9 -88v-526q0 -47 -10 -110.5t-27 -110.5q-12 -37 -28.5 -78t-26.5 -80q10 0 22.5 6t16.5 17q35 61 53.5 125.5t26.5 130t9 134t1 138.5v45v74q0 41 1 75.5t3 40.5q4 72 5 138.5t14.5 125t47.5 106.5t105 83q-8 0 -31.5 5t-25.5 5h-4h-6 q-6 0 -21.5 -2t-33 -3t-32 -3t-18.5 -2v-160q0 -8 -12 -8h-2h-4q-4 41 -7 82t-7 82q0 4 -9 4h-12q-4 0 -22.5 3t-22.5 3zM301 254l-4 -27l-4 -2q8 0 18.5 -19.5t10.5 -23.5t-3.5 0t-7.5 9.5t-7 9.5t-3 2q-23 8 -17.5 27.5t17.5 23.5zM231 399q4 31 0 60.5t-10 58.5t-12 59.5 t-6 63.5h22q8 -37 16.5 -77t24.5 -77q2 -12 13.5 -53t21.5 -72v-4v-4q0 -6 -2 -9l-2 -3q-12 0 -25 12q-4 4 -19.5 20.5t-21.5 24.5zM285 1186l-29 178l45 -6q2 0 4 -25.5t2 -40.5l-2 -12t-2 -20q0 -29 1 -43.5t-3 -49.5zM969 1409q4 -4 13 -10t15 -6q2 -2 15.5 -3t30 -2.5 t30.5 -2.5t17 -1q8 -2 19 -10t23.5 -16t24.5 -15.5t21 -7.5v15q0 18 -4.5 40.5t-12.5 22.5z" />
<glyph unicode="V" horiz-adv-x="1449" d="M528 358q20 -20 25 -51q2 -14 4 -27.5t6 -29.5q16 -41 23.5 -70.5t25.5 -64.5l15 -23l6 -57q0 -10 8 -24.5t18 -14.5q8 0 22.5 2t30 5t28 7t16.5 10q12 37 32.5 86.5t42 100.5t40 99t28.5 85q2 4 8 18.5t8 20.5l5 10q6 11 11 22t8 21.5t3 12.5q2 0 5 16t1 20q2 4 6 10.5 t4 10.5q6 8 14 31l7 22q8 20 9 35.5t0 29t0 27t9 31.5q4 16 13.5 28.5t13.5 28.5q16 53 43 98.5t45 98.5q14 37 22.5 74t30.5 71l21 54l28 43q-4 29 13.5 45t27.5 37l15 28q0 2 4 6.5t4 8.5q2 0 12 6t21.5 14t23 16.5t17.5 12.5q10 10 28.5 14t34.5 14l15 11q-4 2 -8.5 4 t-6.5 2l-110 -6q-6 0 -8.5 -7.5t-5.5 -14.5l-6 -14t-9 -7q-4 4 -9 -6.5t-7 -8.5q-8 -8 -12.5 -2t-4.5 -4h-8q-6 0 -6 6q0 12 4 29.5t4 28.5l-29 -23l-20 -82q0 -2 4 -15t7 -30l3 -16h-2h-4l-3 8q-3 8 -6 19.5t-6 21.5t-3 12q-4 10 -9.5 27.5t-5.5 30.5q-2 0 2 7t9.5 16 t8.5 16.5t-3 7.5h-205l-1 -2q-1 -2 -1 -4v-5v-2l2 -4q43 -8 69.5 -12t44 -9t28.5 -13.5t26 -26.5q4 0 8 -19.5t8 -23.5q8 -20 3 -32.5t-7 -29.5l-4 -34q-4 -12 -13.5 -35t-18.5 -48.5t-18 -49t-14 -35.5q0 -4 -8 -21.5t-17 -39t-16.5 -39t-7.5 -21.5q-33 -98 -56.5 -184 t-55.5 -179q-12 -39 -25.5 -78.5t-42.5 -80.5q0 -2 -9 -25t-22.5 -56.5t-30 -73.5t-29.5 -74t-23 -57l-9 -22q-8 0 -17 25t-18.5 61.5t-19.5 79.5t-19.5 80t-17.5 61.5t-14 24.5q4 -47 15 -94t15 -94l11 -92q2 -10 12 -24.5t4 -14.5q-4 0 -14 10t-13 14l-61 219 q-18 33 -17 51.5t9 31t17 22.5t7 29q-2 25 -18 67.5t-23 67.5q-2 4 -13 18t-23.5 31.5t-22.5 32t-10 18.5q-25 66 -44.5 134.5t-43.5 133.5q-10 29 -24.5 63t-30 68.5t-27.5 68.5t-19 65v10q0 12 5.5 52t15.5 67q4 12 9 13t8 -4t6 -12l3 -6l7 -8l8 8q25 10 46 17.5t46 15.5 l10 10v2v5q0 2 -1 4l-1 2h-43q-45 0 -89 -5.5t-93 -5.5h-21h-90q-4 4 -20.5 8.5t-24.5 4.5t-17 -7.5t-16 -7.5h-6q-4 2 -14 7.5t-12 5.5h-2q-4 0 -11.5 -4.5t-7.5 -8.5q0 -16 15.5 -15t25.5 -5l19 -12q10 -6 14 -4t6 -9q2 0 16.5 -11t24.5 -20.5t12 -11.5l35 -84 q4 -8 25.5 -62t52.5 -133t65.5 -169t65.5 -170t54.5 -139.5t29.5 -73.5q4 -10 8 -9t8.5 2t9.5 -4.5t11 -29.5q0 -6 3 -20.5t7 -31t7 -32t3 -21.5zM211 1378q0 8 12 8q10 0 19.5 -17t9.5 -23t3 -32t3 -42q0 -12 -2 -12q-4 0 -11 16t-14.5 36.5t-13.5 40t-6 25.5z" />
<glyph unicode="W" horiz-adv-x="1789" d="M393 377q0 6 -1 21.5t-3 33t-3 31.5t-1 20q-4 25 -9 31t-9.5 5t-8.5 -2t-6 9q-8 27 -28.5 112t-51.5 257q-4 27 -2 48.5t5.5 41t3.5 39.5q0 23 -9 49q-6 16 -13 41t-14 49.5t-13.5 47t-8.5 32.5q-6 20 -13 37.5t-11 34.5q-6 18 -15.5 27.5t-19.5 13.5t-21 4h-10h-41l-1 3 t-5 3q-2 10 -8 20.5t-17 10.5h-12q-10 0 -25.5 2t-15.5 18q0 4 7 8.5t12 4.5h2q2 0 12 -5.5t14 -7.5h6q6 0 13.5 3t15.5 3q12 0 23 -6l116 2h21q49 0 93 5.5t89 5.5h43l1 -2q1 -3 1 -5v-4v-2l-10 -10q-25 -8 -46.5 -15.5t-45.5 -17.5l-8 -8l-7 8l-3 6q-3 6 -6 11.5t-8 4.5 t-9 -14q-8 -16 -15.5 -22t-11.5 -17q-2 -4 -2 -16t2 -25.5t4 -24.5t2 -13l17 -82q6 -31 9 -45.5t7 -30.5t10 -41t17 -74q8 -35 13 -61.5t9 -52t10.5 -53t14.5 -60.5q0 -4 5 -23.5t11 -42t12.5 -42t8.5 -23.5q2 -12 8 -29.5t13 -36t12.5 -37t5.5 -30.5q0 -35 -10.5 -73 t-8.5 -75l14 -162v-10t1.5 -17t2.5 -16.5t3 -7.5q6 0 5 33t5 92q4 47 0 89t-4 89q10 0 14 -11t7 -24.5t8.5 -24.5t17.5 -11l4 1q4 1 4 5q27 35 39 84t22 88q31 94 66 181t66 185q0 4 4 19.5t10 33t10 33t4 19.5q4 12 14.5 39.5t22.5 58.5t22.5 58.5t14.5 40.5v12 q0 18 -3 24.5t-11 26.5q-4 4 -9.5 17.5t-9.5 13.5q-20 27 -37.5 42t-37 25.5t-41 17.5t-50.5 17l-2 4v2v4q0 2 1 5l1 2h207q10 0 13.5 -18.5t7.5 -20.5q0 -6 3 -23.5t6 -37t6 -36t5 -22.5q0 -4 1 -6l1 -2h4h2q2 0 4 4l2 4l-2 162l9 -21q2 -12 5 -29.5t15 -17.5h8 q0 10 1 34.5t10 33.5l3 -8q3 -7 6 -15t7 -15t6 -10q6 0 9 7.5t6 14.5t5.5 14.5t8.5 7.5l110 6q2 0 6.5 -2t8.5 -4v-5q0 -12 -10.5 -17t-23.5 -7t-26.5 -4t-17.5 -6q-6 -4 -17.5 -12.5t-22.5 -16.5t-21.5 -14.5t-12.5 -6.5q0 -4 -4 -8t-4 -6v-22q0 -23 1 -38.5t5 -43.5 q47 -147 89 -304t77 -305q12 -27 14 -53t8 -55l13 -8q0 -4 5 -24.5t9 -31.5v-2q0 -35 -5 -66.5t-22 -60.5q0 -4 -1 -8l-1 -4v-135l2 -6h3h4l6 6q0 4 3 15.5t8 24.5t9 24.5t6 15.5q0 4 1 24.5t1 22.5q6 33 33 65.5t37 67.5q23 63 40 132t34 130q4 16 13 27.5t13 27.5 q10 37 18.5 71t22.5 69q27 109 55.5 205t28.5 204v51q0 4 -3 16.5t-9 14.5q-39 8 -79 17.5t-75 21.5v4q0 10 9.5 14.5t19.5 4.5h12q8 -4 34 -5t44 -1h21q6 -6 20 -7q14 0 21 7h28q10 0 14.5 -5.5t14.5 -15.5q0 -2 18.5 -18.5t32.5 -16.5q8 2 8 17q0 10 -1 17t-1 11v4 q0 2 1 5l1 4h103q0 8 14 8q0 4 4 0l4 -4v-4q0 -6 -9 -10.5t-19.5 -6.5t-20.5 -4t-12 -4q-10 -6 -26.5 -19.5t-32 -29t-28.5 -31.5t-20 -29q-18 -29 -28.5 -75.5t-18.5 -81.5q-16 -51 -30.5 -103.5t-30.5 -103.5q-4 -4 -11.5 -25.5t-9.5 -25.5q-6 -10 -16 -38t-12 -38 q-20 -74 -43 -144.5t-45 -136.5q0 -4 -1 -9l-1 -5q-16 -25 -18.5 -42t-8.5 -44q-4 -12 -9 -32.5t-11.5 -43t-12.5 -41t-12 -26.5q-4 -8 -14.5 -11.5t-14.5 -11.5q0 -2 -3 -22.5t-7 -49t-10 -61.5t-13.5 -61.5t-14.5 -47t-15 -18.5q-4 0 -13.5 27.5t-18.5 62.5t-16.5 66.5 t-7.5 42.5q-4 4 -2 16t2 14q-4 4 -10 19.5t-8 17.5q-10 31 -14 71t-9 73q-8 33 -22 50t-21 46q-10 31 -13 57.5t-7 59.5q-8 41 -26.5 84t-32.5 81q0 4 -1 13.5t-1 11.5q-4 16 -16.5 67.5t-28 106.5t-32 98t-28.5 43h-6q-25 -33 -32 -72.5t-21 -76.5q-16 -53 -30.5 -105.5 t-31.5 -105.5q-2 -14 -10 -26.5t-12 -28.5q-14 -37 -24.5 -78t-22.5 -82l-6 -6q-5 -6 -9 -10q0 -4 -4 -12.5t-4 -12.5q0 -2 -2 -19.5t-4 -19.5q0 -2 -4 -11t-8 -20.5t-8.5 -20.5t-6.5 -11q-2 -4 -7 -20.5t-7 -18.5q-20 -76 -39.5 -153t-50.5 -148q-4 -6 -5 -17.5t-2 -24 t-3 -20.5t-11 -8q-10 0 -16 17.5t-6 27.5v57l-12 25q-14 35 -19.5 65.5t-15.5 73.5q-2 16 -3 29.5t-1 28.5q-1 33 -21 53zM1184 135v-31h10q0 4 1 17.5t-9 13.5h-2zM256 1362q18 4 22.5 2t4.5 2q0 2 -8.5 6t-19.5 6t-22.5 4t-17.5 2q-8 0 -8 -12z" />
<glyph unicode="X" horiz-adv-x="1468" d="M238 115q2 2 2 22v21q0 18 2 22q20 14 18 39q2 4 4 7t4 7q27 31 55.5 67t59.5 73q31 6 43 35q8 4 15.5 13t9.5 17q6 16 18 28.5t24.5 25t21.5 26.5t9 33q16 20 28.5 32.5t24 22.5t22.5 21.5t24 27.5l11 1t23 1q14 0 25 1l10 1q-6 6 -19.5 17.5t-28.5 25t-29.5 25.5 t-18.5 18q-6 6 -18 13q-4 2 -5.5 3t-5.5 3q4 0 8 -4q-18 29 -47 53q-10 25 -21 49.5t-34 40.5q2 20 -16 43q-4 0 -5 1t-3 1v-2q-4 6 -8.5 15.5t-14.5 9.5q-6 10 -16.5 17t-12.5 20q-2 0 -4 1t-4 1l-31 45q-6 12 -14 23.5t-18 19.5l-205 276l-43 2l-1 3q-1 3 -5 3 q-2 10 -7.5 19.5t-15.5 9.5l-14 2q-10 2 -22.5 3t-12.5 20q0 10 14 10h4q2 2 11.5 -4t13.5 -8h6q6 -2 14.5 2t16.5 2q12 0 20 -8h117l21 2q47 -2 91 2t91 2h43l1 -2q1 -2 1 -4v-9l-10 -8q-27 -6 -48.5 -14t-44.5 -19l-8 -4q-14 -14 -22 -41q27 -78 73 -146.5t99 -127.5l-2 4 q10 -4 16 -12.5t10 -12.5q0 -2 9 -10v-31q10 -10 19 -22t26 -14q6 -16 13 -30.5t23 -25.5q10 -18 17 -20q0 -20 22 -37q6 -20 21.5 -36.5t34.5 -27.5l-17 7q0 -12 9 -27q2 0 6 -4v6q23 -10 26.5 5t-0.5 34q29 23 41 55q8 8 14.5 16.5t6.5 20.5q8 4 11 10t7 13 q16 10 23.5 24.5t11.5 28.5q16 2 25.5 14t21.5 23v30q2 4 4 6.5t2 4.5q4 4 11.5 12t15.5 12v-4q53 61 98 116.5t72 135.5q-10 29 -23 39l-8 4q-23 10 -44 19.5t-48 15.5l-10 8v8q0 2 2 4l2 2h41q45 2 91 -2t93 -2l21 -2h114q8 8 21 8q8 2 16 -2t14 -2h7q4 2 13 8.5t11 4.5h4 q4 0 11.5 -3t5.5 -8q2 -18 -12.5 -19t-24.5 -3l-15 -2q-10 0 -15 -10.5t-7 -20.5q-4 0 -5 -3l-1 -3h-43l-203 -250q-12 -8 -20.5 -20.5t-16.5 -26.5l-29 -45q-2 0 -4 -1t-4 -1q-2 -12 -12 -19.5t-16 -17.5q-10 0 -14.5 -9t-8.5 -13h-8q-18 -20 -14 -43q-23 -18 -34 -43 t-24 -50q-29 -25 -47 -53q4 4 10 4q-8 -4 -10 -6q-16 -10 -18 -12q-12 -16 -26.5 -27.5t-31.5 -28.5q29 -35 60.5 -76.5t68.5 -84.5q2 -18 12.5 -32.5t22.5 -29t23.5 -27t17.5 -26.5q2 -8 9.5 -16.5t15.5 -12.5q12 -29 43 -35q23 -29 42 -54t40 -48q8 -18 32 -37 q6 -6 12.5 -13t12.5 -13q0 -25 1 -55.5t3 -35.5q0 -4 3 -13t7 -19.5t9.5 -18.5t9.5 -8l12 3t0 7q0 4 -4 26.5t-10 51.5q8 -8 24 -4q51 -63 70 -63h39v-5q0 -4 8 -6q0 -8 6 -16t17 -8l14 -2q10 -2 24.5 -1t12.5 -16q2 -6 -5.5 -10t-11.5 -2l-2 -2q-4 0 -14 3t-14 7h-7 q-4 0 -11 -4t-15 0q-6 0 -13.5 2t-11.5 2l-114 2l-21 -4q-49 4 -93 0t-89 -8h-45l-1 2q-1 2 1 4v6l10 8q23 8 45.5 17.5t46.5 19.5l8 6l4 -6l7 17q2 14 0 30q0 2 -2 2v3q0 4 -1 7t-1 7q-12 29 -37 51.5t-47 46.5q-8 14 -14.5 27.5t-14.5 27.5q-4 4 -4 9q-16 27 -35.5 49 t-44.5 43q-27 35 -54.5 68.5t-62.5 62.5q-4 31 -17.5 57.5t-33.5 50.5q-2 -2 -4 -2l-2 -2q-10 -18 -33 -18q-23 -35 -27 -74q-35 -29 -62.5 -63.5t-53.5 -69.5q-23 -20 -43.5 -44t-36.5 -48q0 -6 -2 -8q-8 -14 -14.5 -28.5t-14.5 -29.5q-23 -25 -48.5 -47t-37.5 -51 q0 -4 -1 -7t-1 -7q0 -2 -2 -2v-2q-4 -12 0 -31l6 -16l4 6l8 -6q27 -10 48.5 -19.5t44.5 -17.5l10 -9v-6q4 -2 2 -4l-2 -2h-43q-47 4 -91 8t-93 0l-21 4l-113 -2q-6 0 -12 -2t-12 -2q-8 -4 -15.5 0t-11.5 4h-6q-4 -4 -14.5 -9t-14.5 -3l-2 4q-4 -6 -9 0t-5 13q0 16 12.5 15 t22.5 1l14 2q10 0 16.5 8t6.5 17q8 2 8 6v4h39q8 0 33.5 26.5t64.5 71.5h2q-10 -35 -16 -68.5t-6 -39.5q-2 -8 12 -11q4 0 9 8.5t9 19.5t7.5 20.5t3.5 11.5zM195 1382q0 -6 18 -40.5t42 -74.5t44 -72t25 -30q2 0 -11.5 24.5t-30 55.5t-30.5 57.5t-14 30.5q0 2 -2.5 12.5 t-6.5 20.5t-9 18.5t-11 8.5q-18 -1 -14 -11zM1239 1370q4 10 -12 10q-12 0 -20.5 -25.5t-8.5 -31.5q0 -2 -4 -9t-8 -18q4 -2 6 -4l4 -4q18 31 30.5 54.5t12.5 27.5zM1137 178q-8 39 -72 78q25 -29 43 -59.5t22 -69.5q0 -2 2 -3l1 -1q2 14 3 24.5t1 16.5v14zM1112 1180 q2 -2 33 47q-4 0 -17.5 9t-15.5 9q-10 -20 -7 -42.5t7 -22.5zM1200 188q-2 2 -3 4.5t-3 4.5v6q2 -4 3 -5t3 -5v-5zM618 907l-6 4v9zM817 922l4 12v-8zM782 702l-4 5q0 -2 1 -3l1 -2h2zM721 618q0 -2 -2 -2q2 0 2 2zM639 752q2 -2 33 47q-4 0 -17.5 9t-15.5 9 q-10 -20 -7 -42.5t7 -22.5z" />
<glyph unicode="Y" horiz-adv-x="1202" d="M498 209q2 37 5 86t5 101.5t3 102.5t1 91q-45 96 -117 217q-12 33 -27.5 75t-41.5 93q-16 33 -27.5 69.5t-24.5 69.5q-4 33 -7 49.5t-7 23.5t-9 8t-11 1t-13 10l-143 185l-84 26l10 10h76q35 0 73 -1t70 -1q33 0 57.5 -1t35.5 -1h14h82q6 0 0 -2t4 -4 q-33 -12 -55.5 -22.5t-22.5 -59.5q2 -23 21.5 -77t47 -121.5t61.5 -141t64.5 -135t54 -102.5t34.5 -45q12 12 24.5 32.5t26.5 43t27.5 42t27.5 29.5v-12q-4 -16 -25.5 -61.5t-50.5 -98.5q-4 -4 -9 -24.5t-5 -24.5v-152q0 -49 -2 -104t3 -109.5t24.5 -102.5t62.5 -83 q27 -16 71 -37.5t68 -50.5h-39h-36q-8 0 -45 2t-79 5t-80 5t-46 2h-4h-6q-8 0 -36 -2t-58.5 -5t-57.5 -5t-33 -2h-45h-45q2 6 30.5 20.5t67.5 39t78 61.5t62 88zM758 915q6 14 23.5 50t37 76t36.5 76t24 52q12 25 24 68t19 72q8 25 0.5 41t-19.5 28.5t-24.5 23.5t-14.5 30 q29 0 79 1t99.5 2t85 0t35.5 -8l4 -10q-31 -8 -55.5 -14t-49 -21.5t-50 -47t-58.5 -91.5q-47 -82 -79.5 -144.5t-56 -108.5t-40 -78.5t-30.5 -55.5l-15 16zM244 1386q0 -6 6 -32.5t13 -56t14.5 -54t11.5 -24.5q2 0 2 16v39q0 23 -1 41t-1 22q0 2 -3 12.5t-8.5 19.5 t-10.5 17.5t-11 8.5q-12 -1 -12 -9z" />
<glyph unicode="Z" horiz-adv-x="1470" d="M61 1280q0 -18 -16 -21.5t-22 9.5q-4 -31 -8.5 -64t-4.5 -67v-45q27 35 50.5 78.5t52.5 78.5q37 55 102.5 86t143 46.5t160.5 19.5t157 4q10 0 29.5 3t46.5 3l77 -6q37 -10 72 -17.5t65.5 -18.5t55.5 -29.5t41 -51.5q-6 -29 2 -49q-27 -47 -60.5 -86t-72.5 -82v4 q-8 -4 -15.5 -12t-11.5 -12q0 -2 -2 -4.5t-4 -6.5v-30q-12 -10 -21.5 -22.5t-25.5 -14.5q-4 -14 -11 -28.5t-24 -24.5q-4 -6 -7 -12.5t-11 -10.5q0 -12 -6.5 -20.5t-14.5 -16.5q-12 -33 -41 -55q4 -18 1 -33.5t-25 -7.5q0 -4 -1 -7t-1 -7l-21 -17q-2 -4 -2 -22 q-16 -12 -26 -17q0 -2 -3 -2q-4 -4 -6 -4q12 -10 23.5 -18t15.5 -13l-10 -1t-25 -1q-12 0 -23 -1l-11 -1q-12 -16 -23.5 -27.5t-23 -21.5t-23.5 -22.5t-29 -32.5q0 -18 -9 -32.5t-21.5 -27l-24.5 -24.5t-18 -29q-2 -8 -9.5 -17t-15.5 -13q-12 -29 -43 -35q-31 -37 -59.5 -73 t-55.5 -67q-2 -4 -4 -7t-4 -7q2 -25 -18 -39q-2 -4 -2 -22v-21q0 -20 -2 -22q0 -2 -3.5 -11.5t-7.5 -20.5t-9 -19.5t-9 -8.5q-14 2 -12 10q0 6 6 40t16 69h-2q-39 -45 -64.5 -71.5t-33.5 -26.5h-39v-4q0 -4 -8 -7q0 -8 -6.5 -16t-16.5 -8l-14 -2q-10 -2 -22.5 -1t-12.5 -16 q0 -6 5 -12t9 0l2 -4q4 -2 14.5 3t14.5 9h6q4 0 11.5 -4t15.5 0q6 0 12 2t12 2l113 2l21 -4q49 2 98 0h35q23 -14 48 -10t48 -4h33h159h64q129 2 253 3t259 1q2 14 3 24.5t9 12.5t25.5 -4t52.5 -23q25 -8 50.5 -7t53.5 -1q-25 6 -24 21v51q-2 2 -2 20q-10 -10 -22.5 -5 t-12.5 22q0 16 14.5 20t22.5 -6q4 43 16.5 88t12.5 92v47q-29 -35 -50.5 -80t-48.5 -79q-37 -59 -99.5 -91t-137 -48.5t-153.5 -19.5t-148 -3q-8 0 -24.5 2t-41.5 2l-84 4q-41 6 -74.5 11t-61.5 14.5t-49.5 27t-35.5 47.5q-2 8 -4 15.5t-4 11.5q2 8 4 19.5t4 25.5q2 4 5 7 t5 7q14 14 17 33q2 12 10 23q2 2 2 8q16 25 36.5 48.5t43.5 43.5q27 35 54.5 69.5t61.5 63.5v2q2 2 7 10q10 4 15 13.5t9 19.5q18 12 31 31q6 8 2 18l2 2q4 12 14.5 22.5t20.5 18.5q8 20 31 33q-2 4 -4.5 6t-4.5 6q16 16 30.5 27.5t27.5 28.5q2 2 18 12q2 2 10 6 q-6 0 -10 -4q18 29 47 53q12 25 23.5 49.5t34.5 42.5q-4 23 14 43h8q4 4 8 13.5t15 9.5q6 10 16 17.5t12 19.5q2 0 4 1t4 1l29 45q8 14 16.5 26.5t20.5 20.5l82 100q-4 12 4 21q10 18 33 24l84 105h24q2 2 4 2q4 0 7 2h-2l9 9t11 7q4 16 18 17l15 2q10 2 24.5 3t12.5 19 q2 4 -5.5 7.5t-11.5 3.5h-4q-2 2 -11 -4.5t-13 -8.5h-7q-6 -2 -14 2t-16 2q-4 0 -6 -2l-7 7l31 12h-117q-4 4 -10 4q-8 0 -10 -2t-6 -2q-41 0 -80 1t-96 5l-15 -6h-51q-41 0 -85 -1t-85 -1h-63q-131 -2 -265.5 -4t-269.5 -2q-4 -14 -8 -23.5t-15.5 -10.5t-32 6t-57.5 26 q-23 10 -51 8t-55 0q14 -4 15 -16.5t1 -18.5l11 -37q2 -18 4 -27.5t0 -29.5q10 10 20 -2.5t10 -28.5zM1167 1378q8 -2 16.5 -3t16.5 -3v-6q-2 0 -3 -1t-3 -1q-23 -16 -8 -33q-4 -4 -7 -27.5t-8 -27.5l-26 49l8 51q4 0 7 1t7 1zM819 807q0 -10 -2 -6t-3 14t-3 24.5t-2 26.5 q0 23 20 23t21 -23zM1128 1352q-16 12 -26 -4l-2 -2q-4 6 -9.5 13t-9.5 11q12 2 32 3t40 3q-8 -4 -13.5 -10t-11.5 -14zM1112 1178q-8 0 -8 18l35 31q2 -2 6 -2q-31 -49 -33 -47zM817 920l4 4v8zM782 700h-2l-1 1q-1 1 -1 4z" />
<glyph unicode="a" d="M6 0h-2h510q0 16 -31.5 18t-70.5 12.5t-71 42t-32 109.5q0 14 8.5 49t22.5 79t31.5 90t34 85t32 64.5t25.5 25.5h440q14 0 40 -56t50.5 -128t43 -137.5t18.5 -83.5q0 -33 -22.5 -59.5t-49.5 -46t-49.5 -33t-22.5 -19.5v-6q8 -4 30 -5t38 -1h18h15q35 0 75.5 5t71.5 15 q4 0 13 6l8 7h4q2 0 1 12t-4 27.5t-5 27t0 9.5l45 -58l28 -22q10 0 8 -9.5t3 -13.5h172q0 10 -15.5 18.5t-37 16.5t-43 18.5t-31.5 24.5q-63 74 -103 166q-2 6 -8 21.5t-13 33t-13.5 32.5t-8.5 21q0 4 -2 14.5t-4 22t-4 20.5t-2 11q-88 248 -177 485.5t-167 485.5 q0 4 -7.5 14t-13.5 10h-4q-20 -16 -32.5 -28.5t-18.5 -25.5t-8 -31.5t-2 -49.5q-6 0 -8 8.5t-4.5 17.5t-5.5 17t-11 8l-3 -2t-7 -2q-20 -92 -56 -176t-59 -176l-323 -836q0 -2 -10.5 -12t-25 -23.5t-28.5 -27.5t-22 -23q-16 -16 -45 -19t-48 -3zM496 688q0 18 1 24.5t9 24.5 q6 14 19.5 50t28.5 77t29.5 77t20.5 50q2 10 10.5 41t18.5 63.5t23.5 58.5t25.5 26h6q14 -10 24.5 -33t16.5 -37q8 -25 29.5 -81t45 -118.5t45 -119t30.5 -78.5v-25q0 -14 -6.5 -23.5t-28.5 -9.5h-324q-18 0 -21 11.5t-3 21.5zM758 1362q18 0 33.5 -26.5t13.5 -47.5l-6 -147 q-10 0 -17.5 28.5t-12.5 63.5t-8 67.5t-3 40.5v21z" />
<glyph unicode="b" d="M643 1454q-98 -10 -192.5 -15t-192.5 -9q-45 2 -89 3t-93 1h-23q-10 0 -28.5 -3.5t-18.5 -7.5v-6q39 -6 84 -14t86 -21.5t74 -36t49 -57.5q2 -8 5 -28.5t6 -44t5 -45t2 -29.5q2 -4 3.5 -19.5t3.5 -29.5l6 -48q4 -31 -4.5 -55t-8.5 -35v-28q0 -14 -1 -45t-1 -68v-123 q0 -35 -1 -61.5t-1 -38.5q0 -4 -2 -22.5t-5 -40t-5 -41t-2 -25.5v-244q-2 -63 -25.5 -102t-62.5 -60.5t-91 -29t-112 -7.5v-18h72h115h55h43h51l27 12q6 4 7 16.5t1 20.5q0 86 -4 155.5t-4 151.5v43l-17 47v35q10 27 14.5 39t4.5 17q0 4 -1 6t-1 10q0 6 -6.5 17.5t8.5 11.5 q10 0 15 -2t11 -13q0 -6 3.5 -37.5t3.5 -44.5q0 -53 -1.5 -108t2 -111.5t12.5 -113t32 -109.5q10 -23 27.5 -35t51.5 -8h15q27 -8 54.5 -6t53.5 -8q12 0 25.5 4t26.5 4v-2q2 2 10 2q6 0 12 -6q16 -10 29 6q16 0 18 -2q49 4 100.5 3t100.5 -1q72 6 126 22.5t93 36t63.5 39 t36.5 29.5q4 4 29 23.5t45 35.5q0 4 6 14.5t13.5 21.5t14.5 20.5t9 11.5q16 29 22.5 73t6.5 78q0 23 -10.5 58t-24.5 49q-4 0 -10 7t-11.5 15.5t-9.5 15.5t-4 5t7 -24.5t13.5 -41t8.5 -20.5q0 -2 2 -15.5t3 -23.5t1 -12q-2 -2 -2 -4t-2 -5q-6 20 -17.5 38t-17.5 38 q0 14 -10 19q-8 39 -12.5 79.5t-32.5 59.5q-6 4 -25 15l-18 10q8 -20 21.5 -37t2.5 -45l6 -16q5 -15 0 -15q-6 4 -15 27.5t-21.5 50t-28.5 48t-39 21.5q-4 0 -14.5 1t-22.5 2t-22.5 3.5t-12.5 4.5q-10 0 -38.5 9t-49.5 13q78 25 125 57.5t64 47.5q6 6 28.5 30.5t44.5 40.5 q0 4 6.5 14.5t13.5 21.5t13 20.5t8 11.5q16 29 22.5 73t6.5 78q0 23 -10 58t-23 49q-4 0 -10 7t-11 15.5t-9.5 15.5t-4.5 5t7.5 -24.5t13.5 -41t8 -20.5q0 -2 2 -15.5t3 -23.5t1 -12q-4 -12 -12 -25.5t-23 -13.5q-12 0 -5 12t3 23q-2 14 -3 27.5t-1 29.5q0 47 -8 92t-45 68 q-6 4 -23 14l-18 10q6 -20 19.5 -36.5t3.5 -45.5l5 -15q5 -15 1 -15q-6 4 -15.5 27.5t-21.5 50t-28.5 48t-39.5 21.5q-4 0 -14 1t-21.5 2t-21.5 3t-12 4q-6 0 -21.5 4t-32 8.5t-31 8.5t-18.5 4q-2 0 -15 1t-33.5 3t-31.5 2q-4 0 -30.5 2t-48.5 -2q-2 2 -5 2q-2 0 -4 2 q-4 0 -5 1t-5 1h-80q-10 -2 -16 -3t-8 -1h-15q-2 2 -10 2zM750 694l55 2q14 -12 31 -6q37 -6 72.5 -4t70.5 -2h6q45 -14 91 -30.5t89 -51.5q66 -47 82.5 -113.5t16.5 -140.5q0 -61 -27 -111.5t-72 -90.5t-103 -67.5t-122 -43.5h-209q-29 -4 -51 6q-16 0 -34.5 2t-35.5 8 q-12 2 -23.5 4t-21.5 8q-12 8 -28 27q-12 6 -17.5 18.5t-5.5 26.5q-2 8 -3 15.5t-1 17.5l-3 9l-1 3q0 12 -3 44t-6 66t-6.5 64.5t-3.5 42.5v64q0 6 1 34.5t1 61.5t1 59l2 27q0 8 1 13.5t1 11.5q10 12 25.5 21t29.5 9h86v-4h115zM518 772l-12 6q-12 61 -15.5 127t-3.5 129 v127q0 23 3.5 59.5t3.5 57.5q2 10 4 24.5t4 28.5q10 4 12 10q2 14 12.5 15.5t14.5 11.5q14 0 18 10l19 6h2q4 2 14 2q14 0 18 3q4 4 8.5 5t8.5 5l24 6h4q2 0 5 2q6 0 8 2h213q47 -16 104 -33.5t107 -60.5q68 -47 84 -113.5t16 -140.5q0 -92 -58.5 -162t-146.5 -111 q-4 -2 -5 -3t-5 -3q-4 -4 -8 -5t-8 -3h-7q-16 0 -18 -8q-23 -8 -59 -8q-23 0 -58 10q-10 -6 -22 -6h-203q-14 0 -16 2h-7q-10 0 -30.5 2t-24.5 6zM391 1356q0 10 3 21.5t22 15.5h4q35 -23 35 -50q0 -4 -1 -14t-2 -20.5t-4.5 -19.5t-9.5 -11q-4 0 -10 8t-12 18.5t-11.5 18.5 t-5.5 10l-4 9q-4 8 -4 14zM1270 236l39 -64q2 -2 -5.5 -1t-20.5 -1t-29.5 -9t-30.5 -26q6 8 14 24.5t16.5 34t10.5 23.5zM1200 948l17 -30q-6 -6 -7 -17q-14 -12 -18 -22q-16 -8 -39 -31q6 8 14.5 24.5t16.5 34t10 23.5z" />
<glyph unicode="c" horiz-adv-x="1226" d="M1096 193q-16 -18 -12.5 -24.5t11 -9.5t8.5 -7.5t-20 -18.5q-14 -8 -38.5 -18.5t-40.5 -20.5q-35 -20 -70 -25.5t-78 -2.5q-6 0 -25.5 1t-41 2t-41 3t-27.5 4q-29 10 -66 15t-61 18q-10 6 -24.5 12t-29 11t-24.5 8t-12 3l-178 103q0 6 -7 10l-2 8t-4 8q-2 8 -14 22.5 t-26.5 31t-28 31t-17.5 20.5q-4 27 -15 43t-22 35q-6 29 -11 71.5t-8 89t-4 88t-1 68.5q0 45 8 86t21 84q0 4 5 21.5t5 21.5q20 88 77.5 150.5t133.5 119.5q29 10 52.5 16.5t45.5 16.5q14 8 29 8q16 0 32 7q2 0 13.5 3t24 7t22.5 7t14 5h49q49 0 85 -2t68 -9t63.5 -19.5 t72.5 -32.5l6 -6q6 -7 14.5 -14t15.5 -12t9 -5q0 -4 18.5 2t22.5 6q2 -4 10.5 -29.5l18.5 -55.5t20.5 -55.5t16.5 -31.5v37q0 20 -1 45.5t-1 50.5t1 43t5 25q0 8 -9.5 21t-18.5 27.5t-15 27t0 18.5l-45 22q0 2 -11.5 10.5t-21.5 14.5t-12 6q-10 4 -28.5 3t-29.5 3 q-4 2 -27.5 1t-29.5 -1q-27 4 -45.5 8t-35.5 7.5t-35.5 5.5t-43.5 2q-47 0 -98 -1t-102.5 -5.5t-100.5 -15.5t-88 -32q-29 -16 -45 -36.5t-43 -30.5q-4 0 -8 -1l-4 -1q-16 -12 -23.5 -26.5t-19.5 -22.5q-25 -16 -41.5 -28.5t-28.5 -26t-22.5 -30t-24.5 -40.5 q-25 -43 -40 -97.5t-23.5 -112t-11.5 -114.5t-3 -106q0 -29 -3 -73t-4 -91t5 -90t25 -68q0 -4 14 -13t14 -14q6 -8 8.5 -24t4.5 -33.5t6 -30t16 -12.5h6q2 4 11.5 9t13.5 5l8 -8q0 -23 8.5 -51.5t30.5 -42.5q8 -6 13 -4t12 -6q33 -53 99 -84t145 -47.5t159 -21.5t141 -5 q92 -2 144.5 1t87.5 9.5t63.5 13.5t75.5 13q12 0 24.5 19.5t20.5 44t9 46t-11 23.5q8 2 12 29.5t3 60.5t-7 60.5t-18 29.5q0 -2 -1 -16t-2 -29.5t-2 -28.5l-1 -14zM262 182q0 -6 -7 -3t-16.5 8.5t-20.5 11.5t-19 6q0 2 1 13t4 24.5t11 13.5h4l15 -12q16 -13 18 -17zM70 756 q0 8 1 22.5t15 14.5q0 -4 4 -12.5t10 -17.5t10.5 -17.5t4.5 -10.5l-5 -9q-6 -9 -13 -20.5t-13 -21.5t-6 -12q-4 4 -6 28.5t-2 40.5v15zM252 1219q0 4 8 19t18.5 31.5t21.5 30t17 13.5q0 -4 -2 -16.5t-5 -26t-5 -24.5t-2 -13l-5 -11l-10 -24t-9.5 -22.5t-4.5 -12.5 q-6 4 -14 28t-8 28z" />
<glyph unicode="d" d="M145 -16l84 14h62q72 0 144.5 -1t146.5 -1h32q35 0 80 5t64 22q-84 6 -155 7t-124 6t-85 17.5t-36 42.5q-6 49 -10 100.5t-4 131.5v956q-4 16 -8 29.5t-4 32.5q0 18 9 28t21.5 18.5t25.5 15.5t22 17h-37h-39q-18 0 -40 -2t-39 -5t-29.5 -8t-12.5 -13v-8q2 -2 6 -12.5 t8 -22t8.5 -21.5t6.5 -12v-219q-2 -8 -7.5 -21.5t-9.5 -29t-8 -27.5t-4 -18v-285q12 -8 21.5 -24.5t15.5 -35t9 -37t3 -32.5q-37 -49 -49 -86t-12 -103q0 -14 1 -35.5t5 -43t13 -39t28 -25.5v-197l-6 -14h-6h-7q-8 4 -14 18.5t-11 29t-7 24.5l-2 10q-31 -8 -54.5 -28.5 t-45 -42t-44 -40t-51.5 -22.5h96q10 0 29.5 -5t19.5 -9zM1241 649q0 -74 -21.5 -156.5t-59.5 -161.5t-92 -143.5t-120 -101.5q-6 -4 -25.5 -7t-40 -8t-36 -15.5t-15.5 -30.5h35q2 0 22.5 8t48.5 20.5t56.5 25.5t46.5 21q45 23 78 52.5t63.5 63.5t62.5 66.5t73 61.5 q25 14 46 62.5t37.5 105.5t26 111.5t9.5 81.5q0 33 -4.5 72.5t-10.5 78.5t-15 76t-19.5 65.5t-46 78.5t-79.5 100.5t-89.5 88.5t-75.5 42q0 2 -7.5 3t-15.5 0l-16 -2t-10 -1q-2 2 -12.5 11t-23 18.5t-22.5 16.5t-12 7q-14 14 -29 14q-98 39 -211.5 50.5t-218.5 11.5v-25 q35 -4 90.5 -12t113.5 -20.5t110.5 -30t80.5 -41.5q2 -4 14.5 -15.5t28 -24t28.5 -23.5t15 -13q12 -8 32 -14.5t38 -14.5t33.5 -18t19.5 -29q16 -55 38 -100t48 -101q31 -68 32 -145.5t1 -159.5zM8 1417q8 -2 25.5 -6t37 -7t36 -7t22.5 -6q4 0 20.5 -7.5t20.5 -7.5 q6 0 10 12.5t4 16.5q0 16 -25.5 22.5t-47.5 6.5h-21q-20 0 -41 -2.5t-41 -14.5z" />
<glyph unicode="e" d="M2 20v-20q80 0 130 1t108 1h43h22q16 0 27 -2l26 14q6 4 7.5 16.5t1.5 20.5q0 86 -4.5 155.5t-4.5 151.5v9v36l-16 48v34q10 27 14 39.5t4 16.5t-1 6t-1 10q0 6 -6 17.5t8 11.5q10 0 15.5 -2t11.5 -13q0 -6 3 -37.5t3 -44.5q0 -53 -1 -109t2 -112.5t12.5 -113 t31.5 -109.5q10 -23 26.5 -35t51.5 -10h258q168 0 336 7t342 3q-31 4 -42 19.5t-11 42.5q0 59 15.5 115.5t15.5 115.5v51q-23 -35 -44.5 -80t-46.5 -81q-35 -55 -92 -87t-123.5 -47.5t-138.5 -18.5t-137 -3h-139q-41 12 -75 20.5t-61.5 21.5t-48 36.5t-32.5 66.5 q0 12 -3.5 44t-6.5 67t-6 65.5t-3 42.5v33v31q0 10 1 40t2 62.5t2 62t1 42.5q10 12 25.5 21t30.5 9h401l12 -5q13 -5 17 -5q57 -20 81.5 -34.5t35 -32t19.5 -40t38 -59.5l12 11v401q-31 -14 -33 -42t-12 -46q-10 -23 -43 -39t-73 -25.5t-79 -13.5t-63 -4h-148h-141 q-10 0 -30.5 2t-24.5 6l-12 6q-16 92 -17.5 191.5t-1.5 193.5q0 23 3 60t3 57q4 25 8.5 60.5t4.5 41.5l30 37l-6 7q-66 0 -121 2t-108.5 3t-106.5 3t-112 2h-21q-10 0 -28.5 -3t-18.5 -7v-7q39 -6 83 -14t84 -21.5t72.5 -36t49.5 -57.5q2 -8 5 -28.5t6 -44t5 -45t2 -29.5 q2 -4 3 -20.5t3 -30.5l6 -47q4 -31 -4 -55.5t-8 -35.5v-28q0 -20 -1 -68.5t-1 -103.5q0 -53 -1 -99.5t-1 -64.5q0 -4 -2 -22.5t-5 -40t-5 -41t-2 -25.5v-246q-2 -63 -25.5 -102t-61.5 -60.5t-90.5 -29t-109.5 -7.5zM1163 1397q18 0 31 -21q33 -47 56.5 -104.5t39.5 -104.5 q10 2 14.5 11.5t6.5 21.5t1 24.5t-1 22.5v31q-37 6 -48.5 28.5t-14.5 47t-5 45t-18 24.5q-53 8 -101.5 12.5t-95.5 4.5h-197h-208l-11 -3q-12 -3 -12 -7v-7q0 -4 2 -6l2 -2h350q37 -23 83 -26t87 -3q10 0 16.5 5.5t22.5 5.5zM379 1362q0 10 3 22.5t24 16.5q37 -23 36 -51 q0 -4 -1 -14.5t-2 -20.5t-4 -19.5t-9 -11.5q-4 0 -10 8t-12.5 18.5t-11.5 18.5t-5 10l-4 9q-4 8 -4 14zM1327 1456q-12 -12 -23.5 -19t-23.5 -3q4 -45 10 -59.5t17 -14.5h14q4 0 6 28.5t2 49.5q0 16 -2 18z" />
<glyph unicode="f" horiz-adv-x="1470" d="M0 1419q57 0 110.5 -6t92.5 -25.5t62.5 -56.5t23.5 -100v-47q0 -37 -1 -79t-1 -79v-45q0 -6 2 -25.5t5 -41t5 -40t2 -22.5v-338v-31q0 -10 1 -36.5t1 -57.5v-59q0 -33 -2 -37q0 -8 -2 -28.5t-5 -44t-7 -43t-6 -27.5q-16 -37 -48 -60.5t-71 -38t-82 -23t-80 -14.5v-6 q0 -4 16.5 -5t26.5 -1h18q59 0 105.5 1t91.5 2t94 2t115 1h98l195 -6l-6 12q0 2 -43 12.5t-95.5 28t-96.5 43t-46 60.5q-2 18 -4 54t-2 60q0 98 1 197.5t19 194.5l13 6q4 2 23.5 4t29.5 2h27q20 0 43.5 -1t42.5 -1h26h146q23 0 64.5 -4t84.5 -14.5t78 -27t45 -40.5 q6 -10 7 -22.5t4 -25t10.5 -23.5t23.5 -19l2 407l-12 10q-29 -37 -38 -60.5t-20.5 -40.5t-35 -31.5t-80.5 -34.5q-4 0 -25 -8l-22 -7l-396 6q-25 0 -34 9.5t-19 23.5v39q0 31 -1 63.5t-1 61.5v43v31v37q0 10 2 40.5t5 65.5t6 66.5t3 44.5q12 43 33 65.5t48.5 34.5t61.5 21.5 t75 25.5h26h41q23 0 42.5 -1t27.5 -1q63 0 137 -4t144.5 -20.5t129 -49t91.5 -88.5q25 -39 46 -84t44 -80v50q0 61 -15.5 117.5t-11.5 113.5v49q0 20 29 25q-25 -2 -51.5 0t-49.5 -11q-33 -18 -49 -25t-23.5 -4t-8.5 13t-3 27q-123 0 -242.5 3t-238.5 5h-53q-37 0 -78 1 t-76 1h-49q-33 8 -65.5 0t-36.5 -31l20 -143q-14 31 -26.5 20.5t-21.5 -35t-14 -49t-7.5 -21.5t1 47t11.5 157q0 10 -4 24.5t-11 16.5l-26 16q-41 -2 -72 -4t-58.5 -3t-55.5 -1h-60h-90v-23zM371 76q0 8 2 32l2 25q0 2 5 37t11 76t12.5 74.5t10.5 33.5q4 -2 -1 -43t-7.5 -88 t6 -88t39.5 -43q10 0 8 -11t-2 -13l-15 1q-14 1 -53 -8q-6 2 -14 2h-4v13z" />
<glyph unicode="g" d="M700 1430q2 0 3.5 -1.5t5.5 -1.5l2 5h41h6q-2 0 3 1l15 3h88h58q27 0 58.5 1t92.5 1q45 -12 100.5 -13.5t104.5 -13.5t83 -48t34 -118v-47v-49q-12 18 -17.5 26.5t-9.5 15.5l-10 17.5t-19 28.5q-33 55 -91 88t-128.5 49.5t-144.5 20.5t-137 4q-8 0 -27.5 1t-42.5 1v-2 q-2 -2 -3 -4t-5 -4q-70 10 -107 -17q-16 -6 -26 -16q-41 -4 -58 -35q-31 -16 -37 -53q-10 -12 -12 -27q-8 -12 -14 -25.5t-8 -27.5q-8 -12 -13.5 -26.5t-3.5 -28.5v-17q0 -2 -2 -2v-117q0 -29 1 -44t3 -43.5t4 -54.5t7 -52q-2 -2 -2 -6q-16 -61 -7 -123v-2q0 -6 -1 -11.5 t-1 -13.5l-1 -27q-1 -26 -1 -59t-1 -61.5t-1 -34.5v-64q0 -12 3 -42.5t6.5 -65.5t6.5 -66.5t3 -44.5l1 -3l3 -9q0 -10 1 -17.5t3 -15.5q0 -14 5 -26.5t17 -18.5q12 -14 29 -26q10 -6 21.5 -8.5t21.5 -4.5q16 -6 34.5 -8t35.5 -2q23 -10 51 -6h205q63 16 120.5 44t101.5 67.5 t70.5 90t26.5 111.5v39q0 10 -1 19.5t-3 19.5q6 25 7 36t-11 34q-2 14 -1 28.5t-15 20.5q-4 27 -7.5 53.5t-29.5 42.5q-6 8 -10.5 13.5t-8.5 9.5q-4 8 -10 14t-10 12h-12v-4q-4 2 -5.5 3t-5.5 3q-16 6 -29.5 14.5t-29.5 8.5q-10 0 -14 4h-41q-20 2 -33 18h-12q-2 8 3 16.5 t15 8.5h18q35 2 69 4t71 4h12q-4 -2 -5 -4t-5 -4q20 2 38.5 3t37.5 1h75q14 4 27.5 7t28.5 7q18 2 38.5 -6t36.5 -4q18 0 29 -12q-10 -4 -17.5 -11.5l-15.5 -15.5q-4 -4 -7 -6t-7 -6h-4q-35 0 -43 -18.5t14 -34.5q2 -2 3 -4t5 -4q2 -18 13 -41q2 -10 4 -21.5t6 -21.5v-7 l4 -6v-4q-2 -16 -3 -35.5t11 -31.5q-2 -2 -2 -9q0 -6 -2 -8q4 -27 5 -40t1 -40q-4 -10 -7 -18t-7 -19q2 -98 -50.5 -179t-129.5 -132q-4 -4 -6.5 -5t-4.5 -5q-39 -4 -74.5 -13.5t-70.5 -25.5q-12 4 -14 8q-41 -8 -92 -8h-101q-49 0 -98 -2q-2 2 -19 2q-8 -14 -26 -6 q-6 6 -12 6q-8 0 -11 -2v2q-12 0 -25.5 -4t-25.5 -4q-27 8 -53.5 7t-52.5 3h-15q-35 -2 -51 10.5t-27 34.5q-23 53 -32 109.5t-12 113t-2 112.5t1 110q0 12 -3 43.5t-3 37.5q-6 10 -11 12.5t-15 2.5q-14 0 -8 -11.5t6 -17.5q0 -8 1 -10t1 -6t-4.5 -16.5t-14.5 -39.5v-34 l17 -47v-46q0 -82 4 -151.5t4 -155.5q0 -8 -1 -20.5t-7 -16.5l-27 -14q-6 2 -27 2h-22h-43q-57 0 -107.5 -1t-130.5 -1v21q57 0 109.5 7t90.5 28.5t61.5 60.5t25.5 102v246q0 6 2 25.5t5 41t5 40t2 22.5q0 12 1 39t1 61v123q0 37 1 68t1 45v29q0 10 8.5 20t4.5 41l-7 47 q-2 14 -3 30.5t-3 20.5q0 8 -2 29.5t-5 45.5t-6 44.5t-5 28.5q-16 35 -49 59.5t-74 41.5t-85 27.5t-83 16.5v6q0 4 18.5 7.5t28.5 3.5h21q49 0 93 -1.5t87 -3.5q88 4 175 1t175 4q2 -2 25 -3q18 -2 36.5 -0.5t36.5 3.5zM383 1352q0 -6 4 -14l4 -9q0 -2 -3 -37t-6 -76.5 t-5 -76.5t2 -35q6 2 17.5 38t22.5 79t19 78.5t8 39.5q0 27 -34 50h-4q-18 -4 -21.5 -15.5t-3.5 -21.5zM1284 555l-12 6q2 6 5 26.5t5 44t3 44t-1 24.5q-4 2 -11 -10t-14.5 -28.5t-13.5 -30t-10 -10.5q8 -14 12 -35t7 -40.5t5.5 -33.5t6.5 -16q2 0 7 15t8 28.5t3 15.5z M1346 465q-4 -33 -5.5 -42t-5.5 -22l25 -61q2 0 2 16t-1 36t-1 34v14q16 31 15 59.5t-5 61.5q-4 0 -12 -16.5t-12 -14.5v-65zM1251 240l-4 -12q-4 -13 -12 -30.5t-16.5 -34t-14.5 -24.5q18 25 35.5 30t30.5 5q4 4 5 8t5 8z" />
<glyph unicode="h" d="M-29 0l459 4l12 14q-4 4 -8 10l-4 5q-6 0 -30.5 4t-30.5 10q-4 2 -16.5 12.5t-25 22.5t-23.5 23.5t-13 15.5q-23 -10 -31 -1t-12 34q-4 45 -7 76.5t-4 56t-1 45.5v43v33q0 20 -3 43q10 0 11.5 -25t11.5 -45l12 -139l17 -9l-4 209l4 230l28 35q2 0 27 3t56.5 6t65.5 6 t52 3q123 0 266.5 -1t272.5 -1q23 0 47 -22.5t24 -51.5v-6q-4 -29 -8 -98.5t-8 -147.5t-8 -147.5t-6 -95.5q-6 -23 -30 -48.5t-50.5 -48t-47 -40t-20.5 -25.5l463 8q-47 25 -78 52.5t-50 61t-29.5 78t-16.5 101.5q12 20 13 37.5t-2 34t-7 33t-4 32.5v227l-16 103l16 123 l20 133q0 53 -2 104t3.5 98.5t21.5 89.5t51 76q29 16 51 17q33 0 54 20q-23 12 -38.5 14.5t-39.5 2.5q-111 0 -215.5 -10.5t-214.5 -6.5q39 -10 72.5 -21t59 -30.5t43 -51.5t23.5 -83v-176v-187q0 -18 -8 -55t-33 -49q-135 -4 -243.5 -5t-225.5 -1h-159h-133l-31 37v133 q0 98 -1 187t13 184q12 29 44 51t63.5 37.5t57.5 24.5t26 14q-123 0 -244 6t-238 -4q76 -25 110 -85.5t43 -137t5 -160.5t-4 -154v-268q-6 -4 -11 -29t-5 -31q0 -4 8 -21.5t8 -21.5v-22v-31q-4 -18 -7 -69.5t-5 -110t-3 -110.5t-1 -75q-4 -10 -29 -27.5t-55.5 -34.5 t-58.5 -30.5t-36 -13.5z" />
<glyph unicode="i" horiz-adv-x="894" d="M360 193q0 16 -11 25t-11 26q0 229 18.5 456.5t18.5 456.5q0 47 -7.5 94t-25.5 92q-12 16 -32.5 12.5t-41.5 2.5q-4 0 -14 3t-22.5 8t-22.5 8t-12 3q-31 8 -69 11.5t-62 19.5l10 4h63q86 0 168 -3t168 -3h19q12 0 12 2q2 0 24 5l21 5q61 6 126.5 7.5t127.5 1.5 q14 0 30.5 -2.5t26.5 -12.5q-4 0 -6 -2l-2 -2q-4 -2 -25.5 -4t-23.5 -2q-6 -2 -24.5 -6t-40 -8.5t-40 -7.5t-22.5 -3h-10q-10 0 -17.5 4.5t-17.5 4.5h-4q0 -8 -11 -9q-29 -41 -53 -80.5t-28 -87.5q0 -6 -1 -25.5t-3.5 -44t-3.5 -49t-1 -36.5q0 -10 3.5 -31.5t-7.5 -34.5 q-6 -160 -10 -322.5t2 -324.5q-10 -27 -10 -45v-47v-55q2 -4 8 -15.5t10 -15.5q20 -53 79 -89t132 -46h10q10 0 20.5 -1t18.5 -1h15q4 0 13 -4.5t11 -4.5v-2q0 -10 -14 -13t-33 -3q-16 0 -32.5 1t-20.5 1q-35 0 -72 2t-65 2q-16 2 -20.5 7t-14.5 5q-16 0 -26.5 -6t-26.5 -6 q-14 0 -22.5 13.5t-33.5 13.5t-44 -13.5t-60 -13.5q-4 0 -13.5 3t-13.5 3q-76 0 -150.5 -5t-148.5 -5q0 6 38 14.5t88 21.5t99.5 35.5t71.5 59.5q0 4 5 18.5t18 18.5q14 8 22 8q6 1 6 13zM375 135v-8q12 -25 15 -36t11 -38q0 -10 10.5 -9t12.5 1h18q2 0 8 5l5 5 q0 4 -6.5 11.5t-6.5 9.5q0 8 -3 35.5t-3 35.5q-2 6 -4 20.5t-5 31t-6 29t-9 12.5q-4 0 -10.5 -14.5t-12.5 -33t-10 -35t-4 -22.5z" />
<glyph unicode="j" horiz-adv-x="1112" d="M1047 1423q-45 -8 -75 -17t-52.5 -23.5t-42 -37t-43.5 -57.5l-6.5 -32.5t-7.5 -47t-5 -46t-2 -29.5q-2 -2 -2 -29v-45q0 -25 1 -45.5t1 -26.5q-2 -16 -4 -63t-4 -110.5t-5 -134.5t-4 -134.5t-2 -110.5t-1 -63q0 -37 4 -95.5t4 -109.5q0 -16 -1 -31.5t-3 -28.5l-17 -53 q-6 -18 -22.5 -28.5t-32.5 -15.5t-29.5 -6t-15.5 -1q-4 0 -16.5 -1t-26.5 -1h-23q-10 0 -12 2l37 27l4 16q14 63 23.5 99t13.5 54.5t4 22.5t-2 4t-6 8.5t-8 33t-7.5 70.5t-3.5 122v192l-4 25q25 8 25 39q0 41 -23 82q0 4 1 5t1 5q0 12 1 39.5t3.5 58.5t3.5 58.5t1 37.5v216 q-16 23 -22.5 53t-22.5 53q-47 47 -108.5 69.5t-127.5 30.5l-4 17h223q41 0 77 -5t77 -5q78 0 149.5 7t153.5 7q0 -13 -14 -21zM59 604l97 -18q18 12 20 -8.5t-1 -55.5t-7 -77t2 -74q16 -76 50 -131.5t99 -102.5q43 -43 84 -46t89 -7h32q29 0 58.5 27.5t56.5 111.5 q-2 -14 6 -26.5t8 -34.5q0 -31 -4 -60.5t-13 -52t-26.5 -35t-44.5 -6.5q0 -4 -17 3l-18 7q0 -4 -5 -7l-5 -3q-14 -8 -2 -8h6h-22t-28.5 -1t-23.5 -2l-10 -1q-4 0 -19 1t-34 1q-18 0 -33.5 1t-21.5 1q-2 0 -11.5 3t-19.5 6t-19.5 6t-11.5 3l-9 18q-9 17 -22.5 41.5t-31 53.5 t-33.5 53q-4 0 1 -15l5 -15q-10 -29 6.5 -55.5t22.5 -47.5l-6 6l-14.5 14.5l-15.5 15.5t-11 9q-49 29 -74 89.5t-33 113.5q-2 6 6.5 -7t18.5 -20.5t17 3t5 61.5q-23 0 -41 -11.5t-18 -27.5v-6q0 -4 5 -17.5t5 -17.5q2 -2 8.5 -20.5t13.5 -41t7 -24.5t-4 5t-9.5 15.5 t-11.5 15.5t-10 7q-12 14 -22.5 49t-10.5 57q0 35 -7 53.5t9 47.5q4 4 1 25.5t-3 37.5v17q18 16 12 30.5t-1 18.5q8 6 5 11t-9.5 12.5t-13.5 19.5t-7 31zM782 1288q0 23 -1 51.5t-19 46.5q-10 -18 -18.5 -36.5t-8.5 -42.5q0 -4 8.5 -22.5t8.5 -27.5l3 -2q3 -2 7 -2l6 -8 q14 0 14 17v26zM741 551q2 -47 10.5 -42t10.5 40t-6 87t-37 95q-2 -2 -2 -14v-27q0 -14 8 -27.5t10 -13.5zM53 508l49 -70q6 -2 17.5 2t19.5 52q4 23 -1 24.5t-13 -4.5t-15.5 -15.5t-7.5 -11.5z" />
<glyph unicode="k" horiz-adv-x="1482" d="M262 2q6 0 29.5 9t27.5 9h15q23 0 37 -9t49 -9q20 0 35.5 4t31.5 4h7q51 -12 108 -12q4 0 10 1t6 7v4q-2 0 -4 2l-2 2q-80 18 -127 40t-70.5 57.5t-30.5 92t-7 144.5q0 186 -1 370.5t-1 371.5v10q0 2 -1 11t-3 20.5t-3 21.5t-1 14q0 12 2 33t5 42.5t5 42t2 32.5 q8 25 41 43t68.5 31.5t64.5 23.5t29 21q-57 0 -110.5 -1t-106.5 -1q-10 0 -16.5 3t-16.5 3q-12 0 -25.5 -3t-25.5 -3q-18 0 -36 3t-36 3h-10q-2 0 -12.5 -3t-18.5 -3h-152q0 -6 -4 -14.5t2 -10.5q53 -4 99.5 -16.5t95.5 -40.5l12 -11q4 -4 9 -5l6 -1q8 0 12 18.5t12 22.5h4 q23 0 23 -24q0 -20 -11.5 -34.5t-27.5 -31.5v-31v-51q0 -35 1 -76t1 -77v-50q0 -123 -5 -240.5t-5 -236.5v-69q4 -12 5 -17.5t1 -15.5v-10q0 -4 -2 -21.5t-3 -37t-3 -37t-2 -19.5q-6 -68 -12.5 -112t-25 -73.5t-54 -50t-101.5 -41.5q-2 0 -14.5 -1t-16.5 -5q-14 -4 -16 -9 t-6 -7q20 -4 14 -4l27 12l35 -6q49 2 98 1t96 1zM1026 223l-6 -14v-98q-6 0 -13.5 7t-15.5 17t-13 20.5t-5 16.5q0 18 14 35.5t14 40.5q0 31 -25.5 47t-41.5 37q-78 92 -153.5 191.5t-162.5 185.5q-10 25 -25 42t-15 46q0 10 1 18t5 16l245 285q20 29 42 46.5t44 39.5 q6 6 20.5 21.5t31 33t31 33t20.5 21.5q2 4 12 23.5t14 25.5l5 6h6q6 0 8 -3t10 -3q18 0 32.5 8t27 19.5t22.5 19.5t16 8h13q18 18 51 19h8q0 2 1 4t1 6h-47q-4 0 -12 1t-19 3q-23 -10 -53.5 -11t-44.5 3q-8 -4 -11 -5t-14 -1h-4q-4 0 -19 5t-17 9q-2 0 -11.5 -4t-11.5 -4 h-174v-6q43 -16 73.5 -37t30.5 -68q0 -10 -7 -29.5t-18.5 -39t-22.5 -38t-19 -26.5q0 -4 -8.5 -13t-17.5 -20.5t-17 -19.5l-10 -10q-2 -4 -8.5 -17.5t-6.5 -15.5q-2 -6 -11 -18.5t-11 -14.5q-4 -4 -18.5 -19.5t-32 -34t-32 -33.5t-16.5 -19q-2 -2 -5 -10.5t-5 -8.5 q-4 -4 -14 -16.5t-21.5 -25.5t-21.5 -24.5t-13 -13.5q-4 -4 -7 -11t-7 -9q-4 -6 -14 -18.5t-21.5 -26t-22.5 -26.5t-16 -19q-8 -8 -19 -23.5t-11 -32.5v-18q37 -35 63.5 -71t57.5 -77q29 -29 56.5 -62.5t55.5 -68.5q10 -10 18.5 -13t18.5 -11q10 -20 23.5 -48t27.5 -44 q4 0 18.5 -10.5t18.5 -12.5q20 -16 34.5 -48t39.5 -46h31q10 0 11 -19.5t5 -25.5q16 -23 37.5 -35t44.5 -25q45 -18 81 -31.5t71.5 -20.5t74.5 -11t88 -4q31 0 53.5 7t43.5 13q-4 4 -13 9h-53q-10 0 -21.5 2t-19.5 8q-20 0 -33 6q-33 8 -59.5 27.5t-59.5 35.5q-4 -4 -4 -16 q0 -16 -2 -32.5t-14 -16.5h-6q-2 49 -12.5 82t-40.5 61q-16 16 -33 18t-33 25zM262 53v41q2 14 4 38t4 45.5t3 37.5l1 16l29 33h10q0 -8 1 -31.5t2 -51t2 -52.5t1 -35v-4q0 -12 -10 -29.5t-22 -17.5h-13q-8 0 -12 10zM303 315q0 12 10 13v-29q-10 0 -10 16z" />
<glyph unicode="l" horiz-adv-x="1411" d="M565 4l-41 10q-18 0 -22 -10h-336q-35 -4 -86 -4h-78v4q6 2 24.5 7t40 10.5t41 10.5t27.5 7q41 12 69.5 41t61.5 59q0 4 6.5 22.5t6.5 22.5t9 19.5t9 19.5q16 43 14 82t21 80v4q0 16 -12.5 22.5t-12.5 18.5q0 10 6 17.5t6 13.5v8q0 4 -9 9t-13 5v348q16 59 19 125t3 123 q0 6 -4 34t-8 40q-2 6 -2 18v21q0 33 -4 65.5t-22 51.5q-2 2 -11.5 10t-22 19.5t-23.5 20.5t-17 13q-8 8 -39 15.5t-64.5 12.5t-60.5 10t-27 9q0 8 9.5 9.5t13.5 1.5h24q16 -2 50 -4.5t69 -4.5t64.5 -3t38.5 -1q23 -12 33 -25.5t14 -25.5t5 -19.5t7 -7.5t9 15.5t3 19.5 q0 10 13 27q8 8 29.5 13t48 8t55 4t53.5 1h31q20 0 22 3q2 0 13.5 1t25.5 2t26.5 2t16.5 1q12 0 37 -3l25 -3v-11l-209 -47l-72 -65l-8 -50q0 -10 3 -16t7 -16v-160v-162v-67q0 -53 -1 -130t-2 -152t-3 -136.5t-4 -85.5q-4 -18 -5 -29.5t-1 -30.5q0 -14 3 -49t11 -71.5 t21.5 -66.5t33.5 -34q4 -4 26.5 -2t27.5 2q4 0 22 -2t41 -4t41 -4t23 -2l102 -4h164q92 16 181 70.5t136 130.5q18 29 35.5 59.5t46.5 48.5v-37q-14 -33 -27.5 -71.5t-22.5 -79.5t-15.5 -81t-6.5 -75q-59 12 -111 6t-110 -6zM348 233l-12 -188l37 6l10 246z" />
<glyph unicode="m" horiz-adv-x="1789" d="M1743 0l-25 3q-24 3 -56 5t-64.5 4t-47.5 2h-77q-10 4 -11 19v37q0 20 -4 35.5t-22 15.5h-4q-12 0 -13 -10v-88l-23 -3q-22 -2 -53.5 -5t-64.5 -6t-53 -5h-21q-16 0 -25.5 1t-27.5 9q23 16 48.5 21.5t52 13.5t54 23.5t54.5 52.5q4 -10 3 -19.5t9 -9.5q4 0 11.5 1t7.5 9 q4 49 19 83t15 77q0 4 -1 18.5t-1 18.5q-6 18 -24 19q-4 0 -7 -12.5t-6.5 -27t-6.5 -26.5t-7 -14q-8 72 -15 163t-11.5 186t-5.5 187t3 166q-4 6 -6 23.5t-2 21.5q0 8 -1 35t-3 57.5t-3 58t-1 38.5q4 14 -4 16t-16 2h-13q0 -6 -10 -26.5t-14 -24.5q0 -4 -12 -21l-11 -16 q-29 -72 -50 -143.5t-62 -137.5l-166 -397q-4 -14 -12.5 -41t-18.5 -51.5t-23.5 -40.5t-27.5 -10q-2 -23 -11.5 -67t-22.5 -88t-28.5 -76.5t-29.5 -32.5h-11q-4 25 -13 63.5t-17 60.5q-14 41 -39 79t-25 77l-127 289v35q-6 14 -21.5 50t-31.5 77t-31.5 76.5t-21.5 48.5 q-6 18 -20.5 58t-32 81t-36 72.5t-30.5 31.5q-8 0 -13.5 -8t-7.5 -18.5t-4 -20.5t-4 -14l-41 -496v-37q-6 -88 -9 -151.5t-3 -143.5q0 -115 63.5 -174t157.5 -77v-11q-51 -8 -89 -7t-89 1h-88q-4 0 -18.5 8.5t-18.5 8.5h-6q-16 0 -29.5 -8.5t-27.5 -8.5h-105v17q6 2 19.5 9 t29 15t28.5 15.5t19 11.5q14 8 19.5 15t7.5 15.5t5 18.5t13 24q4 0 13.5 2.5t13.5 2.5q0 4 3 7l3 3q-2 51 3 106.5t14.5 112.5t19.5 111.5t16 103.5q10 125 19.5 254t26.5 252q2 4 5 20.5t7 36t8 36.5t6 24v47v51q-25 74 -76 97.5t-116 27.5l-9 10h46q8 0 31.5 2t50 3t49 3 t28.5 2h6h4q4 -4 16.5 -19.5t16.5 -15.5q2 0 15.5 -6t17.5 -6q6 0 6 -8v-90q8 -10 15.5 -30.5t13.5 -41t15 -35t26 -14.5q0 4 -2 20.5t-2 20.5q-2 4 -6.5 15.5t-7.5 24.5t-6 24.5t-3 15.5q-2 2 -2 12v21q0 12 1 21t1 11q-4 4 -11 16.5t-7 16.5v8v4q0 4 10 19.5t18 15.5h2 l11 -10q8 -160 70.5 -318.5t131.5 -299.5q45 -111 86 -230t97 -223q2 -14 13 -20.5t22 -6.5q4 0 12 2t8 7q8 49 25.5 95t37 90t41 88t37.5 89q8 20 27.5 65.5l43.5 101.5t50.5 118.5t50 120t42 102.5t28.5 65q4 10 12 12.5t15.5 4.5t13.5 5t6 15q0 8 -14.5 16.5t-18.5 12.5 v6q6 10 17.5 13.5t11.5 13.5v4q-4 0 -18.5 16.5t-14.5 20.5q-4 0 0 10l4 10q14 0 22.5 2t18.5 -8q35 -80 34 -198.5t-9 -260.5q4 -6 11 -11t15 -9q4 20 5 18v17v100q0 8 3 33l3 24q0 16 -3 39l-3 23l18 20v41q0 43 -6 76t-17 74l-4 4q0 18 9 20q6 0 21 2t32.5 4.5t32 4.5 t18.5 2q8 0 31.5 -1t49.5 -3.5t49.5 -3.5t31.5 -1v-4l-11 -4q-10 -4 -23 -10t-27.5 -12t-26.5 -9q-16 -4 -27 -4q-14 0 -24 -16q-4 -6 -9.5 -17.5t-10.5 -22.5t-9 -20.5t-4 -11.5v-641q4 -4 7 -25.5t3 -25.5q2 -18 6 -68.5t7 -106.5t6.5 -106.5t3.5 -68.5 q12 -59 28.5 -102.5t42 -70t62.5 -38.5t92 -12v-29zM1391 416q0 -10 2 -25.5t16 -15.5q20 0 30.5 29.5t10.5 52.5q0 12 -2 18t-16 6q-23 0 -32 -22.5t-9 -42.5z" />
<glyph unicode="n" d="M1249 -8q-2 -2 -2 -4q31 -10 47 -2h-10q8 84 -6 137t-33 100l-6 43q0 4 2 16.5t5 26t6 24.5t3 13q0 4 1 25.5t2.5 49.5t2.5 54.5t1 40.5q2 186 6 365.5t16 365.5q14 45 18.5 65.5t9.5 34t18 26.5t46 44q4 4 14.5 6t20.5 3t17.5 3.5t7.5 8.5q0 8 -6.5 9t-10.5 1 q-10 0 -16 -3t-14 -3h-5q-2 0 -9 3t-11 3t-6 -3l-2 -3q-16 -4 -50 -5t-63 -1h-24h-17q-57 0 -111.5 5t-113.5 5q0 -18 13.5 -28.5t31.5 -14.5t37.5 -6t32.5 -6q16 -4 26 -12.5t29 -18.5q2 0 5 -3t7 -3q41 -14 52.5 -58.5t15.5 -89.5v-207q0 -98 -2 -193t-2 -200v-4 q0 -12 1 -39.5t1 -60.5q0 -31 1 -58.5t1 -40.5v-12q0 -10 -4 -27.5t-13 -23.5h-4q-4 4 -11 5l-7 1l-496 576q-2 2 -5 9t-7 9q-2 6 -9 16.5t-14.5 19.5t-14.5 17t-9 11l-205 237q-8 14 -32.5 47t-51.5 67t-50.5 60.5t-27.5 26.5t-19.5 -5t-15.5 -10h-6q-51 0 -108.5 4.5 t-108.5 8.5q2 -10 1 -18.5t-1 -18.5h4q45 0 89 -20.5t79 -45.5q41 -39 63.5 -93t22.5 -114v-4q-12 -113 -14 -226.5t-3 -227t-5 -227t-21 -226.5q0 -4 -3 -14t-7 -15q0 -2 -4 -11t-9 -18t-9.5 -18.5t-4.5 -11.5l1 -11t-1 -16l-6 -2q-6 -2 -8 -4q-29 -8 -51.5 -31.5 t-50.5 -27.5q-10 0 -27.5 -5t-22.5 -5q-12 -18 -16 -20.5t-4 -6.5v-4q33 -6 60.5 0t62.5 4q23 16 37 16q12 0 23.5 -2t24.5 1t27.5 13.5t30.5 35.5h15q0 -10 2 -29t12 -29h82q4 0 12 -1t8 -5h13q12 4 43.5 5t54.5 1h22v4q0 6 -19 16.5t-46 21.5t-51.5 21.5t-36.5 16.5 q-27 16 -38 42t-32 48q-6 6 -12 6q-6 4 -10 21.5t-7.5 42t-4.5 52.5t-1 52v51q0 174 7.5 353.5t11.5 353.5q2 2 6 9t8 7h2l223 -252q0 -2 8.5 -6t12.5 -8q2 0 4 -3l2 -3q2 -4 9 -15.5t15.5 -24.5t15.5 -24.5t9 -13.5l8 -6l15 -10l16 -15q0 -2 8.5 -18t8.5 -18 q14 -20 28.5 -31.5t28.5 -23t26.5 -26t22.5 -38.5q6 -6 17.5 -18.5t24.5 -27t25.5 -27.5t16.5 -17q16 -20 32.5 -46t34 -50.5t37 -43t43.5 -24.5q8 -2 13.5 -11.5t9.5 -21.5t9 -24.5t11 -20.5q23 -29 52.5 -59.5t52.5 -61.5q2 -4 8 -20.5t6 -18.5q16 -29 41 -49t31 -49 q8 -2 15 -4l14 -4h-13zM1169 154l-12 114q0 2 7 -17.5t16.5 -44t17.5 -46.5l8 -21l64 -37l-13 -30q-2 -4 -7 2t-12 15t-14 16.5t-14 5.5zM1219 1378q0 8 4 8q6 -10 11 -19t5 -19v-2q0 -4 -1 -22l-1 -17q-2 2 -5 12t-6 22.5t-5 22.5t-2 14zM274 102l7 35q0 4 -3.5 21.5 t-3.5 25.5t5 9q0 -2 5 -12.5t10 -22.5l5 -13v-41q-2 0 -2 -8q0 -6 1 -14t1 -16v-5zM473 1092q8 0 15.5 -4.5t7.5 -8.5v-55q-2 0 -6.5 10t-7.5 22.5t-4 17.5z" />
<glyph unicode="o" d="M135 330l-10 10q-2 0 -10.5 -6t-12.5 -10h-4q-12 0 -16 13t-5 31.5t-3 36t-8 25.5q0 4 -13.5 13.5t-13.5 13.5q-18 27 -26.5 59.5t-10.5 66t-1 67.5t1 63q0 104 23.5 192t70.5 180q14 27 24.5 44.5t22 31t25.5 25.5t39 31q14 8 20 24t23 29l3 1t7 1q25 10 41 30.5 t43 36.5q76 45 166 71t182 26q47 0 96.5 -4.5t98.5 -12.5q4 0 29.5 -2t29.5 -4l4 -2q4 -2 13 -6q20 -10 45.5 -19.5t31.5 -13.5l8 -1q9 -1 9 -5q12 -6 28.5 -13t32 -14.5t26.5 -12.5t13 -7l148 -143q33 -35 57 -92.5t40.5 -122t26 -128t9.5 -106.5q0 -86 -22.5 -163 t-41.5 -156q-29 -29 -43 -67t-41 -71q-229 -266 -598 -266q-59 0 -132 13.5t-143.5 41t-130 68.5t-89.5 94q-6 8 -11.5 6t-13.5 4q-23 14 -30 45t-7 54zM641 45q8 -2 26.5 -4t39 -3t38 -2t23.5 -1q41 -4 93 12t85 37q16 10 28.5 22.5t29.5 20.5q35 31 67.5 66.5t63.5 72.5 q8 10 10 35t18 29l11 -6h4h2l2 3q2 3 6 3q-2 2 -2 18q0 20 2 43t2 33q4 2 7 13.5t7 15.5q4 47 20.5 109.5t16.5 117.5q0 111 -26.5 220.5t-73.5 209.5q-16 29 -26.5 45t-20.5 45q-6 2 -16.5 11.5t-22 20.5t-20.5 21.5t-11 16.5q-4 0 -14.5 14t-10.5 19q-4 0 -8 3l-4 3 q-74 47 -142.5 73.5t-160.5 26.5h-49q-2 -2 -12.5 -5t-22.5 -7l-22.5 -7.5t-12.5 -3.5q-16 -6 -30 -6q-18 0 -27 -8q-23 -12 -37 -27.5t-41 -25.5q-72 -59 -124 -140t-70 -173q0 -4 -5.5 -22.5t-5.5 -22.5q-12 -43 -20 -86.5t-8 -88.5q0 -55 7 -127.5t21 -132.5 q6 -20 18.5 -54t16.5 -62q4 -6 13.5 -25.5t19.5 -41t19.5 -41t11.5 -26.5q2 0 4 -8l2 -8q6 -4 6 -12l104 -111q4 0 33 -18.5t45 -28.5q29 -14 61.5 -24.5t61.5 -20.5zM225 281v10q-2 4 0 19l2 16l-32 86q-2 4 -1 -17.5t2 -50.5t2 -54l1 -26q14 0 20 2.5t6 14.5zM1243 434 v-24q0 -20 4 -46t17 -26h4l6 2v4v2q0 4 5 16.5t5 14.5l-16 69q-4 10 -6 11v2q0 2 -5 2q-10 0 -12 -9.5t-2 -17.5zM1325 569q0 -4 2 -14t5 -22.5t6 -21.5t8 -9q6 0 9 10t5 22.5t3 24.5t1 16q0 6 -7 16.5t-11 12.5q-14 2 -17.5 -13.5t-3.5 -21.5zM61 764v-10q0 -6 5 -11 q4 4 20 19.5t16 19.5q0 2 2 20.5t4.5 41t4.5 41t2 22.5q-6 0 -15.5 -20.5t-17.5 -47t-14.5 -49t-6.5 -26.5zM1323 895l25 -119q0 -37 34 -37q0 8 -10 37t-21.5 57.5t-20.5 49t-7 12.5z" />
<glyph unicode="p" horiz-adv-x="1175" d="M10 18q-10 -10 -10 -18q78 0 149.5 6t149.5 6q41 0 77 -5t77 -5h223l-4 16q-66 8 -127.5 31t-108.5 70q-16 23 -22 53.5t-23 52.5v109v106q0 8 1 36t3 58.5t3 59.5t1 41q2 20 13.5 30.5t28 14.5t35 3t36.5 -1l76 4q88 0 156.5 17.5t115.5 40t77 45t42 32.5q2 2 13.5 11.5 t25.5 19.5t29.5 22.5t25.5 20.5q0 4 6 14.5t13.5 21.5t13.5 20.5t8 11.5q16 29 22.5 73.5t6.5 79.5q0 23 -10.5 57.5t-22.5 49.5q-4 0 -10 7t-11.5 15t-9.5 15.5t-4 5.5t7.5 -24.5t13.5 -41t8 -20.5q0 -2 1 -11.5t3 -18.5t3 -16.5t1 -5.5l2 11q2 8 1 1t-6 -18.5t-13.5 -23 t-20.5 -11.5t-5 13.5t3 23.5q-4 27 -7 58.5t-11 61.5t-21.5 55.5t-38.5 39.5q-6 4 -23 15l-18 10q6 -20 19.5 -36.5t3.5 -45.5l5 -16q5 -15 1 -15q-6 4 -15.5 28t-20.5 50.5t-27.5 48t-38.5 21.5q-4 0 -14.5 1t-21.5 2t-21.5 3t-12.5 4q-6 0 -20.5 4t-31 8t-30.5 8.5 t-18 4.5q-2 0 -15.5 1t-33 3t-29.5 2q-4 0 -16.5 1t-29 2t-30.5 -1t-20 -8l-5 -4q-6 -3 -6 -7l-17 7q-17 8 -17 4l-8 -4l-18 -10t-16.5 -9t-7.5 -6q20 -6 69.5 -3t88.5 3q27 0 43 -6q47 -16 103.5 -33.5t105.5 -60.5q66 -47 82 -114t16 -142q0 -82 -46 -144.5t-117.5 -105.5 t-158.5 -64.5t-169 -21.5q-8 0 -27.5 4t-23.5 16l-9 58v192q0 47 -1 101.5t-1 109.5t4.5 110.5t16.5 104.5v4l37 27q-2 2 -13 2h-24q-12 0 -24.5 -1t-16.5 -1q-2 0 -16.5 -6.5t-32 -16.5t-30.5 -24.5t-13 -28.5l-33 76q-18 -10 -57 -9t-79 5t-73 7t-41 -3v-21l123 -30 q-4 0 14.5 -3.5t44 -14.5t48 -32.5t26.5 -60.5q-8 -51 -1 -103.5t7 -103.5q0 -16 -1 -63t-4 -110.5t-5 -134.5t-5 -134.5t-4 -110.5t-1 -63q0 -6 1 -27.5t1 -46.5v-45q0 -25 -2 -27q0 -6 -2 -28.5t-5.5 -47t-7.5 -48t-6 -31.5q-25 -35 -44 -57.5t-42.5 -37t-53.5 -24 t-73 -17.5zM274 154v24q0 18 15 19l6 -9q4 0 7 -2l3 -2v-14q0 -10 1 -21.5t1 -21.5v-12q0 -25 -1 -33t-11 -27q-18 18 -19.5 47t-1.5 52zM956 936l37 -64q2 -2 -6 -1t-20.5 -1t-28.5 -11t-33 -30q2 2 11.5 18.5t18.5 36t16 36t5 16.5zM315 891l43 -98q2 0 -8 -13.5 t-10 -27.5v-27q0 -12 -2 -14q-2 0 -7 27.5t-9.5 61.5t-6.5 62.5t0 28.5z" />
<glyph unicode="q" horiz-adv-x="1499" d="M1427 47q-47 47 -107 73.5t-114 61.5q43 37 84 84q27 33 41.5 71t42.5 66q18 80 41 157t23 163q0 43 -9.5 106.5t-26 128t-41 122t-56.5 91.5l-148 144q-2 2 -13 7t-26.5 12t-32 14.5t-28.5 13.5q0 4 -9 5l-8 1q-6 4 -31.5 13.5t-45.5 19.5q-8 4 -13 6l-4 2q-4 2 -29.5 4 t-29.5 2q-49 8 -98.5 12.5t-96.5 4.5q-92 0 -182 -26t-166 -71q-27 -16 -43 -36.5t-41 -30.5q-4 0 -7 -1l-3 -1q-16 -12 -22.5 -28.5t-20.5 -25.5q-25 -18 -39 -30.5t-25.5 -25.5t-21.5 -30.5t-25 -44.5q-47 -92 -70.5 -180t-23.5 -192q0 -29 -1 -63t1 -67.5t10 -66.5 t27 -59q0 -4 13.5 -13.5t13.5 -13.5q6 -8 8 -25.5t3 -36t5 -32t16 -13.5h4q4 4 12.5 10.5t10.5 6.5l10 -10q0 -23 7.5 -53.5t29.5 -45.5q8 -6 13 -4t12 -6q31 -53 90 -94t129.5 -68.5t143.5 -41t132 -13.5q231 0 408 104q10 -8 19 -15t20 -15q76 -27 131 -74h37h20h21h84 q8 6 6.5 20.5t-11.5 26.5zM940 236q25 -20 49.5 -41t48.5 -41q-10 -8 -18 -15.5t-16 -15.5q-16 -8 -28.5 -20.5t-29.5 -22.5q-33 -20 -85 -36.5t-93 -12.5q-6 0 -23.5 1t-38 2t-39 3t-26.5 4q-29 10 -61.5 20.5t-61.5 24.5q-8 6 -20.5 13t-24.5 15.5t-21.5 13.5t-11.5 5 l-104 111q0 8 -6 12l-2 8t-4 8q-2 6 -11.5 25.5t-19.5 41t-19.5 41t-13.5 26.5q-4 29 -16.5 62.5t-18.5 53.5q-14 59 -21 132t-7 128q0 45 8 88t20 86q0 4 5.5 22.5t5.5 22.5q18 92 70 173t124 141q27 10 41 25.5t37 27.5q8 8 27 8q14 0 30 6q2 0 12.5 3.5l22.5 7.5t22.5 7 t12.5 5h49q92 0 160.5 -26.5t142.5 -73.5l4 -3q4 -4 8 -4q0 -4 10.5 -18t14.5 -14q2 -6 11 -16.5t20.5 -21.5t21.5 -20.5t17 -11.5q10 -29 20 -45t27 -45q47 -100 73.5 -210t26.5 -220q0 -55 -16.5 -117.5t-20.5 -109.5q-4 -4 -7 -15.5t-7 -13.5q0 -10 -2 -32.5t-2 -43.5 q0 -16 2 -18q-4 0 -6 -4l-2 -3h-6l-11 7q-8 -2 -12 -10.5t-6 -18.5t-4 -19.5t-6 -15.5q-2 -2 -2 -4h-3q-4 4 -6 8t-6 8q-29 -18 -49 9q-2 2 -4 5t-6 7q-20 0 -35 20q-4 4 -7 8.5t-5 6.5q-23 27 -31 61q-18 18 -23 21q-23 16 -43 3.5t-20 -38.5v-2q-2 0 -2 -2 q-6 -10 -10 -19.5t2 -19.5q4 -53 45 -86q4 -10 10 -12zM1374 813q0 -2 1 -3t1 -3q8 -14 2 -23q2 0 2 -4v-18q0 -4 -1 -5t-1 -3q2 -10 3 -15.5t1 -3.5q-20 0 -28 8q0 2 -2 2q-4 0 -9 5q0 2 -1 3l-1 1q-2 2 -2 4v4q-4 4 -4 14t2 12q-4 12 -2 15l-4 12q-4 16 -17.5 23.5 t-8.5 25.5q-6 10 1 17.5t17 5.5v4q-2 4 -1 2l3 -6q16 -4 18 -15q4 -4 5 -10q23 -18 24 -45q0 -4 2 -4zM1139 131q-16 12 -4 28.5t28 4.5q12 -6 20.5 -16.5t20.5 -18.5h6q23 0 23 -20t-23 -21q-23 0 -39 14.5t-32 28.5zM61 760q0 4 6.5 26.5t14.5 49t17.5 47t15.5 20.5 q0 -4 -2 -22.5t-4.5 -41t-4.5 -41t-2 -20.5q0 -4 -16 -19.5t-20 -19.5q-4 4 -5 11v10zM1243 430q0 8 2 17.5t12 9.5q4 0 5 -2v-2q2 0 6 -11l16 -69q0 -2 -5 -14.5t-5 -16.5v-6l-6 -2h-4q-12 0 -16.5 25.5t-4.5 46.5v24zM225 276q0 -12 -6 -14t-20 -2l-1 26q-1 25 -2 54 t-2 50.5t1 17.5l32 -86l-2 -16q-2 -15 0 -19v-11zM1325 565q0 6 3 21.5t18 13.5q4 -2 11 -12t7 -17q0 -4 -1 -16t-3 -24.5t-5 -22.5t-9 -10q-4 0 -7.5 9t-6.5 21.5t-5 22.5t-2 14zM139 537q0 -23 -20 -23t-21 23q0 23 21 22q20 1 20 -22zM1255 1155q0 -23 -20 -22 q-20 0 -21 22q0 23 21 23q20 0 20 -23zM1001 266q0 -23 -20 -22q-20 0 -20 22q0 23 20 23t20 -23z" />
<glyph unicode="r" horiz-adv-x="1288" d="M16 23q-14 -8 -14 -21q82 0 153.5 7t149.5 7q41 0 77 -5t77 -5q55 0 109.5 5t109.5 5v7q-66 8 -127.5 30.5t-108.5 69.5q-16 23 -22 53.5t-23 52.5v109v106q0 8 1 36t3 58.5t3.5 59.5t1.5 41q2 20 13 30.5t28.5 14.5t36 3t36.5 -1q102 0 158.5 -34t94.5 -86t72 -116.5 t91 -125.5q35 -43 75 -83t81 -83q12 -12 24 -29.5t27.5 -33t35 -26t46.5 -10.5q20 0 20 21q0 12 -10 26.5t-21.5 31t-21.5 36t-10 41.5q0 16 6 25.5t6 25.5q-6 8 -22.5 28.5t-35 42t-34 41t-21.5 28.5q-4 0 -11 8l-7 8q-4 4 -22.5 11t-18.5 11q-2 0 -14.5 21.5t-29.5 54.5 t-37.5 72t-38 72.5t-29 57t-11.5 28.5q0 18 14.5 30.5t34 19.5t40 14t32.5 17q2 2 14.5 13.5t27.5 25t30.5 27.5t25.5 23q0 4 5.5 11t12.5 14t13 13.5t8 8.5q16 29 22.5 73.5t6.5 79.5q0 23 -8 48.5t-21 39.5q-8 0 -10 12.5t-2 8.5t1 -25l1 -20q0 -4 5 -17.5t5 -17.5v-6 q0 -16 -8 -33.5t-31 -17.5q-14 0 -20 9t-10 19q-4 27 -3 59.5t-1.5 64.5t-11.5 58.5t-34 40.5q-6 4 -23 15l-17 10q6 -20 19 -36.5t3 -45.5l-3 -2t-7 -2q-6 4 -12.5 23.5t-15.5 41t-23.5 39t-34.5 17.5q-4 0 -14.5 1t-21.5 2t-21.5 3t-12.5 4q-6 0 -20.5 4t-30.5 8.5 t-30.5 8.5t-18.5 4h-84h-90l-5 -3q-6 -3 -6 -8l-17 7q-17 8 -17 4l2 -6q2 -5 2 -9q29 -8 74 -9t73 -11q47 -16 105.5 -45t103.5 -49q35 -59 66.5 -120t31.5 -136q0 -80 -47 -142.5t-118.5 -105.5t-158.5 -65.5t-167 -22.5q-8 0 -27.5 4t-23.5 16l-8 58v192q0 47 -1.5 101.5 t-1.5 109.5t4.5 110.5t16.5 104.5v4q-4 4 -21.5 7t-27.5 3q-4 0 -19.5 -3t-19.5 -7h-29q8 -55 14.5 -105t2.5 -104l-5 -14h-4q-8 0 -13 20.5t-9 44t-6 43.5l-2 21q-8 -51 -18.5 -123t-10.5 -123v-63q0 -45 -1 -110.5t-2 -135.5t-2 -135.5t-1 -110.5v-63q0 -6 1 -27.5 t1 -46.5v-45q0 -25 -2 -27q0 -6 -2 -28.5t-5 -47t-7.5 -48t-6.5 -31.5q-25 -35 -44 -57.5t-42.5 -37t-53.5 -23.5t-73 -17zM281 158v24q0 18 14 19l6 -8q4 0 7 -3l3 -2v-45v-45q0 -12 -10 -39q-18 18 -19 47t-1 52zM311 279q4 0 4 -5q0 -4 -4 -8q-4 0 -4 6q0 7 4 7zM1270 8 l-4 -6q4 0 11 -4t11 4q10 27 16.5 30t9.5 -4.5l7 -17.5t10 -10q10 10 23 10q20 0 50 -10t60 -10q-6 6 -10 19.5t4 13.5q-10 12 -20.5 14t-26.5 20q-12 12 -29.5 22.5t-35.5 29.5h-7q-6 2 -18 21.5t-25.5 38.5t-24.5 29.5t-16 -3.5q8 -59 19.5 -83t3.5 -46q10 -38 -8 -58z M1501 10q18 -2 32.5 -8t31.5 -18q10 -10 0.5 -11.5t-25.5 -1.5q-10 0 -16 2q-23 4 -25 15.5t2 21.5zM274 1409h5q-59 20 -118 18t-118 -18q6 -4 6 -8t-2 -9.5t-2 -9.5q0 -2 4 -2q41 0 63.5 -4t36 -10t23.5 -14.5t27 -16.5l53 -69q2 25 6 52.5t7 51t6 35.5t3 4z" />
<glyph unicode="s" horiz-adv-x="1019" d="M924 1391l-47 4q-8 -14 -33 -15l-10 6q-53 10 -105.5 24.5t-110.5 14.5q-45 0 -96 -7t-100 -22.5t-91 -40t-71 -59.5q-12 -20 -22.5 -23t-10.5 -26q0 -2 1 -19.5t1 -37.5t1 -37.5t1 -19.5q0 -41 -7 -72t-3 -72q0 -4 1 -18.5t-3 -14.5q-10 0 -15 27t-9 43q-2 16 -3.5 29.5 t-1.5 25.5q0 41 5.5 76t5.5 84l-19 -2l-10 -19q-10 -18 -14 -30q-8 -12 -16.5 -41t-8.5 -39l-3 -28q-3 -27 -3 -44q0 -6 3 -30.5t3 -32.5q18 -31 23.5 -64.5t29.5 -62.5q43 -51 100.5 -92t120 -78t126 -70t118.5 -67q25 -10 44.5 -21.5t29.5 -34.5q41 -29 63.5 -91 t22.5 -132q0 -23 -27 -24q-25 -111 -108.5 -162t-202.5 -51q-68 0 -114 16t-82.5 42t-67.5 57.5t-68 62.5q0 -8 -4 -26.5t-8 -22.5q0 -2 1 -12.5t1 -22.5t1 -22.5t1 -12.5h-6q-12 0 -16.5 22.5t-6.5 53t-3 60.5t-7 42q-6 10 -16 28.5t-20.5 39t-20.5 40t-17 31.5l-12 11v-25 v-31l6 -11q6 -11 6 -15l7.5 -45t10.5 -68t10 -67.5l7 -45.5q4 -10 16.5 -16t22.5 -10q20 -10 38 -24.5t42 -18.5q143 -39 283 -39q43 0 107.5 12t129 35t117.5 53.5t76 67.5q16 25 33.5 48.5t32 48t23.5 51t9 59.5q0 102 -47 171.5t-120 123t-158 95.5t-162.5 87t-136 101.5 t-74.5 135.5q-4 18 -9.5 35t-5.5 35q0 57 31 103.5t78 78t105.5 46t111.5 8.5q2 0 17.5 -2.5t35 -6.5t40 -8t32.5 -8q41 -6 58.5 -33.5t41.5 -62.5q14 -18 19.5 -48t10.5 -59.5t11 -54.5t23 -33l10 10q0 4 4 35t8 45q0 6 -1 30t-1 48v49q0 29 2 31q0 29 5.5 38.5t9.5 29.5z " />
<glyph unicode="t" d="M1335 1407q-59 -14 -133 -8t-143 6l-105 14l-114 -16q-35 -10 -66 -5t-63 5h-181q-25 12 -74.5 8t-99.5 -4l-200 -6l-119 31v-13q0 -8 -1 -19t-1 -22v-12q0 -59 -14.5 -117.5t-14.5 -113.5q0 -10 1 -19.5t11 -17.5q29 86 92.5 150.5t161.5 82.5q16 0 56.5 2t84.5 3t84 3 t56 2h29q74 0 73 -69v-64q0 -16 -1 -32.5t-3 -32.5q-8 -113 -10 -236t-2 -239v-174q10 -4 10 -19q0 -16 -10 -31.5t-10 -33.5t5 -36t5 -40q0 -23 -11.5 -60.5t-15.5 -58.5q-16 -53 -36.5 -88t-50 -56.5t-72.5 -32.5t-105 -20q4 -4 16.5 -10t20.5 -8q4 0 21.5 4t21.5 4h629 l7 3t7 7v5v4q-6 0 -22.5 3t-37 8t-38 9t-25.5 6q-53 12 -80.5 39t-42 61.5t-19.5 75.5t-11 82q0 2 -1 19.5t-1 40.5q0 25 -1 49t-1 39v6v4q0 8 1 28.5t1 43.5q0 25 1 45t1 26v729q82 0 170 4.5t170 -7t149.5 -46.5t106.5 -112q6 -20 21 -46l15 -26h13q0 45 -6.5 88t-6.5 90 v55l7 15q6 16 6 20q0 2 -2 16.5t-5 32t-3 19.5l-25 -10q-25 -11 -45.5 -18t-24.5 -9zM639 193l16 8v145q16 23 17.5 45.5t21.5 42.5l8 -10v-154q0 -4 -4 -14t-4 -14v-4q0 -35 10.5 -74t10.5 -78q0 -14 -3 -18.5t-26 -4.5q-6 0 -26.5 4.5t-20.5 18.5v107z" />
<glyph unicode="u" horiz-adv-x="1499" d="M102 1415l-102 -6v-8q0 -12 2 -12h12q12 0 28.5 -1.5t20.5 -1.5q23 0 20 -2t-3 -6h14q12 0 38 -10t36 -10q12 0 12 -6q0 -2 1 -8.5t3 -16.5q2 -12 4 -35.5t4.5 -47t3.5 -42t1 -20.5v-488q-4 -37 -3 -64.5t1 -62.5q0 -59 2 -118.5t12 -117t32.5 -109.5t65.5 -95 q6 -4 14.5 -15.5t19.5 -23.5t24.5 -21.5t29.5 -9.5q2 0 7.5 1t5.5 10l22 82l4 4l6 8q12 0 14.5 -18.5t1.5 -43t0 -47t13 -30.5q63 -29 141 -35t150 -6q39 0 100.5 7t120.5 25.5t102 52t43 87.5h-14q-109 -109 -262 -109q-51 0 -107.5 5t-112 21.5t-103.5 45t-83 76.5 q-23 27 -40 60.5t-29 61.5q-4 14 -9.5 36t-10.5 41.5t-9 33.5l-4 14v801q-16 18 -18 52t-2 61q0 6 3 18l3 12l4 9l16 -23q-20 -45 6 -94q29 35 59.5 63.5t75.5 44.5q6 2 20.5 1t29 0t24.5 6.5t10 17.5h-321q-6 0 -16 -4l-11 -4h-8h-8q-23 4 -25 6t-12 2h-18zM1194 1415 q0 -43 9 -84t19.5 -83t19.5 -85t9 -88v-526q0 -47 -10 -110.5t-27 -110.5q-12 -37 -28.5 -78t-26.5 -80q10 0 22.5 6t16.5 17q35 61 53.5 125.5t26.5 130t9 134t1 138.5v45v74q0 41 1 75.5t3 40.5q4 72 5 138.5t14.5 125t47.5 106.5t105 83q-8 0 -31.5 5t-25.5 5h-4h-6 q-6 0 -21.5 -2t-33 -3t-32 -3t-18.5 -2v-160q0 -8 -12 -8h-2h-4q-4 41 -7 82t-7 82q0 4 -9 4h-12q-4 0 -22.5 3t-22.5 3zM301 254l-4 -27l-4 -2q8 0 18.5 -19.5t10.5 -23.5t-3.5 0t-7.5 9.5t-7 9.5t-3 2q-23 8 -17.5 27.5t17.5 23.5zM231 399q4 31 0 60.5t-10 58.5t-12 59.5 t-6 63.5h22q8 -37 16.5 -77t24.5 -77q2 -12 13.5 -53t21.5 -72v-4v-4q0 -6 -2 -9l-2 -3q-12 0 -25 12q-4 4 -19.5 20.5t-21.5 24.5zM285 1186l-29 178l45 -6q2 0 4 -25.5t2 -40.5l-2 -12t-2 -20q0 -29 1 -43.5t-3 -49.5zM969 1409q4 -4 13 -10t15 -6q2 -2 15.5 -3t30 -2.5 t30.5 -2.5t17 -1q8 -2 19 -10t23.5 -16t24.5 -15.5t21 -7.5v15q0 18 -4.5 40.5t-12.5 22.5z" />
<glyph unicode="v" horiz-adv-x="1449" d="M528 358q20 -20 25 -51q2 -14 4 -27.5t6 -29.5q16 -41 23.5 -70.5t25.5 -64.5l15 -23l6 -57q0 -10 8 -24.5t18 -14.5q8 0 22.5 2t30 5t28 7t16.5 10q12 37 32.5 86.5t42 100.5t40 99t28.5 85q2 4 8 18.5t8 20.5l5 10q6 11 11 22t8 21.5t3 12.5q2 0 5 16t1 20q2 4 6 10.5 t4 10.5q6 8 14 31l7 22q8 20 9 35.5t0 29t0 27t9 31.5q4 16 13.5 28.5t13.5 28.5q16 53 43 98.5t45 98.5q14 37 22.5 74t30.5 71l21 54l28 43q-4 29 13.5 45t27.5 37l15 28q0 2 4 6.5t4 8.5q2 0 12 6t21.5 14t23 16.5t17.5 12.5q10 10 28.5 14t34.5 14l15 11q-4 2 -8.5 4 t-6.5 2l-110 -6q-6 0 -8.5 -7.5t-5.5 -14.5l-6 -14t-9 -7q-4 4 -9 -6.5t-7 -8.5q-8 -8 -12.5 -2t-4.5 -4h-8q-6 0 -6 6q0 12 4 29.5t4 28.5l-29 -23l-20 -82q0 -2 4 -15t7 -30l3 -16h-2h-4l-3 8q-3 8 -6 19.5t-6 21.5t-3 12q-4 10 -9.5 27.5t-5.5 30.5q-2 0 2 7t9.5 16 t8.5 16.5t-3 7.5h-205l-1 -2q-1 -2 -1 -4v-5v-2l2 -4q43 -8 69.5 -12t44 -9t28.5 -13.5t26 -26.5q4 0 8 -19.5t8 -23.5q8 -20 3 -32.5t-7 -29.5l-4 -34q-4 -12 -13.5 -35t-18.5 -48.5t-18 -49t-14 -35.5q0 -4 -8 -21.5t-17 -39t-16.5 -39t-7.5 -21.5q-33 -98 -56.5 -184 t-55.5 -179q-12 -39 -25.5 -78.5t-42.5 -80.5q0 -2 -9 -25t-22.5 -56.5t-30 -73.5t-29.5 -74t-23 -57l-9 -22q-8 0 -17 25t-18.5 61.5t-19.5 79.5t-19.5 80t-17.5 61.5t-14 24.5q4 -47 15 -94t15 -94l11 -92q2 -10 12 -24.5t4 -14.5q-4 0 -14 10t-13 14l-61 219 q-18 33 -17 51.5t9 31t17 22.5t7 29q-2 25 -18 67.5t-23 67.5q-2 4 -13 18t-23.5 31.5t-22.5 32t-10 18.5q-25 66 -44.5 134.5t-43.5 133.5q-10 29 -24.5 63t-30 68.5t-27.5 68.5t-19 65v10q0 12 5.5 52t15.5 67q4 12 9 13t8 -4t6 -12l3 -6l7 -8l8 8q25 10 46 17.5t46 15.5 l10 10v2v5q0 2 -1 4l-1 2h-43q-45 0 -89 -5.5t-93 -5.5h-21h-90q-4 4 -20.5 8.5t-24.5 4.5t-17 -7.5t-16 -7.5h-6q-4 2 -14 7.5t-12 5.5h-2q-4 0 -11.5 -4.5t-7.5 -8.5q0 -16 15.5 -15t25.5 -5l19 -12q10 -6 14 -4t6 -9q2 0 16.5 -11t24.5 -20.5t12 -11.5l35 -84 q4 -8 25.5 -62t52.5 -133t65.5 -169t65.5 -170t54.5 -139.5t29.5 -73.5q4 -10 8 -9t8.5 2t9.5 -4.5t11 -29.5q0 -6 3 -20.5t7 -31t7 -32t3 -21.5zM211 1378q0 8 12 8q10 0 19.5 -17t9.5 -23t3 -32t3 -42q0 -12 -2 -12q-4 0 -11 16t-14.5 36.5t-13.5 40t-6 25.5z" />
<glyph unicode="w" horiz-adv-x="1789" d="M393 377q0 6 -1 21.5t-3 33t-3 31.5t-1 20q-4 25 -9 31t-9.5 5t-8.5 -2t-6 9q-8 27 -28.5 112t-51.5 257q-4 27 -2 48.5t5.5 41t3.5 39.5q0 23 -9 49q-6 16 -13 41t-14 49.5t-13.5 47t-8.5 32.5q-6 20 -13 37.5t-11 34.5q-6 18 -15.5 27.5t-19.5 13.5t-21 4h-10h-41l-1 3 t-5 3q-2 10 -8 20.5t-17 10.5h-12q-10 0 -25.5 2t-15.5 18q0 4 7 8.5t12 4.5h2q2 0 12 -5.5t14 -7.5h6q6 0 13.5 3t15.5 3q12 0 23 -6l116 2h21q49 0 93 5.5t89 5.5h43l1 -2q1 -3 1 -5v-4v-2l-10 -10q-25 -8 -46.5 -15.5t-45.5 -17.5l-8 -8l-7 8l-3 6q-3 6 -6 11.5t-8 4.5 t-9 -14q-8 -16 -15.5 -22t-11.5 -17q-2 -4 -2 -16t2 -25.5t4 -24.5t2 -13l17 -82q6 -31 9 -45.5t7 -30.5t10 -41t17 -74q8 -35 13 -61.5t9 -52t10.5 -53t14.5 -60.5q0 -4 5 -23.5t11 -42t12.5 -42t8.5 -23.5q2 -12 8 -29.5t13 -36t12.5 -37t5.5 -30.5q0 -35 -10.5 -73 t-8.5 -75l14 -162v-10t1.5 -17t2.5 -16.5t3 -7.5q6 0 5 33t5 92q4 47 0 89t-4 89q10 0 14 -11t7 -24.5t8.5 -24.5t17.5 -11l4 1q4 1 4 5q27 35 39 84t22 88q31 94 66 181t66 185q0 4 4 19.5t10 33t10 33t4 19.5q4 12 14.5 39.5t22.5 58.5t22.5 58.5t14.5 40.5v12 q0 18 -3 24.5t-11 26.5q-4 4 -9.5 17.5t-9.5 13.5q-20 27 -37.5 42t-37 25.5t-41 17.5t-50.5 17l-2 4v2v4q0 2 1 5l1 2h207q10 0 13.5 -18.5t7.5 -20.5q0 -6 3 -23.5t6 -37t6 -36t5 -22.5q0 -4 1 -6l1 -2h4h2q2 0 4 4l2 4l-2 162l9 -21q2 -12 5 -29.5t15 -17.5h8 q0 10 1 34.5t10 33.5l3 -8q3 -7 6 -15t7 -15t6 -10q6 0 9 7.5t6 14.5t5.5 14.5t8.5 7.5l110 6q2 0 6.5 -2t8.5 -4v-5q0 -12 -10.5 -17t-23.5 -7t-26.5 -4t-17.5 -6q-6 -4 -17.5 -12.5t-22.5 -16.5t-21.5 -14.5t-12.5 -6.5q0 -4 -4 -8t-4 -6v-22q0 -23 1 -38.5t5 -43.5 q47 -147 89 -304t77 -305q12 -27 14 -53t8 -55l13 -8q0 -4 5 -24.5t9 -31.5v-2q0 -35 -5 -66.5t-22 -60.5q0 -4 -1 -8l-1 -4v-135l2 -6h3h4l6 6q0 4 3 15.5t8 24.5t9 24.5t6 15.5q0 4 1 24.5t1 22.5q6 33 33 65.5t37 67.5q23 63 40 132t34 130q4 16 13 27.5t13 27.5 q10 37 18.5 71t22.5 69q27 109 55.5 205t28.5 204v51q0 4 -3 16.5t-9 14.5q-39 8 -79 17.5t-75 21.5v4q0 10 9.5 14.5t19.5 4.5h12q8 -4 34 -5t44 -1h21q6 -6 20 -7q14 0 21 7h28q10 0 14.5 -5.5t14.5 -15.5q0 -2 18.5 -18.5t32.5 -16.5q8 2 8 17q0 10 -1 17t-1 11v4 q0 2 1 5l1 4h103q0 8 14 8q0 4 4 0l4 -4v-4q0 -6 -9 -10.5t-19.5 -6.5t-20.5 -4t-12 -4q-10 -6 -26.5 -19.5t-32 -29t-28.5 -31.5t-20 -29q-18 -29 -28.5 -75.5t-18.5 -81.5q-16 -51 -30.5 -103.5t-30.5 -103.5q-4 -4 -11.5 -25.5t-9.5 -25.5q-6 -10 -16 -38t-12 -38 q-20 -74 -43 -144.5t-45 -136.5q0 -4 -1 -9l-1 -5q-16 -25 -18.5 -42t-8.5 -44q-4 -12 -9 -32.5t-11.5 -43t-12.5 -41t-12 -26.5q-4 -8 -14.5 -11.5t-14.5 -11.5q0 -2 -3 -22.5t-7 -49t-10 -61.5t-13.5 -61.5t-14.5 -47t-15 -18.5q-4 0 -13.5 27.5t-18.5 62.5t-16.5 66.5 t-7.5 42.5q-4 4 -2 16t2 14q-4 4 -10 19.5t-8 17.5q-10 31 -14 71t-9 73q-8 33 -22 50t-21 46q-10 31 -13 57.5t-7 59.5q-8 41 -26.5 84t-32.5 81q0 4 -1 13.5t-1 11.5q-4 16 -16.5 67.5t-28 106.5t-32 98t-28.5 43h-6q-25 -33 -32 -72.5t-21 -76.5q-16 -53 -30.5 -105.5 t-31.5 -105.5q-2 -14 -10 -26.5t-12 -28.5q-14 -37 -24.5 -78t-22.5 -82l-6 -6q-5 -6 -9 -10q0 -4 -4 -12.5t-4 -12.5q0 -2 -2 -19.5t-4 -19.5q0 -2 -4 -11t-8 -20.5t-8.5 -20.5t-6.5 -11q-2 -4 -7 -20.5t-7 -18.5q-20 -76 -39.5 -153t-50.5 -148q-4 -6 -5 -17.5t-2 -24 t-3 -20.5t-11 -8q-10 0 -16 17.5t-6 27.5v57l-12 25q-14 35 -19.5 65.5t-15.5 73.5q-2 16 -3 29.5t-1 28.5q-1 33 -21 53zM1184 135v-31h10q0 4 1 17.5t-9 13.5h-2zM256 1362q18 4 22.5 2t4.5 2q0 2 -8.5 6t-19.5 6t-22.5 4t-17.5 2q-8 0 -8 -12z" />
<glyph unicode="x" horiz-adv-x="1468" d="M238 115q2 2 2 22v21q0 18 2 22q20 14 18 39q2 4 4 7t4 7q27 31 55.5 67t59.5 73q31 6 43 35q8 4 15.5 13t9.5 17q6 16 18 28.5t24.5 25t21.5 26.5t9 33q16 20 28.5 32.5t24 22.5t22.5 21.5t24 27.5l11 1t23 1q14 0 25 1l10 1q-6 6 -19.5 17.5t-28.5 25t-29.5 25.5 t-18.5 18q-6 6 -18 13q-4 2 -5.5 3t-5.5 3q4 0 8 -4q-18 29 -47 53q-10 25 -21 49.5t-34 40.5q2 20 -16 43q-4 0 -5 1t-3 1v-2q-4 6 -8.5 15.5t-14.5 9.5q-6 10 -16.5 17t-12.5 20q-2 0 -4 1t-4 1l-31 45q-6 12 -14 23.5t-18 19.5l-205 276l-43 2l-1 3q-1 3 -5 3 q-2 10 -7.5 19.5t-15.5 9.5l-14 2q-10 2 -22.5 3t-12.5 20q0 10 14 10h4q2 2 11.5 -4t13.5 -8h6q6 -2 14.5 2t16.5 2q12 0 20 -8h117l21 2q47 -2 91 2t91 2h43l1 -2q1 -2 1 -4v-9l-10 -8q-27 -6 -48.5 -14t-44.5 -19l-8 -4q-14 -14 -22 -41q27 -78 73 -146.5t99 -127.5l-2 4 q10 -4 16 -12.5t10 -12.5q0 -2 9 -10v-31q10 -10 19 -22t26 -14q6 -16 13 -30.5t23 -25.5q10 -18 17 -20q0 -20 22 -37q6 -20 21.5 -36.5t34.5 -27.5l-17 7q0 -12 9 -27q2 0 6 -4v6q23 -10 26.5 5t-0.5 34q29 23 41 55q8 8 14.5 16.5t6.5 20.5q8 4 11 10t7 13 q16 10 23.5 24.5t11.5 28.5q16 2 25.5 14t21.5 23v30q2 4 4 6.5t2 4.5q4 4 11.5 12t15.5 12v-4q53 61 98 116.5t72 135.5q-10 29 -23 39l-8 4q-23 10 -44 19.5t-48 15.5l-10 8v8q0 2 2 4l2 2h41q45 2 91 -2t93 -2l21 -2h114q8 8 21 8q8 2 16 -2t14 -2h7q4 2 13 8.5t11 4.5h4 q4 0 11.5 -3t5.5 -8q2 -18 -12.5 -19t-24.5 -3l-15 -2q-10 0 -15 -10.5t-7 -20.5q-4 0 -5 -3l-1 -3h-43l-203 -250q-12 -8 -20.5 -20.5t-16.5 -26.5l-29 -45q-2 0 -4 -1t-4 -1q-2 -12 -12 -19.5t-16 -17.5q-10 0 -14.5 -9t-8.5 -13h-8q-18 -20 -14 -43q-23 -18 -34 -43 t-24 -50q-29 -25 -47 -53q4 4 10 4q-8 -4 -10 -6q-16 -10 -18 -12q-12 -16 -26.5 -27.5t-31.5 -28.5q29 -35 60.5 -76.5t68.5 -84.5q2 -18 12.5 -32.5t22.5 -29t23.5 -27t17.5 -26.5q2 -8 9.5 -16.5t15.5 -12.5q12 -29 43 -35q23 -29 42 -54t40 -48q8 -18 32 -37 q6 -6 12.5 -13t12.5 -13q0 -25 1 -55.5t3 -35.5q0 -4 3 -13t7 -19.5t9.5 -18.5t9.5 -8l12 3t0 7q0 4 -4 26.5t-10 51.5q8 -8 24 -4q51 -63 70 -63h39v-5q0 -4 8 -6q0 -8 6 -16t17 -8l14 -2q10 -2 24.5 -1t12.5 -16q2 -6 -5.5 -10t-11.5 -2l-2 -2q-4 0 -14 3t-14 7h-7 q-4 0 -11 -4t-15 0q-6 0 -13.5 2t-11.5 2l-114 2l-21 -4q-49 4 -93 0t-89 -8h-45l-1 2q-1 2 1 4v6l10 8q23 8 45.5 17.5t46.5 19.5l8 6l4 -6l7 17q2 14 0 30q0 2 -2 2v3q0 4 -1 7t-1 7q-12 29 -37 51.5t-47 46.5q-8 14 -14.5 27.5t-14.5 27.5q-4 4 -4 9q-16 27 -35.5 49 t-44.5 43q-27 35 -54.5 68.5t-62.5 62.5q-4 31 -17.5 57.5t-33.5 50.5q-2 -2 -4 -2l-2 -2q-10 -18 -33 -18q-23 -35 -27 -74q-35 -29 -62.5 -63.5t-53.5 -69.5q-23 -20 -43.5 -44t-36.5 -48q0 -6 -2 -8q-8 -14 -14.5 -28.5t-14.5 -29.5q-23 -25 -48.5 -47t-37.5 -51 q0 -4 -1 -7t-1 -7q0 -2 -2 -2v-2q-4 -12 0 -31l6 -16l4 6l8 -6q27 -10 48.5 -19.5t44.5 -17.5l10 -9v-6q4 -2 2 -4l-2 -2h-43q-47 4 -91 8t-93 0l-21 4l-113 -2q-6 0 -12 -2t-12 -2q-8 -4 -15.5 0t-11.5 4h-6q-4 -4 -14.5 -9t-14.5 -3l-2 4q-4 -6 -9 0t-5 13q0 16 12.5 15 t22.5 1l14 2q10 0 16.5 8t6.5 17q8 2 8 6v4h39q8 0 33.5 26.5t64.5 71.5h2q-10 -35 -16 -68.5t-6 -39.5q-2 -8 12 -11q4 0 9 8.5t9 19.5t7.5 20.5t3.5 11.5zM195 1382q0 -6 18 -40.5t42 -74.5t44 -72t25 -30q2 0 -11.5 24.5t-30 55.5t-30.5 57.5t-14 30.5q0 2 -2.5 12.5 t-6.5 20.5t-9 18.5t-11 8.5q-18 -1 -14 -11zM1239 1370q4 10 -12 10q-12 0 -20.5 -25.5t-8.5 -31.5q0 -2 -4 -9t-8 -18q4 -2 6 -4l4 -4q18 31 30.5 54.5t12.5 27.5zM1137 178q-8 39 -72 78q25 -29 43 -59.5t22 -69.5q0 -2 2 -3l1 -1q2 14 3 24.5t1 16.5v14zM1112 1180 q2 -2 33 47q-4 0 -17.5 9t-15.5 9q-10 -20 -7 -42.5t7 -22.5zM1200 188q-2 2 -3 4.5t-3 4.5v6q2 -4 3 -5t3 -5v-5zM618 907l-6 4v9zM817 922l4 12v-8zM782 702l-4 5q0 -2 1 -3l1 -2h2zM721 618q0 -2 -2 -2q2 0 2 2zM639 752q2 -2 33 47q-4 0 -17.5 9t-15.5 9 q-10 -20 -7 -42.5t7 -22.5z" />
<glyph unicode="y" horiz-adv-x="1202" d="M498 209q2 37 5 86t5 101.5t3 102.5t1 91q-45 96 -117 217q-12 33 -27.5 75t-41.5 93q-16 33 -27.5 69.5t-24.5 69.5q-4 33 -7 49.5t-7 23.5t-9 8t-11 1t-13 10l-143 185l-84 26l10 10h76q35 0 73 -1t70 -1q33 0 57.5 -1t35.5 -1h14h82q6 0 0 -2t4 -4 q-33 -12 -55.5 -22.5t-22.5 -59.5q2 -23 21.5 -77t47 -121.5t61.5 -141t64.5 -135t54 -102.5t34.5 -45q12 12 24.5 32.5t26.5 43t27.5 42t27.5 29.5v-12q-4 -16 -25.5 -61.5t-50.5 -98.5q-4 -4 -9 -24.5t-5 -24.5v-152q0 -49 -2 -104t3 -109.5t24.5 -102.5t62.5 -83 q27 -16 71 -37.5t68 -50.5h-39h-36q-8 0 -45 2t-79 5t-80 5t-46 2h-4h-6q-8 0 -36 -2t-58.5 -5t-57.5 -5t-33 -2h-45h-45q2 6 30.5 20.5t67.5 39t78 61.5t62 88zM758 915q6 14 23.5 50t37 76t36.5 76t24 52q12 25 24 68t19 72q8 25 0.5 41t-19.5 28.5t-24.5 23.5t-14.5 30 q29 0 79 1t99.5 2t85 0t35.5 -8l4 -10q-31 -8 -55.5 -14t-49 -21.5t-50 -47t-58.5 -91.5q-47 -82 -79.5 -144.5t-56 -108.5t-40 -78.5t-30.5 -55.5l-15 16zM244 1386q0 -6 6 -32.5t13 -56t14.5 -54t11.5 -24.5q2 0 2 16v39q0 23 -1 41t-1 22q0 2 -3 12.5t-8.5 19.5 t-10.5 17.5t-11 8.5q-12 -1 -12 -9z" />
<glyph unicode="z" horiz-adv-x="1470" d="M61 1280q0 -18 -16 -21.5t-22 9.5q-4 -31 -8.5 -64t-4.5 -67v-45q27 35 50.5 78.5t52.5 78.5q37 55 102.5 86t143 46.5t160.5 19.5t157 4q10 0 29.5 3t46.5 3l77 -6q37 -10 72 -17.5t65.5 -18.5t55.5 -29.5t41 -51.5q-6 -29 2 -49q-27 -47 -60.5 -86t-72.5 -82v4 q-8 -4 -15.5 -12t-11.5 -12q0 -2 -2 -4.5t-4 -6.5v-30q-12 -10 -21.5 -22.5t-25.5 -14.5q-4 -14 -11 -28.5t-24 -24.5q-4 -6 -7 -12.5t-11 -10.5q0 -12 -6.5 -20.5t-14.5 -16.5q-12 -33 -41 -55q4 -18 1 -33.5t-25 -7.5q0 -4 -1 -7t-1 -7l-21 -17q-2 -4 -2 -22 q-16 -12 -26 -17q0 -2 -3 -2q-4 -4 -6 -4q12 -10 23.5 -18t15.5 -13l-10 -1t-25 -1q-12 0 -23 -1l-11 -1q-12 -16 -23.5 -27.5t-23 -21.5t-23.5 -22.5t-29 -32.5q0 -18 -9 -32.5t-21.5 -27l-24.5 -24.5t-18 -29q-2 -8 -9.5 -17t-15.5 -13q-12 -29 -43 -35q-31 -37 -59.5 -73 t-55.5 -67q-2 -4 -4 -7t-4 -7q2 -25 -18 -39q-2 -4 -2 -22v-21q0 -20 -2 -22q0 -2 -3.5 -11.5t-7.5 -20.5t-9 -19.5t-9 -8.5q-14 2 -12 10q0 6 6 40t16 69h-2q-39 -45 -64.5 -71.5t-33.5 -26.5h-39v-4q0 -4 -8 -7q0 -8 -6.5 -16t-16.5 -8l-14 -2q-10 -2 -22.5 -1t-12.5 -16 q0 -6 5 -12t9 0l2 -4q4 -2 14.5 3t14.5 9h6q4 0 11.5 -4t15.5 0q6 0 12 2t12 2l113 2l21 -4q49 2 98 0h35q23 -14 48 -10t48 -4h33h159h64q129 2 253 3t259 1q2 14 3 24.5t9 12.5t25.5 -4t52.5 -23q25 -8 50.5 -7t53.5 -1q-25 6 -24 21v51q-2 2 -2 20q-10 -10 -22.5 -5 t-12.5 22q0 16 14.5 20t22.5 -6q4 43 16.5 88t12.5 92v47q-29 -35 -50.5 -80t-48.5 -79q-37 -59 -99.5 -91t-137 -48.5t-153.5 -19.5t-148 -3q-8 0 -24.5 2t-41.5 2l-84 4q-41 6 -74.5 11t-61.5 14.5t-49.5 27t-35.5 47.5q-2 8 -4 15.5t-4 11.5q2 8 4 19.5t4 25.5q2 4 5 7 t5 7q14 14 17 33q2 12 10 23q2 2 2 8q16 25 36.5 48.5t43.5 43.5q27 35 54.5 69.5t61.5 63.5v2q2 2 7 10q10 4 15 13.5t9 19.5q18 12 31 31q6 8 2 18l2 2q4 12 14.5 22.5t20.5 18.5q8 20 31 33q-2 4 -4.5 6t-4.5 6q16 16 30.5 27.5t27.5 28.5q2 2 18 12q2 2 10 6 q-6 0 -10 -4q18 29 47 53q12 25 23.5 49.5t34.5 42.5q-4 23 14 43h8q4 4 8 13.5t15 9.5q6 10 16 17.5t12 19.5q2 0 4 1t4 1l29 45q8 14 16.5 26.5t20.5 20.5l82 100q-4 12 4 21q10 18 33 24l84 105h24q2 2 4 2q4 0 7 2h-2l9 9t11 7q4 16 18 17l15 2q10 2 24.5 3t12.5 19 q2 4 -5.5 7.5t-11.5 3.5h-4q-2 2 -11 -4.5t-13 -8.5h-7q-6 -2 -14 2t-16 2q-4 0 -6 -2l-7 7l31 12h-117q-4 4 -10 4q-8 0 -10 -2t-6 -2q-41 0 -80 1t-96 5l-15 -6h-51q-41 0 -85 -1t-85 -1h-63q-131 -2 -265.5 -4t-269.5 -2q-4 -14 -8 -23.5t-15.5 -10.5t-32 6t-57.5 26 q-23 10 -51 8t-55 0q14 -4 15 -16.5t1 -18.5l11 -37q2 -18 4 -27.5t0 -29.5q10 10 20 -2.5t10 -28.5zM1167 1378q8 -2 16.5 -3t16.5 -3v-6q-2 0 -3 -1t-3 -1q-23 -16 -8 -33q-4 -4 -7 -27.5t-8 -27.5l-26 49l8 51q4 0 7 1t7 1zM819 807q0 -10 -2 -6t-3 14t-3 24.5t-2 26.5 q0 23 20 23t21 -23zM1128 1352q-16 12 -26 -4l-2 -2q-4 6 -9.5 13t-9.5 11q12 2 32 3t40 3q-8 -4 -13.5 -10t-11.5 -14zM1112 1178q-8 0 -8 18l35 31q2 -2 6 -2q-31 -49 -33 -47zM817 920l4 4v8zM782 700h-2l-1 1q-1 1 -1 4z" />
<glyph unicode="&#xdf;" horiz-adv-x="2054" d="M739 838l-14 -17q78 31 120 76t61.5 91t24.5 87t9 66q2 -2 2 -41t-4 -87t-4 -77l-6 -117q-25 -4 -59.5 -13t-66.5 -22.5t-54.5 -31t-22.5 -37.5q49 14 107.5 24.5t87.5 18.5q-2 -8 -5.5 -63.5t-15.5 -135.5t-35.5 -170t-66.5 -168q27 12 53.5 69.5t50 124t43 126 t31.5 75.5q41 51 75.5 77t100.5 22q72 -12 96.5 -67.5t9 -124t-67.5 -135t-134 -99.5q-29 -18 -71 -37t-85 -40.5t-81 -45t-60 -51.5q-16 -12 -30.5 -36t-21 -54.5t0 -67.5t30.5 -76q23 -35 55.5 -64.5t74.5 -48t91.5 -23.5t102.5 9q-31 8 -59.5 10.5t-55 7.5t-51.5 18 t-47 44q-41 35 -57.5 80t-12.5 90t25.5 84t58.5 62q31 37 104.5 67.5t151.5 72.5t140.5 106.5t72.5 168.5q2 74 -31.5 121t-82 66.5t-99.5 12.5t-84 -44l-59 -64l8 101q63 37 106.5 49t77 10t62 -12t65.5 -19q-31 29 -58.5 49.5t-60 28.5t-78.5 4t-114 -22q10 72 11 146.5 t-5 145t-19.5 133t-31.5 109.5q0 -59 -10 -135t-34 -152.5t-62 -144t-93 -110.5zM1999 381q-4 4 -7 9t-12 7q8 12 -14 45q-12 4 -18 10.5t-17 6.5v-2q-6 12 -20 18q-12 0 -29 10l-14 7q-15 6 -41 20q-51 27 -76 27q-20 0 -20 4q12 23 20 22q0 4 6 8q0 8 6 16.5t13 14.5 q4 8 8 12q2 2 3 4.5t3 4.5q2 0 4 2h2l4 4q0 6 1 7l3 3q4 4 8 5l5 1h2q6 8 8 14.5t6 14.5q8 0 10 8q4 10 12 10q16 0 25.5 11.5t22.5 17.5l4 8q4 0 7 4t11 10l4 5q-8 10 2 20v4l4 2q4 4 9 4v4q4 4 4 11q0 14 2 16q25 20 24 25q4 10 6 20t7 12q4 0 4 17q0 10 -7.5 28.5 t-17.5 51.5q-18 0 -20 -25q-4 -6 -10.5 -11t-16.5 -16q-6 -10 -11 -16t-7 -12q-4 -2 -15.5 -13.5t-38.5 -33.5q-37 -47 -43 -62q-2 0 -7 -6t-17 -22q-29 -29 -29 -35q-10 -8 -21.5 -21.5t-11.5 -19.5l-4 4l-2 12q0 23 2 25q2 10 3 17t1 11v33q6 63 6 119q0 12 -6 12l4 13 q-8 14 -12 26t-12 21v2l-10 16l-17 -6q0 -8 -4 -12l2 -17l-2 -12l2 -4q-2 -10 -4 -27.5t-2 -44.5l2 -3q2 -3 2 -11q-4 -14 -5 -22.5t-1 -14.5v-23q0 -23 -2 -24q-2 -10 -3 -16l-1 -5q0 -16 -2 -18q0 -16 -2 -18l2 -11l-2 -10q0 -2 1 -6t1 -8t-1 -5t-1 -8v-16q0 -6 -1 -13 t-1 -16l2 -4v-20q0 -10 -1 -14.5t-1 -14.5q0 -14 -1 -35.5t-8 -52.5q-2 -33 -4 -56.5t-2 -37.5q0 -10 2 -24.5t2 -22.5v-8l11 -5q0 -10 1 -8t5 -8l6 -6l6 -19q10 29 13 47.5t12 24.5q-2 10 -3 16l-1 5l8 14l-4 4l4 35v20l2 2q10 -10 20.5 -17t20.5 -15l18 10q4 -4 8 -4 q12 0 15 -2q4 -6 10 -8l6 -2l6 6q2 -4 7.5 -7.5t9.5 -7.5q18 0 22 -4l2 2l4 -10h21l6 -4q6 0 8 -3t10 -7q16 -10 19 -11q20 0 47 -14v-6q8 0 8 6l8 -10v4l6 -4v10l15 2l4 8v25zM377 702v89q-8 8 -9 23t-5.5 23.5t-7.5 20.5t-13 35q-10 18 -12 28.5t-2 14.5l-6 7l-13 13 q-10 10 -15 14.5t-7 6.5l-17 -4q0 -4 -4 -9.5t-6 -9.5l2 -6q0 -10 -1 -15t-1 -11q0 -16 2 -19h6q2 -4 3 -7t5 -13q4 -8 7.5 -11.5l5.5 -5.5q2 -6 5 -14t5 -21q4 -10 7 -17t3 -15v-8q2 -4 6 -17.5t4 -17.5q0 -25 -2 -58.5t-8 -68.5v-11q0 4 -1 0t-3 -14v-20l-8 6v-31 q0 -6 -10 -22q0 -23 -11 -23q0 -23 -16 -39q-10 14 -16 28.5t-13 26.5q-4 16 -10 29.5t-10 24.5l-2 4l2 8q-10 18 -12 29.5t-4 21.5l2 6l-13 4q-2 6 -8 30t-20 65q-10 35 -20.5 53t-14.5 26l-12 19q-4 0 -9 3l-4 3q-4 0 -6 -3t-4 -5v-2l-2 -6q-4 -4 -4 -19l-6 -10v-2 q0 -10 -2 -15.5t-4 -9.5l2 -10q-8 -18 -9 -41v-39l5 -6l-5 -55l7 -4q0 -10 -7 -19q10 -16 0 -39v-12q0 -6 -2 -13t-2 -16v-10q-2 -12 -5 -33.5t-3 -56.5v-14q-6 -23 -8 -40.5t-2 -39.5q0 -14 10 -31l6 -2h-4l6 -8q4 0 4 -8h13l6 -6v6l8 2l6 6q2 2 2 20q0 12 2 15v4l4 6 q6 43 7 57v15l4 10v20q10 59 12 96t2 52v31l14 -25q18 -55 21 -55q0 -4 4 -16.5t16 -37.5q10 -16 14.5 -27t4.5 -14q8 -14 14 -28.5t14 -30.5q14 -35 31 -39l2 -2q27 0 29 2q8 27 14 33q0 14 31 76v4q4 8 7 20.5t5 34.5l6 4v8h4q0 6 1 13.5t6 17.5q2 18 7 25l5 6 q0 10 -10 20q8 14 9 22.5t3 12.5v8l-2 15q2 6 3 15t5 11zM502 655l-3 -12l-1 -4q0 -6 -4 -10h-11l-2 10l-4 8l-8 -6l-6 6l-12 -8h-5q-4 0 -32 -29l-4 -6l-2 -6l-2 -8l-13 -4q-4 -8 -9 -14.5t-7 -14.5q-12 -12 -12 -31v-4q-4 -12 -5.5 -25.5t-1.5 -25.5q0 -18 6.5 -48 t22.5 -65q16 -8 27.5 -14t21.5 -10l8 2l2 -2h5l2 2h8q2 -2 7 -6t9 -4q14 0 21 10q2 -2 20 -2h8v6h4l15 -6h12l2 6q16 4 26.5 7t22.5 13h2l6 9h2q18 25 27 24q0 2 6 13.5t6 15.5q2 6 5.5 18.5t3.5 28.5q0 6 -1 17.5t-6 25.5l-2 2l2 2q-6 18 -10 28.5t-8 20.5q0 4 -5 12.5 t-9 18.5q-6 10 -11.5 18.5t-7.5 14.5h-8q-4 4 -14.5 11t-26.5 15q-14 8 -25.5 15.5t-15.5 13.5l-4 -6l-8 6l-4 -18h-4l-4 -11h8zM1475 731q-2 -10 -3.5 -15t-1.5 -3q0 -6 -4 -11l-8 3l-4 10l-6 6l-6 -6l-6 8l-11 -8h-8q-4 0 -31 -31v-6l-8 -2l-2 -10l-12 -9q-4 -8 -7 -11 t-7 -11q-10 -16 -11 -33v-4q-6 -23 -6 -55q0 -16 5 -46t22 -65q16 -6 29.5 -11t19.5 -13l8 4v-4h10v4h5q8 -8 22 -9q10 0 16 9q10 -2 15.5 -3t3.5 -1h10l4 8v2l13 -10h16l2 10q18 2 47 20h2l6 6h2q20 25 27 25q0 2 5 10t5 15q10 37 10 47t-1 22t-5 23l-4 2l4 8 q-6 16 -10 25.5t-4 19.5q-10 10 -19 29q-6 10 -10 18t-8 14h-6q-16 23 -41 31q-35 12 -45 29l-2 -6l-4 6l-6 -21l-7 -2l-4 -6zM860 715q-2 -2 -14 -2h-17q-4 0 -10 -8q-18 12 -28 0l-3 -3q-10 0 -13 -1t-7 -5l-6 -2h-4q-10 -14 -14 -20l-3 -6q-6 -20 -10 -36t-6 -28v-2 q-10 -16 -10 -31h-2v-16l-4 12v21q0 2 6 8q-4 10 -5 17.5t-5 9.5q-4 10 -5.5 14t-1.5 8v2q-10 16 -10 29l-12 33l-2 4q-4 8 -9.5 13t-7.5 7q-10 -4 -18 -17.5t-8 -21.5q0 -12 3 -23.5t7 -29.5q4 -23 7 -35t3 -16l6 -6q0 -14 2 -17l-2 -10q2 -2 2 -8q0 -20 7.5 -57t21.5 -97 h6q0 -18 11 -35l4 5l8 -5q27 14 33 58l6 4q-4 4 -7.5 7t-3.5 9v4q6 18 9 26l2 7q0 20 2 23q0 6 2 13t4 19q10 31 10 29v4q0 6 -2 8l2 4v5q0 4 4 4v6l23 22q4 0 9 3t9 6h6v2h21l4 -2l20 -3q2 2 -4 3.5t-4 1.5q25 0 36 21.5t12 42t-7 28.5t-20 -21v11q-8 4 -11.5 6t-11.5 4z M1565 612q0 -2 6 -9t12 -17q2 -10 5 -19.5t3 -15.5q0 -23 -39 -37q-14 0 -24 -4t-21 -6q-23 0 -24 -6l-4 4q-14 -8 -21 -8h-4l-6 4q-8 0 -10 6q-29 0 -31 2l-4 -2q-27 14 -27 18v21q8 12 13.5 21t9.5 20q14 0 20 26h6l5 -8q4 4 7 6t5 4h6q0 -8 5 -11t5 -5l8 2q0 4 5.5 7 t7.5 5h4q-4 4 -4 6v7l-2 6l6 18q-4 6 -6 13.5t-7 15.5l5 2l2 4l2 -6v-8q10 -2 18 -5.5t16 -3.5q2 -2 3.5 -5t11.5 -7q6 -8 20 -8q5 -11 17 -27zM592 541q0 -6 18 -27q4 -10 8.5 -19.5t4.5 -17.5q0 -12 -43 -31q-12 -4 -21.5 -7t-23.5 -9q-18 0 -25 -6l-4 4q-12 -6 -23 -6h-2 l-4 6h-2q-4 0 -6 2q-25 0 -33 8l-4 -8q-25 14 -24 27v14q6 12 11 22.5t5 20.5q16 0 27 23l10 -7q2 0 3 5.5t5 5.5h8q0 -8 4 -11.5t8 -7.5l9 6q0 2 3 3t5 6l4 4q-4 0 -4 8v8l4 14l-8 33v6h2l2 -6v-6q12 -6 20.5 -7t16.5 -1l5 -4q5 -4 9 -13q2 -4 9 -9t14 -5q2 -10 12 -18z M1210 53q0 -49 43 -49q16 0 29.5 11.5t13.5 39.5q0 23 -12 36t-31 13q-18 0 -30.5 -12t-12.5 -39zM1425 53q0 -49 43 -49q16 0 29.5 11.5t13.5 39.5q0 23 -12 36t-31 13q-18 0 -30.5 -12t-12.5 -39zM1102 6v103l67 -103h19v131h-17v-104l-69 104h-17v-131h17zM1546 6v37 l10 10l31 -47h21l-41 60l39 36h-25l-35 -36v71h-16v-131h16zM1741 6v49q0 33 24 33q20 0 21 -27v-55h16v57q0 14 -2 17q-4 10 -10 17t-21 7q-18 0 -28 -16v14h-17v-96h17zM1886 41q-2 -20 -24 -21q-25 0 -25 33q0 35 25 35q10 0 22 -16l17 2q-10 31 -39 30q-41 0 -41 -51 q0 -49 41 -49q31 0 41 35zM1397 6v80h18v16h-18v7q0 14 12 14q8 0 10 -2l2 16q-2 2 -14 2t-17.5 -4t-9.5 -10v-23h-14v-16h14v-80h17zM1227 53q0 35 26 35q27 0 27 -35q0 -33 -27 -33q-26 0 -26 33zM1442 53q0 35 26 35q27 0 27 -35q0 -33 -27 -33q-26 0 -26 33zM1694 6v131 h-17v-131h17zM1331 6v49q0 18 2 21q2 12 15 12l3 -1l9 -3l6 14q-10 6 -18 6t-19 -16v14h-14v-96h16zM1937 6v17h-16v-17h16z" />
<glyph unicode="&#x2000;" horiz-adv-x="728" />
<glyph unicode="&#x2001;" horiz-adv-x="1456" />
<glyph unicode="&#x2002;" horiz-adv-x="728" />
<glyph unicode="&#x2003;" horiz-adv-x="1456" />
<glyph unicode="&#x2004;" horiz-adv-x="485" />
<glyph unicode="&#x2005;" horiz-adv-x="364" />
<glyph unicode="&#x2006;" horiz-adv-x="242" />
<glyph unicode="&#x2007;" horiz-adv-x="242" />
<glyph unicode="&#x2008;" horiz-adv-x="182" />
<glyph unicode="&#x2009;" horiz-adv-x="291" />
<glyph unicode="&#x200a;" horiz-adv-x="80" />
<glyph unicode="&#x202f;" horiz-adv-x="291" />
<glyph unicode="&#x205f;" horiz-adv-x="364" />
<glyph unicode="&#x25fc;" horiz-adv-x="1443" d="M0 1444h1444v-1444h-1444v1444z" />
</font>
</defs>
</svg>
